ply
format ascii 1.0
comment Created by Blender 2.79 (sub 0) - www.blender.org, source file: 'pipes.blend'
element vertex 64
property float x
property float y
property float z
property float nx
property float ny
property float nz
property float s
property float t
property uchar red
property uchar green
property uchar blue
element face 24
property list uchar uint vertex_indices
end_header
0.164545 0.350562 -0.000000 0.707083 -0.707083 0.000000 0.579397 0.285382 255 255 255
0.104034 0.411073 0.148223 0.279366 -0.279366 0.918607 0.389310 0.293057 255 255 255
0.078969 0.350562 0.148223 0.293649 -0.669027 0.682730 0.405274 0.221342 255 255 255
0.078969 0.350562 -0.148223 0.293649 -0.669027 -0.682730 0.527375 0.209189 255 255 255
0.104034 0.411074 -0.148223 0.279366 -0.279366 -0.918607 0.553226 0.288306 255 255 255
0.164545 0.350562 -0.000000 0.707083 -0.707083 0.000000 0.334071 0.294626 255 255 255
-0.177760 0.350562 0.000000 -0.887967 -0.459853 0.000000 0.822453 0.194753 255 255 255
-0.077501 0.592609 0.000000 -0.707083 0.707083 0.000000 0.459959 0.194753 255 255 255
-0.016989 0.532097 -0.148223 -0.411573 0.411573 -0.813105 0.459610 0.035083 255 255 255
-0.092184 0.350562 -0.148223 -0.497574 -0.518876 -0.695090 0.771375 0.035083 255 255 255
-0.016989 0.532097 0.148223 -0.411573 0.411573 0.813105 0.217030 0.287443 255 255 255
-0.092184 0.350562 0.148223 -0.497574 -0.518876 0.695090 0.261856 0.107799 255 255 255
-0.092184 0.350562 -0.148223 -0.497574 -0.518876 -0.695090 0.529492 0.200559 255 255 255
-0.016989 0.532097 -0.148223 -0.411573 0.411573 -0.813105 0.654293 0.055038 255 255 255
0.104034 0.411074 -0.148223 0.279366 -0.279366 -0.918607 0.732397 0.205433 255 255 255
0.078969 0.350562 -0.148223 0.293649 -0.669027 -0.682730 0.688198 0.252484 255 255 255
-0.092184 0.350562 0.148223 -0.497574 -0.518876 0.695090 0.725246 0.357345 255 255 255
-0.016989 0.532097 0.148223 -0.411573 0.411573 0.813105 0.463465 0.357345 255 255 255
0.164545 0.436138 -0.148223 0.669027 -0.293649 -0.682730 0.531487 0.370656 255 255 255
0.164546 0.692867 0.000000 0.459853 0.887967 0.000000 0.107810 0.194753 255 255 255
0.164546 0.607291 -0.148223 0.518876 0.497574 -0.695090 0.166544 0.035083 255 255 255
0.164545 0.436138 0.148223 0.669027 -0.293649 0.682730 0.410692 0.362233 255 255 255
0.164545 0.607291 0.148223 0.518876 0.497574 0.695090 0.257278 0.481559 255 255 255
0.164546 0.607291 -0.148223 0.518876 0.497574 -0.695090 0.832834 0.031369 255 255 255
0.164545 0.436138 -0.148223 0.669027 -0.293649 -0.682730 0.796518 0.189556 255 255 255
0.164545 0.607291 0.148223 0.518876 0.497574 0.695090 0.180595 0.357345 255 255 255
0.078969 0.350562 -0.148223 0.293649 -0.669027 -0.682730 0.527375 0.209189 0 0 0
0.164545 0.350562 -0.000000 0.707083 -0.707083 0.000000 0.334071 0.294626 0 0 0
0.067884 0.350562 -0.000000 0.000000 -1.000000 0.000000 0.334071 0.294626 255 255 255
0.030638 0.350562 -0.064511 0.000000 -1.000000 0.000000 0.527375 0.209189 255 255 255
-0.177760 0.350562 0.000000 -0.887967 -0.459853 0.000000 0.822453 0.194753 0 0 0
-0.092184 0.350562 -0.148223 -0.497574 -0.518876 -0.695090 0.771375 0.035083 0 0 0
-0.043853 0.350562 -0.064511 0.000000 -1.000000 0.000000 0.771375 0.035083 255 255 255
-0.081099 0.350562 0.000000 0.000000 -1.000000 0.000000 0.822453 0.194753 255 255 255
0.078969 0.350562 0.148223 0.293649 -0.669027 0.682730 0.405274 0.221342 0 0 0
-0.092184 0.350562 0.148223 -0.497574 -0.518876 0.695090 0.261856 0.107799 0 0 0
-0.043853 0.350562 0.064511 0.000000 -1.000000 0.000000 0.261856 0.107799 255 255 255
0.030638 0.350562 0.064511 0.000000 -1.000000 0.000000 0.405274 0.221342 255 255 255
0.164545 0.350562 -0.000000 0.707083 -0.707083 0.000000 0.579397 0.285382 0 0 0
0.067884 0.350562 -0.000000 0.000000 -1.000000 0.000000 0.579397 0.285382 255 255 255
-0.092184 0.350562 -0.148223 -0.497574 -0.518876 -0.695090 0.529492 0.200559 0 0 0
0.078969 0.350562 -0.148223 0.293649 -0.669027 -0.682730 0.688198 0.252484 0 0 0
0.030638 0.350562 -0.064511 0.000000 -1.000000 0.000000 0.688198 0.252484 255 255 255
-0.043853 0.350562 -0.064511 0.000000 -1.000000 0.000000 0.529492 0.200559 255 255 255
-0.092184 0.350562 0.148223 -0.497574 -0.518876 0.695090 0.725246 0.357345 0 0 0
-0.043853 0.350562 0.064511 0.000000 -1.000000 0.000000 0.725246 0.357345 255 255 255
0.164546 0.607291 -0.148223 0.518876 0.497574 -0.695090 0.166544 0.035083 0 0 0
0.164546 0.692867 0.000000 0.459853 0.887967 0.000000 0.107810 0.194753 0 0 0
0.164545 0.582641 0.000000 1.000000 0.000000 0.000000 0.107810 0.194753 255 255 255
0.164546 0.552178 -0.052764 1.000000 0.000000 0.000000 0.166544 0.035083 255 255 255
0.164545 0.607291 0.148223 0.518876 0.497574 0.695090 0.257278 0.481559 0 0 0
0.164545 0.436138 0.148223 0.669027 -0.293649 0.682730 0.410692 0.362233 0 0 0
0.164545 0.491251 0.052764 1.000000 0.000000 0.000000 0.410692 0.362233 252 252 252
0.164545 0.552178 0.052764 1.000000 0.000000 0.000000 0.257278 0.481559 255 255 255
0.164545 0.460788 -0.000000 1.000000 0.000000 0.000000 0.579397 0.285382 255 255 255
0.164545 0.436138 -0.148223 0.669027 -0.293649 -0.682730 0.796518 0.189556 12 12 12
0.164546 0.607291 -0.148223 0.518876 0.497574 -0.695090 0.832834 0.031369 0 0 0
0.164546 0.552178 -0.052764 1.000000 0.000000 0.000000 0.832834 0.031369 255 255 255
0.164545 0.491251 -0.052764 1.000000 0.000000 0.000000 0.796518 0.189556 255 255 255
0.164545 0.607291 0.148223 0.518876 0.497574 0.695090 0.180595 0.357345 0 0 0
0.164545 0.552178 0.052764 1.000000 0.000000 0.000000 0.180595 0.357345 255 255 255
0.164545 0.436138 -0.148223 0.669027 -0.293649 -0.682730 0.531487 0.370656 12 12 12
0.164545 0.491251 -0.052764 1.000000 0.000000 0.000000 0.531487 0.370656 255 255 255
0.164545 0.460788 -0.000000 1.000000 0.000000 0.000000 0.334071 0.294626 255 255 255
3 0 1 2
3 3 4 5
4 6 7 8 9
4 2 1 10 11
4 12 13 14 15
4 16 17 7 6
3 4 18 5
4 7 19 20 8
4 1 21 22 10
4 13 23 24 14
4 17 25 19 7
3 0 21 1
4 26 27 28 29
4 30 31 32 33
4 34 35 36 37
4 38 34 37 39
4 40 41 42 43
4 44 30 33 45
4 46 47 48 49
4 50 51 52 53
4 51 38 54 52
4 55 56 57 58
4 47 59 60 48
4 27 61 62 63
