# Blender v2.79 (sub 0) OBJ File: 'pipes.blend'
# www.blender.org
o Cylinder.007_Cylinder.006
v -0.159438 0.351777 -0.078969
v -0.159438 0.351777 0.092184
v -0.159438 0.500000 0.177760
v -0.159438 0.648223 0.092184
v -0.159438 0.648223 -0.078969
v -0.159438 0.500000 -0.164545
v -0.098927 0.351777 -0.104034
v 0.022097 0.351777 0.016990
v 0.082609 0.500000 0.077501
v 0.022097 0.648223 0.016990
v -0.098926 0.648223 -0.104034
v -0.073862 0.351777 -0.164545
v 0.097291 0.351777 -0.164545
v 0.182867 0.500000 -0.164545
v 0.097291 0.648223 -0.164545
v -0.073862 0.648223 -0.164545
v -0.159438 0.413660 -0.043241
v -0.159438 0.413660 0.056456
v -0.159438 0.500000 0.106304
v -0.159438 0.586340 0.056456
v -0.159438 0.586340 -0.043241
v -0.159438 0.500000 -0.093090
v -0.077127 0.500000 -0.164545
v -0.032706 0.423061 -0.164545
v 0.056136 0.423061 -0.164545
v 0.100557 0.500000 -0.164545
v 0.056136 0.576939 -0.164545
v -0.032706 0.576939 -0.164545
vt 0.747366 0.256085
vt 0.557278 0.263760
vt 0.573242 0.192045
vt 0.695344 0.179892
vt 0.721195 0.259009
vt 0.502039 0.265329
vt 0.990422 0.165456
vt 0.627928 0.165456
vt 0.627578 0.005787
vt 0.939343 0.005787
vt 0.384999 0.258146
vt 0.429824 0.078502
vt 0.697461 0.171262
vt 0.822261 0.025742
vt 0.900365 0.176137
vt 0.856167 0.223187
vt 0.893215 0.328048
vt 0.631434 0.328048
vt 0.699456 0.341359
vt 0.275779 0.165456
vt 0.334513 0.005787
vt 0.578661 0.332936
vt 0.425247 0.452262
vt 1.000802 0.002072
vt 0.964486 0.160259
vt 0.348564 0.328048
vt 0.502039 0.265329
vt 0.695344 0.179892
vt 0.939343 0.005787
vt 0.990422 0.165456
vt 0.429824 0.078502
vt 0.573242 0.192045
vt 0.747366 0.256085
vt 0.856167 0.223187
vt 0.697461 0.171262
vt 0.893215 0.328048
vt 0.275779 0.165456
vt 0.334513 0.005787
vt 0.578661 0.332936
vt 0.425247 0.452262
vt 0.747366 0.256085
vt 1.000802 0.002072
vt 0.964486 0.160259
vt 0.348564 0.328048
vt 0.699456 0.341359
vt 0.502039 0.265329
vn -0.7071 0.0000 -0.7071
vn -0.2794 -0.9186 -0.2794
vn -0.6691 -0.6827 -0.2937
vn -0.6691 0.6827 -0.2937
vn -0.2794 0.9186 -0.2794
vn 0.3827 -0.0000 0.9239
vn 0.7071 -0.0000 0.7071
vn 0.4116 0.8131 0.4116
vn 0.2344 0.7905 0.5659
vn 0.4116 -0.8131 0.4116
vn 0.2344 -0.7905 0.5659
vn -0.2937 0.6827 -0.6691
vn 0.9239 0.0000 0.3827
vn 0.5659 0.7905 0.2344
vn -0.2937 -0.6827 -0.6691
vn 0.5659 -0.7905 0.2344
vn -1.0000 -0.0000 0.0000
vn -0.0000 -0.0000 -1.0000
s 1
f 6/1/1 7/2/2 1/3/3
f 5/4/4 11/5/5 6/6/1
f 3/7/6 9/8/7 10/9/8 4/10/9
f 1/3/3 7/2/2 8/11/10 2/12/11
f 4/13/9 10/14/8 11/15/5 5/16/4
f 2/17/11 8/18/10 9/8/7 3/7/6
f 11/5/5 16/19/12 6/6/1
f 9/8/7 14/20/13 15/21/14 10/9/8
f 7/2/2 12/22/15 13/23/16 8/11/10
f 10/14/8 15/24/14 16/25/12 11/15/5
f 8/18/10 13/26/16 14/20/13 9/8/7
f 6/1/1 12/22/15 7/2/2
f 5/4/4 6/6/1 22/27/17 21/28/17
f 3/7/17 4/10/17 20/29/17 19/30/17
f 1/3/3 2/12/17 18/31/17 17/32/17
f 6/1/1 1/3/3 17/32/17 22/33/17
f 4/13/17 5/16/4 21/34/17 20/35/17
f 2/17/17 3/7/17 19/30/17 18/36/17
f 15/21/18 14/20/18 26/37/18 27/38/18
f 13/23/18 12/22/15 24/39/18 25/40/18
f 12/22/15 6/1/1 23/41/18 24/39/18
f 16/25/12 15/24/18 27/42/18 28/43/18
f 14/20/18 13/26/18 25/44/18 26/37/18
f 6/6/1 16/19/12 28/45/18 23/46/18
