ply
format ascii 1.0
comment Created by Blender 2.79 (sub 0) - www.blender.org, source file: 'pipes.blend'
element vertex 66
property float x
property float y
property float z
property float nx
property float ny
property float nz
property float s
property float t
property uchar red
property uchar green
property uchar blue
element face 24
property list uchar uint vertex_indices
end_header
-0.159438 0.500000 -0.164545 -0.707083 0.000000 -0.707083 0.598929 0.275616 255 255 255
-0.098927 0.351777 -0.104034 -0.279366 -0.918607 -0.279366 0.408841 0.283291 255 255 255
-0.159438 0.351777 -0.078969 -0.669027 -0.682730 -0.293649 0.424805 0.211576 255 255 255
-0.159438 0.648223 -0.078969 -0.669027 0.682730 -0.293649 0.546906 0.199423 255 255 255
-0.098926 0.648223 -0.104034 -0.279366 0.918607 -0.279366 0.572757 0.278540 255 255 255
-0.159438 0.500000 -0.164545 -0.707083 0.000000 -0.707083 0.353602 0.284860 255 255 255
-0.159438 0.500000 0.177760 -0.459853 0.000000 0.887967 0.841985 0.184987 255 255 255
0.082609 0.500000 0.077501 0.707083 0.000000 0.707083 0.479491 0.184987 255 255 255
0.022097 0.648223 0.016990 0.411573 0.813105 0.411573 0.479141 0.025318 255 255 255
-0.159438 0.648223 0.092184 -0.518876 0.695090 0.497574 0.790906 0.025318 255 255 255
0.022097 0.351777 0.016990 0.411573 -0.813105 0.411573 0.236561 0.277677 255 255 255
-0.159438 0.351777 0.092184 -0.518876 -0.695090 0.497574 0.281387 0.098034 255 255 255
-0.159438 0.648223 0.092184 -0.518876 0.695090 0.497574 0.549023 0.190794 255 255 255
0.022097 0.648223 0.016990 0.411573 0.813105 0.411573 0.673824 0.045273 255 255 255
-0.098926 0.648223 -0.104034 -0.279366 0.918607 -0.279366 0.751928 0.195668 255 255 255
-0.159438 0.648223 -0.078969 -0.669027 0.682730 -0.293649 0.707730 0.242718 255 255 255
-0.159438 0.351777 0.092184 -0.518876 -0.695090 0.497574 0.744777 0.347579 255 255 255
0.022097 0.351777 0.016990 0.411573 -0.813105 0.411573 0.482997 0.347579 255 255 255
-0.073862 0.648223 -0.164545 -0.293649 0.682730 -0.669027 0.551018 0.360890 255 255 255
0.182867 0.500000 -0.164545 0.887967 0.000000 -0.459853 0.127341 0.184987 255 255 255
0.097291 0.648223 -0.164545 0.497574 0.695090 -0.518876 0.186076 0.025318 255 255 255
-0.073862 0.351777 -0.164545 -0.293649 -0.682730 -0.669027 0.430224 0.352467 255 255 255
0.097291 0.351777 -0.164545 0.497574 -0.695090 -0.518876 0.276810 0.471793 255 255 255
0.097291 0.648223 -0.164545 0.497574 0.695090 -0.518876 0.852365 0.021603 255 255 255
-0.073862 0.648223 -0.164545 -0.293649 0.682730 -0.669027 0.816049 0.179790 255 255 255
0.097291 0.351777 -0.164545 0.497574 -0.695090 -0.518876 0.200127 0.347579 255 255 255
-0.159438 0.648223 -0.078969 -0.669027 0.682730 -0.293649 0.546906 0.199423 0 0 0
-0.159438 0.500000 -0.164545 -0.707083 0.000000 -0.707083 0.353602 0.284860 10 10 10
-0.159438 0.500000 -0.068018 -1.000000 0.000000 0.000000 0.353602 0.284860 255 255 255
-0.159438 0.564627 -0.030705 -1.000000 0.000000 0.000000 0.546906 0.199423 255 255 255
-0.159438 0.500000 0.177760 -0.459853 0.000000 0.887967 0.841985 0.184987 0 0 0
-0.159438 0.648223 0.092184 -0.518876 0.695090 0.497574 0.790906 0.025318 0 0 0
-0.159438 0.564627 0.043920 -1.000000 0.000000 0.000000 0.790906 0.025318 255 255 255
-0.159438 0.500000 0.081233 -1.000000 0.000000 0.000000 0.841985 0.184987 255 255 255
-0.159438 0.351777 -0.078969 -0.669027 -0.682730 -0.293649 0.424805 0.211576 12 12 12
-0.159438 0.351777 0.092184 -0.518876 -0.695090 0.497574 0.281387 0.098034 0 0 0
-0.159438 0.435373 0.043920 -1.000000 0.000000 0.000000 0.281387 0.098034 255 255 255
-0.159438 0.435373 -0.030705 -1.000000 0.000000 0.000000 0.424805 0.211576 255 255 255
-0.159438 0.500000 -0.164545 -0.707083 0.000000 -0.707083 0.598929 0.275616 10 10 10
-0.159438 0.500000 -0.068018 -1.000000 0.000000 0.000000 0.598929 0.275616 255 255 255
-0.159438 0.648223 0.092184 -0.518876 0.695090 0.497574 0.549023 0.190794 0 0 0
-0.159438 0.648223 -0.078969 -0.669027 0.682730 -0.293649 0.707730 0.242718 0 0 0
-0.159438 0.564627 -0.030705 -1.000000 0.000000 0.000000 0.707730 0.242718 255 255 255
-0.159438 0.564627 0.043920 -1.000000 0.000000 0.000000 0.549023 0.190794 255 255 255
-0.159438 0.351777 0.092184 -0.518876 -0.695090 0.497574 0.744777 0.347579 0 0 0
-0.159438 0.435373 0.043920 -1.000000 0.000000 0.000000 0.744777 0.347579 255 255 255
0.097291 0.648223 -0.164545 0.497574 0.695090 -0.518876 0.186076 0.025318 0 0 0
0.182867 0.500000 -0.164545 0.887967 0.000000 -0.459853 0.127341 0.184987 0 0 0
0.081349 0.500000 -0.164545 0.000000 0.000000 -1.000000 0.127341 0.184987 255 255 255
0.046532 0.560305 -0.164545 0.000000 0.000000 -1.000000 0.186076 0.025318 255 255 255
0.097291 0.351777 -0.164545 0.497574 -0.695090 -0.518876 0.276810 0.471793 0 0 0
-0.073862 0.351777 -0.164545 -0.293649 -0.682730 -0.669027 0.430224 0.352467 0 0 0
-0.023103 0.439695 -0.164545 0.000000 0.000000 -1.000000 0.430224 0.352467 255 255 255
0.046532 0.439695 -0.164545 0.000000 0.000000 -1.000000 0.276810 0.471793 255 255 255
-0.159438 0.500000 -0.164545 -0.707083 0.000000 -0.707083 0.598929 0.275616 0 0 0
-0.057920 0.500000 -0.164545 0.000000 0.000000 -1.000000 0.598929 0.275616 255 255 255
-0.073862 0.648223 -0.164545 -0.293649 0.682730 -0.669027 0.816049 0.179790 0 0 0
0.097291 0.648223 -0.164545 0.497574 0.695090 -0.518876 0.852365 0.021603 0 0 0
0.046532 0.560305 -0.164545 0.000000 0.000000 -1.000000 0.852365 0.021603 255 255 255
-0.023103 0.560305 -0.164545 0.000000 0.000000 -1.000000 0.816049 0.179790 255 255 255
0.097291 0.351777 -0.164545 0.497574 -0.695090 -0.518876 0.200127 0.347579 0 0 0
0.046532 0.439695 -0.164545 0.000000 0.000000 -1.000000 0.200127 0.347579 255 255 255
-0.159438 0.500000 -0.164545 -0.707083 0.000000 -0.707083 0.353602 0.284860 0 0 0
-0.073862 0.648223 -0.164545 -0.293649 0.682730 -0.669027 0.551018 0.360890 0 0 0
-0.023103 0.560305 -0.164545 0.000000 0.000000 -1.000000 0.551018 0.360890 255 255 255
-0.057920 0.500000 -0.164545 0.000000 0.000000 -1.000000 0.353602 0.284860 255 255 255
3 0 1 2
3 3 4 5
4 6 7 8 9
4 2 1 10 11
4 12 13 14 15
4 16 17 7 6
3 4 18 5
4 7 19 20 8
4 1 21 22 10
4 13 23 24 14
4 17 25 19 7
3 0 21 1
4 26 27 28 29
4 30 31 32 33
4 34 35 36 37
4 38 34 37 39
4 40 41 42 43
4 44 30 33 45
4 46 47 48 49
4 50 51 52 53
4 51 54 55 52
4 56 57 58 59
4 47 60 61 48
4 62 63 64 65
