# Blender v2.79 (sub 0) OBJ File: 'pipes.blend'
# www.blender.org
o PipeTaperRight_Cylinder.012
v 0.950000 0.500000 -0.081685
v 0.950000 0.429259 -0.040842
v 0.950000 0.429259 0.040842
v 0.950000 0.500000 0.081685
v 0.950000 0.570741 0.040842
v 0.950000 0.570741 -0.040842
v 0.050000 0.500000 -0.125000
v 0.842838 0.500000 -0.125000
v 0.842838 0.391747 -0.062500
v 0.050000 0.391747 -0.062500
v 0.842838 0.391747 0.062500
v 0.050000 0.391747 0.062500
v 0.842838 0.500000 0.125000
v 0.050000 0.500000 0.125000
v 0.842838 0.608253 0.062500
v 0.050000 0.608253 0.062500
v 0.842838 0.608253 -0.062500
v 0.050000 0.608253 -0.062500
vt 0.003837 0.166156
vt 0.003837 0.329544
vt 0.061934 0.329544
vt 0.061934 0.166156
vt 0.946275 0.330558
vt 0.946275 0.167170
vt 0.888177 0.167170
vt 0.888177 0.330558
vt 0.946275 0.003782
vt 0.888177 0.003782
vt 0.003837 0.002768
vt 0.061934 0.002768
vt 0.003837 0.492932
vt 0.061934 0.492932
vt 0.946275 0.493946
vt 0.888177 0.493946
vt 0.887711 0.166156
vt 0.887711 0.329544
vt 0.887711 0.002768
vt 0.062401 0.167170
vt 0.062401 0.003782
vt 0.062401 0.330558
vt 0.062401 0.493946
vt 0.887711 0.492932
vn 0.3747 0.8029 -0.4636
vn 0.3747 0.0000 -0.9271
vn 0.1804 0.0000 -0.9836
vn 0.1804 0.8518 -0.4918
vn 0.3747 -0.8029 0.4636
vn 0.3747 -0.0000 0.9271
vn 0.1804 -0.0000 0.9836
vn 0.1804 -0.8518 0.4918
vn 0.3747 0.8029 0.4636
vn 0.1804 0.8518 0.4918
vn 0.3747 -0.8029 -0.4636
vn 0.1804 -0.8518 -0.4918
vn 0.0000 0.8660 -0.5000
vn 0.0000 0.0000 -1.0000
vn -0.0000 0.8660 0.5000
vn -0.0000 -0.0000 1.0000
vn -0.0000 -0.8660 0.5000
vn 0.0000 -0.8660 -0.5000
s 1
f 6/1/1 1/2/2 8/3/3 17/4/4
f 3/5/5 4/6/6 13/7/7 11/8/8
f 4/6/6 5/9/9 15/10/10 13/7/7
f 5/11/9 6/1/1 17/4/4 15/12/10
f 1/2/2 2/13/11 9/14/12 8/3/3
f 2/15/11 3/5/5 11/8/8 9/16/12
f 18/17/13 17/4/4 8/3/3 7/18/14
f 16/19/15 15/12/10 17/4/4 18/17/13
f 14/20/16 13/7/7 15/10/10 16/21/15
f 12/22/17 11/8/8 13/7/7 14/20/16
f 10/23/18 9/16/12 11/8/8 12/22/17
f 7/18/14 8/3/3 9/14/12 10/24/18
