ply
format ascii 1.0
comment Created by Blender 2.79 (sub 0) - www.blender.org, source file: 'pipes.blend'
element vertex 147
property float x
property float y
property float z
property float nx
property float ny
property float nz
property float s
property float t
property uchar red
property uchar green
property uchar blue
element face 106
property list uchar uint vertex_indices
end_header
0.500000 0.592890 0.063826 0.000000 0.994354 0.106021 0.980272 0.922338 255 255 255
0.500000 0.584046 0.146745 0.000000 0.742607 0.669698 0.980272 0.999006 255 255 255
0.559430 0.559430 0.146745 0.525101 0.525101 0.669698 0.922213 0.999006 255 255 255
0.565683 0.565683 0.063826 0.703116 0.703116 0.106021 0.922213 0.922338 255 255 255
0.584046 0.500000 0.146745 0.742607 0.000000 0.669698 0.864154 0.999006 255 255 255
0.592890 0.500000 0.063826 0.994354 0.000000 0.106021 0.864154 0.922338 255 255 255
0.559430 0.440570 0.146745 0.525101 -0.525101 0.669698 0.806096 0.999006 255 255 255
0.565683 0.434317 0.063826 0.703116 -0.703116 0.106021 0.806096 0.922338 255 255 255
0.500000 0.415954 0.146745 0.000000 -0.742607 0.669698 0.748037 0.999006 255 255 255
0.500000 0.407110 0.063826 0.000000 -0.994354 0.106021 0.748037 0.922338 217 217 217
0.440570 0.440570 0.146745 -0.525101 -0.525101 0.669698 0.689979 0.999006 255 255 255
0.434317 0.434317 0.063826 -0.703116 -0.703116 0.106021 0.689979 0.922338 255 255 255
0.415954 0.500000 0.146745 -0.742607 0.000000 0.669698 0.631920 0.999006 255 255 255
0.407110 0.500000 0.063826 -0.994354 0.000000 0.106021 0.631920 0.922338 255 255 255
0.525002 0.474998 0.146745 0.420270 -0.420270 0.804163 0.555953 0.929911 0 0 0
0.535358 0.500000 0.146745 0.594348 0.000000 0.804163 0.554448 0.930322 0 0 0
0.535358 0.500000 0.161236 0.776360 0.000000 0.630238 0.555816 0.930875 255 255 255
0.525002 0.474998 0.161236 0.548967 -0.548967 0.630238 0.556680 0.930648 255 255 255
0.440570 0.559430 0.146745 -0.525101 0.525101 0.669698 0.573862 0.999006 255 255 255
0.434317 0.565683 0.063826 -0.703116 0.703116 0.106021 0.573862 0.922338 255 255 255
0.500000 0.584046 0.146745 0.000000 0.742607 0.669698 0.515803 0.999006 255 255 255
0.500000 0.592890 0.063826 0.000000 0.994354 0.106021 0.515803 0.922338 255 255 255
0.500000 0.535358 0.146745 0.000000 0.594348 0.804163 0.716242 0.771159 0 0 0
0.525002 0.525002 0.146745 0.420270 0.420270 0.804163 0.764649 0.771159 0 0 0
0.559430 0.559430 0.146745 0.525101 0.525101 0.669698 0.797977 0.851620 255 255 255
0.500000 0.584046 0.146745 0.000000 0.742607 0.669698 0.682913 0.851620 255 255 255
0.535358 0.500000 0.146745 0.594348 0.000000 0.804163 0.798878 0.736930 0 0 0
0.584046 0.500000 0.146745 0.742607 0.000000 0.669698 0.879339 0.770258 255 255 255
0.525002 0.474998 0.146745 0.420270 -0.420270 0.804163 0.798878 0.688523 0 0 0
0.559430 0.440570 0.146745 0.525101 -0.525101 0.669698 0.879339 0.655195 255 255 255
0.500000 0.464642 0.146745 0.000000 -0.594348 0.804163 0.764649 0.654294 0 0 0
0.500000 0.415954 0.146745 0.000000 -0.742607 0.669698 0.797977 0.573832 255 255 255
0.474998 0.474998 0.146745 -0.420270 -0.420270 0.804163 0.716242 0.654294 0 0 0
0.440570 0.440570 0.146745 -0.525101 -0.525101 0.669698 0.682913 0.573832 255 255 255
0.464642 0.500000 0.146745 -0.594348 0.000000 0.804163 0.682013 0.688523 1 1 1
0.415954 0.500000 0.146745 -0.742607 0.000000 0.669698 0.601551 0.655195 255 255 255
0.474998 0.525002 0.146745 -0.420270 0.420270 0.804163 0.682013 0.736930 0 0 0
0.440570 0.559430 0.146745 -0.525101 0.525101 0.669698 0.601551 0.770258 255 255 255
0.492701 0.492701 0.161236 -0.420270 -0.420270 0.804163 0.486995 0.621304 0 0 0
0.500000 0.489678 0.161236 0.000000 -0.594348 0.804163 0.486960 0.621545 0 0 0
0.500000 0.489678 0.188209 -0.346599 -0.895535 -0.279031 0.489454 0.620602 255 255 255
0.492701 0.492701 0.188209 -0.387799 -0.878445 -0.279061 0.489454 0.622394 255 255 255
0.525002 0.525002 0.146745 0.420270 0.420270 0.804163 0.552846 0.929474 0 0 0
0.500000 0.535358 0.146745 0.000000 0.594348 0.804163 0.551971 0.927835 0 0 0
0.500000 0.535358 0.161236 0.000000 0.776360 0.630238 0.554367 0.929457 255 255 255
0.525002 0.525002 0.161236 0.548967 0.548967 0.630238 0.554879 0.930385 255 255 255
0.474998 0.525002 0.146745 -0.420270 0.420270 0.804163 0.552205 0.926411 0 0 0
0.474998 0.525002 0.161236 -0.548967 0.548967 0.630238 0.554561 0.928636 255 255 255
0.464642 0.500000 0.146745 -0.594348 0.000000 0.804163 0.553941 0.925948 0 0 0
0.474998 0.474998 0.146745 -0.420270 -0.420270 0.804163 0.555754 0.926840 0 0 0
0.474998 0.474998 0.161236 -0.548967 -0.548967 0.630238 0.556519 0.928892 255 255 255
0.464642 0.500000 0.161236 -0.776360 0.000000 0.630238 0.555499 0.928385 255 255 255
0.500000 0.464642 0.146745 0.000000 -0.594348 0.804163 0.556527 0.928486 0 0 0
0.525002 0.474998 0.146745 0.420270 -0.420270 0.804163 0.555953 0.929911 83 83 83
0.500000 0.464642 0.161236 0.000000 -0.776360 0.630238 0.556986 0.929833 255 255 255
0.500000 0.510322 0.161236 0.000000 0.594348 0.804163 0.557217 0.931464 2 2 2
0.507299 0.507299 0.161236 0.420270 0.420270 0.804163 0.557410 0.931682 0 0 0
0.510322 0.500000 0.161236 0.594348 0.000000 0.804163 0.557692 0.931845 0 0 0
0.507299 0.492701 0.161236 0.420270 -0.420270 0.804163 0.557910 0.931851 0 0 0
0.500000 0.489678 0.161236 0.000000 -0.594348 0.804163 0.557934 0.931700 0 0 0
0.492701 0.492701 0.161236 -0.420270 -0.420270 0.804163 0.557752 0.931487 0 0 0
0.489678 0.500000 0.161236 -0.594348 0.000000 0.804163 0.557459 0.931339 0 0 0
0.492701 0.507299 0.161236 -0.420270 0.420270 0.804163 0.557234 0.931333 0 0 0
0.546325 0.546325 0.188209 0.000000 0.000000 0.999969 0.855325 0.844702 255 255 255
0.565514 0.500000 0.188209 0.000000 0.000000 0.999969 0.864344 0.851884 255 255 255
0.556715 0.500000 0.188209 -0.592578 0.000000 -0.805506 0.863916 0.851009 255 255 255
0.540104 0.540104 0.188209 -0.419019 -0.419019 -0.805506 0.855301 0.844528 255 255 255
0.507299 0.492701 0.161236 0.420270 -0.420270 0.804163 0.487070 0.621763 0 0 0
0.510322 0.500000 0.161236 0.594348 0.000000 0.804163 0.487301 0.621820 0 0 0
0.510322 0.500000 0.188209 0.895383 -0.346965 -0.279092 0.486343 0.619308 255 255 255
0.507299 0.492701 0.188209 0.878323 -0.388134 -0.279031 0.488167 0.619314 255 255 255
0.507299 0.507299 0.161236 0.420270 0.420270 0.804163 0.487504 0.621689 0 0 0
0.500000 0.510322 0.161236 0.000000 0.594348 0.804163 0.487559 0.621447 0 0 0
0.500000 0.510322 0.188209 0.346416 0.895596 -0.279000 0.485052 0.622405 255 255 255
0.507299 0.507299 0.188209 0.387768 0.878475 -0.279092 0.485053 0.620590 255 255 255
0.492701 0.507299 0.161236 -0.420270 0.420270 0.804163 0.487430 0.621236 0 0 0
0.492701 0.507299 0.188209 -0.878262 0.388318 -0.279000 0.486341 0.623686 255 255 255
0.489678 0.500000 0.161236 -0.594348 0.000000 0.804163 0.487196 0.621176 0 0 0
0.489678 0.500000 0.188209 -0.895383 0.346934 -0.279061 0.488165 0.623682 255 255 255
0.510322 0.500000 0.204629 0.436476 -0.400159 0.805811 0.498287 0.692081 255 255 255
0.507299 0.507299 0.204629 0.025666 0.591601 0.805811 0.497377 0.691509 255 255 255
0.500000 0.510322 0.204629 0.399609 0.436903 0.805841 0.496597 0.690857 255 255 255
0.492701 0.507299 0.204629 -0.591510 0.026368 0.805841 0.496360 0.690435 255 255 255
0.489678 0.500000 0.204629 -0.436506 0.400128 0.805811 0.496364 0.690429 255 255 255
0.492701 0.492701 0.204629 -0.025727 -0.591601 0.805811 0.496939 0.691014 255 255 255
0.500000 0.489678 0.204629 -0.399792 -0.436781 0.805811 0.497490 0.691804 255 255 255
0.507299 0.492701 0.204629 0.591540 -0.026154 0.805811 0.498113 0.693551 255 255 255
0.556637 0.500000 0.204629 -0.596149 0.000000 0.802850 0.865578 0.854635 255 255 255
0.540048 0.459952 0.204629 -0.421552 0.421552 0.802850 0.861647 0.847597 255 255 255
0.546325 0.453675 0.204629 0.548967 -0.548967 0.630238 0.861079 0.848034 255 255 255
0.565514 0.500000 0.204629 0.776360 0.000000 0.630238 0.864885 0.853453 255 255 255
0.546325 0.453675 0.188209 0.000000 0.000000 1.000000 0.860119 0.848825 255 255 255
0.500000 0.434486 0.188209 0.000000 0.000000 1.000000 0.854671 0.843002 255 255 255
0.500000 0.443285 0.188209 0.000000 0.592578 -0.805506 0.854594 0.843052 255 255 255
0.540104 0.459896 0.188209 -0.419019 0.419019 -0.805506 0.859585 0.849117 255 255 255
0.540048 0.540048 0.204629 -0.421552 -0.421552 0.802850 0.855137 0.845106 255 255 255
0.546325 0.546325 0.204629 0.548967 0.548967 0.630238 0.855399 0.845101 255 255 255
0.434486 0.500000 0.188209 0.000000 0.000000 1.000000 0.852872 0.841648 255 255 255
0.443285 0.500000 0.188209 0.592578 0.000000 -0.805506 0.852886 0.841635 255 255 255
0.459896 0.459897 0.188209 0.419019 0.419019 -0.805506 0.853553 0.842567 255 255 255
0.453675 0.453675 0.188209 0.000000 0.000000 1.000000 0.853618 0.842463 255 255 255
0.500000 0.556637 0.204629 0.000000 -0.596149 0.802850 0.853997 0.843714 255 255 255
0.500000 0.565514 0.204629 0.000000 0.776360 0.630238 0.854059 0.843580 255 255 255
0.500000 0.565514 0.188209 0.000000 0.000000 0.999969 0.854266 0.843335 255 255 255
0.500000 0.556715 0.188209 0.000000 -0.592578 -0.805506 0.854418 0.843228 255 255 255
0.459896 0.540103 0.188209 0.419019 -0.419019 -0.805506 0.852746 0.841902 255 255 255
0.453675 0.546325 0.188209 0.000000 0.000000 0.999969 0.852745 0.841911 255 255 255
0.459952 0.540048 0.204629 0.421552 -0.421552 0.802850 0.852760 0.841976 255 255 255
0.453675 0.546325 0.204629 -0.548967 0.548967 0.630238 0.852780 0.841978 255 255 255
0.453675 0.546325 0.188209 -0.479812 0.479812 0.734489 0.852661 0.842028 255 255 255
0.434486 0.500000 0.188209 -0.678579 0.000000 0.734489 0.852908 0.841620 255 255 255
0.434486 0.500000 0.204629 -0.776360 0.000000 0.630238 0.852896 0.841702 255 255 255
0.453675 0.453675 0.188209 -0.479812 -0.479812 0.734489 0.853773 0.842244 255 255 255
0.500000 0.434486 0.188209 0.000000 -0.678579 0.734489 0.855234 0.842614 255 255 255
0.500000 0.434486 0.204629 0.000000 -0.776360 0.630238 0.854934 0.843010 255 255 255
0.453675 0.453675 0.204629 -0.548967 -0.548967 0.630238 0.853785 0.842327 255 255 255
0.546325 0.453675 0.188209 0.479812 -0.479812 0.734489 0.861188 0.847862 255 255 255
0.565514 0.500000 0.188209 0.678579 0.000000 0.734489 0.864253 0.852837 255 255 255
0.546325 0.546325 0.188209 0.479812 0.479812 0.734489 0.854912 0.845642 255 255 255
0.500000 0.565514 0.188209 0.000000 0.678579 0.734489 0.853930 0.843605 255 255 255
0.500000 0.443363 0.204629 0.000000 0.596149 0.802850 0.854895 0.842896 255 255 255
0.459951 0.459952 0.204629 0.421552 0.421552 0.802850 0.853874 0.842286 255 255 255
0.443363 0.500000 0.204629 0.596149 0.000000 0.802850 0.852892 0.841707 255 255 255
0.510322 0.500000 0.188209 0.895383 -0.346965 -0.279092 0.497137 0.691512 255 255 255
0.507299 0.507299 0.188209 0.387768 0.878475 -0.279092 0.496445 0.690892 255 255 255
0.552577 0.526054 0.191559 -0.232673 0.685049 -0.690298 0.496445 0.690892 255 255 255
0.555601 0.518755 0.191559 0.319865 -0.648946 -0.690298 0.497137 0.691512 255 255 255
0.500000 0.489678 0.188209 -0.346599 -0.895535 -0.279031 0.497035 0.690525 255 255 255
0.492701 0.492701 0.188209 -0.387799 -0.878445 -0.279061 0.496418 0.689901 255 255 255
0.481499 0.554987 0.201237 0.648823 0.321146 0.689810 0.496597 0.690857 255 255 255
0.474200 0.551964 0.201237 -0.685873 -0.231697 0.689810 0.496360 0.690435 255 255 255
0.518641 0.444675 0.201239 -0.648885 -0.320750 0.689962 0.497490 0.691804 255 255 255
0.525940 0.447698 0.201239 0.685629 0.232002 0.689962 0.498113 0.693551 255 255 255
0.446114 0.481955 0.201401 -0.319926 0.648946 0.690268 0.496364 0.690429 255 255 255
0.449137 0.474656 0.201401 0.232612 -0.685110 0.690268 0.496939 0.691014 255 255 255
0.507299 0.492701 0.188209 0.878323 -0.388134 -0.279031 0.498388 0.691397 255 255 255
0.500000 0.510322 0.188209 0.346416 0.895596 -0.279000 0.495739 0.690155 255 255 255
0.489678 0.500000 0.188209 -0.895383 0.346934 -0.279061 0.495700 0.689565 255 255 255
0.492701 0.507299 0.188209 -0.878262 0.388318 -0.279000 0.495583 0.689668 255 255 255
0.446114 0.481955 0.191437 -0.319926 0.648946 -0.690268 0.495700 0.689565 255 255 255
0.449137 0.474656 0.191437 0.232612 -0.685110 -0.690268 0.496418 0.689901 255 255 255
0.518641 0.444675 0.191600 -0.648854 -0.320750 -0.689962 0.497035 0.690525 255 255 255
0.525940 0.447698 0.191600 0.685629 0.232002 -0.689962 0.498388 0.691397 255 255 255
0.552577 0.526054 0.201280 -0.232673 0.685049 0.690298 0.497377 0.691509 255 255 255
0.555601 0.518755 0.201280 0.319865 -0.648946 0.690298 0.498287 0.692081 255 255 255
0.481499 0.554987 0.191601 0.648823 0.321146 -0.689810 0.495739 0.690155 255 255 255
0.474200 0.551964 0.191601 -0.685873 -0.231697 -0.689810 0.495583 0.689668 255 255 255
4 0 1 2 3
4 3 2 4 5
4 5 4 6 7
4 7 6 8 9
4 9 8 10 11
4 11 10 12 13
4 14 15 16 17
4 13 12 18 19
4 20 21 19 18
4 22 23 24 25
4 23 26 27 24
4 26 28 29 27
4 28 30 31 29
4 30 32 33 31
4 32 34 35 33
4 34 36 37 35
4 36 22 25 37
4 38 39 40 41
4 42 43 44 45
4 43 46 47 44
4 48 49 50 51
4 52 53 17 54
4 15 42 45 16
4 46 48 51 47
4 49 52 54 50
4 55 56 45 44
4 56 57 16 45
4 57 58 17 16
4 58 59 54 17
4 59 60 50 54
4 60 61 51 50
4 61 62 47 51
4 62 55 44 47
4 63 64 65 66
4 67 68 69 70
4 71 72 73 74
4 72 75 76 73
4 77 38 41 78
4 39 67 70 40
4 68 71 74 69
4 75 77 78 76
3 79 80 81
3 81 82 83
3 83 84 85
3 85 86 79
3 79 81 83
3 83 85 79
4 87 88 89 90
4 91 92 93 94
4 95 87 90 96
4 97 98 99 100
4 101 95 96 102
4 103 104 105 106
4 107 101 102 108
4 109 110 111 108
4 112 113 114 115
4 116 117 90 89
4 118 119 102 96
4 119 109 108 102
4 110 112 115 111
4 113 116 89 114
4 117 118 96 90
4 88 120 114 89
4 63 66 104 103
4 120 121 115 114
4 64 91 94 65
4 121 122 111 115
4 92 100 99 93
4 122 107 108 111
4 106 105 98 97
4 116 113 92 91
4 118 117 64 63
4 109 106 97 110
4 113 112 100 92
4 117 116 91 64
4 118 63 103 119
4 119 103 106 109
4 110 97 100 112
4 123 124 125 126
4 127 85 84 128
4 82 81 129 130
4 86 85 131 132
4 84 83 133 134
4 123 79 86 135
4 136 81 80 124
4 99 98 122 121
4 94 93 120 88
4 137 83 82 138
4 66 65 87 95
4 105 104 101 107
4 104 66 95 101
4 65 94 88 87
4 93 99 121 120
4 98 105 107 122
4 83 137 139 133
4 137 128 140 139
4 128 84 134 140
4 85 127 141 131
4 135 86 132 142
4 127 135 142 141
4 124 80 143 125
4 79 123 126 144
4 80 79 144 143
4 81 136 145 129
4 136 138 146 145
4 138 82 130 146
