ply
format ascii 1.0
comment Created by Blender 2.79 (sub 0) - www.blender.org, source file: 'pipes.blend'
element vertex 44
property float x
property float y
property float z
property float nx
property float ny
property float nz
property float s
property float t
property uchar red
property uchar green
property uchar blue
element face 18
property list uchar uint vertex_indices
end_header
-0.077447 0.413025 0.050215 -1.000000 0.000000 0.000000 0.409468 0.138120 0 0 0
-0.077447 0.413025 -0.050215 -1.000000 0.000000 0.000000 0.234713 0.037225 17 17 17
-0.077447 0.354371 -0.084079 -0.609973 -0.686239 -0.396191 0.234713 0.006024 255 255 255
-0.077447 0.354371 0.084079 -0.609973 -0.686239 0.396191 0.436488 0.122519 255 255 255
-0.077447 0.500000 -0.168158 -0.609973 0.000000 -0.792383 0.927505 0.173472 255 255 255
-0.077447 0.645629 -0.084079 -0.609973 0.686239 -0.396191 0.927505 0.330206 255 255 255
0.080966 0.645629 -0.084079 0.609973 0.686239 -0.396191 0.999413 0.330206 255 255 255
0.080966 0.500000 -0.168158 0.609973 0.000000 -0.792383 0.999413 0.173472 255 255 255
-0.077447 0.586975 -0.050215 -1.000000 0.000000 0.000000 0.059959 0.339909 0 0 0
-0.077447 0.586975 0.050215 -1.000000 0.000000 0.000000 0.234713 0.440803 27 27 27
-0.077447 0.645629 0.084079 -0.609973 0.686239 0.396191 0.234713 0.472004 255 255 255
-0.077447 0.645629 -0.084079 -0.609973 0.686239 -0.396191 0.032939 0.355510 255 255 255
-0.077447 0.413025 -0.050215 -1.000000 0.000000 0.000000 0.234712 0.037226 17 17 17
-0.077447 0.500000 -0.100430 -1.000000 0.000000 0.000000 0.059958 0.138120 0 0 0
-0.077447 0.500000 -0.168158 -0.609973 0.000000 -0.792383 0.032938 0.122520 255 255 255
-0.077447 0.354371 -0.084079 -0.609973 -0.686239 -0.396191 0.234712 0.006026 255 255 255
-0.077447 0.500000 0.100430 -1.000000 0.000000 0.000000 0.409468 0.339909 0 0 0
-0.077447 0.500000 0.168158 -0.609973 0.000000 0.792383 0.436488 0.355509 255 255 255
0.080966 0.500000 0.168158 0.609973 0.000000 0.792383 0.032652 0.353604 255 255 255
0.080966 0.354371 0.084079 0.609973 -0.686239 0.396191 0.032651 0.120616 255 255 255
0.080966 0.418372 0.047128 1.000000 0.000000 0.000000 0.059667 0.136214 0 0 0
0.080966 0.500000 0.094256 1.000000 0.000000 0.000000 0.059668 0.338006 0 0 0
-0.077447 0.645629 0.084079 -0.609973 0.686239 0.396191 0.928593 0.006774 255 255 255
-0.077447 0.500000 0.168158 -0.609973 0.000000 0.792383 0.928593 0.170151 255 255 255
0.080966 0.500000 0.168158 0.609973 0.000000 0.792383 0.999152 0.170151 255 255 255
0.080966 0.645629 0.084079 0.609973 0.686239 0.396191 0.999152 0.006774 255 255 255
-0.077447 0.354371 0.084079 -0.609973 -0.686239 0.396191 0.928593 0.333528 255 255 255
-0.077447 0.354371 -0.084079 -0.609973 -0.686239 -0.396191 0.928593 0.496905 255 255 255
0.080966 0.354371 -0.084079 0.609973 -0.686239 -0.396191 0.999152 0.496905 255 255 255
0.080966 0.354371 0.084079 0.609973 -0.686239 0.396191 0.999152 0.333528 255 255 255
-0.077447 0.645629 0.084079 -0.609973 0.686239 0.396191 0.927505 0.496707 255 255 255
0.080966 0.645629 0.084079 0.609973 0.686239 0.396191 0.999413 0.496707 255 255 255
-0.077447 0.354371 -0.084079 -0.609973 -0.686239 -0.396191 0.927505 0.006972 255 255 255
0.080966 0.354371 -0.084079 0.609973 -0.686239 -0.396191 0.999413 0.006972 255 255 255
0.080966 0.500000 -0.168158 0.609973 0.000000 -0.792383 0.436200 0.120614 255 255 255
0.080966 0.645629 -0.084079 0.609973 0.686239 -0.396191 0.436200 0.353604 255 255 255
0.080966 0.581628 -0.047128 1.000000 0.000000 0.000000 0.409184 0.338005 0 0 0
0.080966 0.500000 -0.094256 1.000000 0.000000 0.000000 0.409184 0.136211 0 0 0
0.080966 0.645629 0.084079 0.609973 0.686239 0.396191 0.234426 0.470098 255 255 255
0.080966 0.581628 0.047128 1.000000 0.000000 0.000000 0.234426 0.438902 1 1 1
0.080966 0.354371 -0.084079 0.609973 -0.686239 -0.396191 0.234425 0.004121 255 255 255
0.080966 0.418372 -0.047128 1.000000 0.000000 0.000000 0.234425 0.035317 0 0 0
0.080966 0.354371 -0.084079 0.609973 -0.686239 -0.396191 0.234425 0.004118 255 255 255
0.080966 0.418372 -0.047128 1.000000 0.000000 0.000000 0.234425 0.035314 0 0 0
4 0 1 2 3
4 4 5 6 7
4 8 9 10 11
4 12 13 14 15
4 16 0 3 17
4 13 8 11 14
4 9 16 17 10
4 18 19 20 21
4 22 23 24 25
4 26 27 28 29
4 5 30 31 6
4 32 4 7 33
4 23 26 29 24
4 34 35 36 37
4 38 18 21 39
4 19 40 41 20
4 35 38 39 36
4 42 34 37 43
