# Blender v2.79 (sub 0) OBJ File: 'pipes.blend'
# www.blender.org
o Pump_Cylinder
v 0.000000 0.037818 -0.125000
v 0.000000 0.392084 -0.125000
v 0.108253 0.037818 -0.062500
v -0.000000 -0.039290 0.150000
v 0.108253 0.037818 0.062500
v 0.108253 0.392084 0.062500
v -0.000000 0.037818 0.125000
v -0.000000 0.392084 0.125000
v -0.108253 0.037818 0.062500
v -0.108253 0.392084 0.062500
v -0.108253 0.037818 -0.062500
v -0.108253 0.392084 -0.062500
v 0.129904 -0.039290 0.075000
v 0.129904 -0.039290 -0.075000
v 0.108253 0.392084 -0.062500
v 0.000000 -0.039290 -0.150000
v -0.129904 -0.039290 0.075000
v -0.129904 -0.039290 -0.075000
v -0.000000 -0.301790 0.150000
v 0.129904 -0.301790 0.075000
v 0.129904 -0.301790 -0.075000
v -0.000000 -0.301790 -0.150000
v -0.129904 -0.301790 0.075000
v -0.129904 -0.301790 -0.075000
v -0.100286 -0.323176 -0.057900
v -0.000000 -0.323176 -0.115801
v -0.100286 -0.323176 0.057900
v -0.000000 -0.323176 0.115801
v 0.100286 -0.323176 0.057900
v 0.100286 -0.323176 -0.057900
v -0.093279 0.043292 -0.054871
v 0.001760 0.043292 -0.109741
v 0.096798 0.043292 0.054871
v 0.001760 0.043292 0.109741
v 0.096798 0.043292 -0.054871
v -0.093279 0.043292 0.054871
v -0.143869 0.043292 -0.084079
v 0.001760 0.043292 -0.168158
v 0.147388 0.043292 0.084079
v 0.001760 0.043292 0.168158
v 0.147388 0.043292 -0.084079
v -0.143869 0.043292 0.084079
v -0.143869 -0.043292 -0.084079
v 0.001760 -0.043292 -0.168158
v 0.147388 -0.043292 0.084079
v 0.001760 -0.043292 0.168158
v 0.147388 -0.043292 -0.084079
v -0.143869 -0.043292 0.084079
v -0.093281 -0.043292 -0.054872
v 0.001760 -0.043292 -0.109743
v 0.096800 -0.043292 0.054872
v 0.001760 -0.043292 0.109743
v 0.096800 -0.043292 -0.054872
v -0.093281 -0.043292 0.054872
vt 0.993903 0.153872
vt 0.713489 0.153872
vt 0.713489 0.003854
vt 0.993903 0.003854
vt 0.995485 0.001099
vt 0.714593 0.001099
vt 0.714593 0.151787
vt 0.995485 0.151787
vt 0.714593 0.324423
vt 0.995485 0.324423
vt 0.714593 0.495169
vt 0.995485 0.495169
vt 0.993903 0.495833
vt 0.713489 0.495833
vt 0.713489 0.323412
vt 0.993903 0.323412
vt 0.247343 0.856766
vt 0.328182 0.856766
vt 0.328182 0.998235
vt 0.247343 0.998235
vt 0.124739 0.764489
vt 0.221506 0.819698
vt 0.195395 0.835457
vt 0.125499 0.794961
vt 0.085664 0.856766
vt 0.166503 0.856766
vt 0.166503 0.998235
vt 0.085664 0.998235
vt 0.409022 0.856766
vt 0.489861 0.856766
vt 0.489861 0.998235
vt 0.409022 0.998235
vt 0.004824 0.856766
vt 0.004824 0.998235
vt 0.194188 0.916568
vt 0.124174 0.957576
vt 0.054516 0.916699
vt 0.055103 0.835482
vt 0.220832 0.931252
vt 0.124995 0.988058
vt 0.028410 0.932440
vt 0.028371 0.820801
vt 0.569065 0.929518
vt 0.547457 0.917042
vt 0.547457 0.913184
vt 0.572406 0.927589
vt 0.781447 0.999107
vt 0.671908 0.999107
vt 0.671908 0.924355
vt 0.781447 0.924355
vt 0.525849 0.954469
vt 0.547457 0.966944
vt 0.547457 0.970802
vt 0.522508 0.956398
vt 0.525849 0.929518
vt 0.522508 0.927589
vt 0.569065 0.954468
vt 0.572406 0.956397
vt 0.522708 0.956398
vt 0.522708 0.927589
vt 0.526048 0.929518
vt 0.526048 0.954469
vt 0.888914 0.999402
vt 0.779376 0.999403
vt 0.779376 0.924650
vt 0.888914 0.924650
vt 0.669838 0.999403
vt 0.560299 0.999403
vt 0.560299 0.924650
vt 0.669838 0.924650
vt 0.562370 0.999107
vt 0.562370 0.924355
vt 0.890985 0.999107
vt 0.890985 0.924355
vt 0.572606 0.927589
vt 0.572606 0.956398
vt 0.569266 0.954469
vt 0.569266 0.929517
vt 0.547657 0.970802
vt 0.547657 0.966945
vt 0.547657 0.913184
vt 0.547657 0.917042
vn -0.0000 0.0000 -1.0000
vn 0.8660 0.0000 -0.5000
vn 0.8660 0.0000 0.5000
vn -0.0000 0.0000 1.0000
vn -0.8660 0.0000 0.5000
vn -0.8660 0.0000 -0.5000
vn -0.7823 -0.4289 -0.4517
vn -0.7823 -0.4289 0.4517
vn -0.0000 -0.4289 -0.9034
vn -0.0000 -0.9346 -0.3557
vn -0.3080 -0.9346 -0.1778
vn -0.0000 -0.4289 0.9034
vn 0.7823 -0.4289 0.4517
vn 0.7823 -0.4289 -0.4517
vn 0.3080 -0.9346 -0.1778
vn 0.3080 -0.9346 0.1778
vn 0.0000 -0.9346 0.3557
vn -0.3080 -0.9346 0.1778
vn 0.0000 1.0000 0.0000
vn -0.0000 -1.0000 -0.0000
s 1
f 1/1/1 2/2/1 15/3/2 3/4/2
f 3/5/2 15/6/2 6/7/3 5/8/3
f 5/8/3 6/7/3 8/9/4 7/10/4
f 7/10/4 8/9/4 10/11/5 9/12/5
f 9/13/5 10/14/5 12/15/6 11/16/6
f 11/16/6 12/15/6 2/2/1 1/1/1
f 17/17/5 18/18/6 24/19/7 23/20/8
f 24/21/7 22/22/9 26/23/10 25/24/11
f 13/25/3 4/26/4 19/27/12 20/28/13
f 16/29/1 14/30/2 21/31/14 22/32/9
f 14/33/2 13/25/3 20/28/13 21/34/14
f 18/18/6 16/29/1 22/32/9 24/19/7
f 4/26/4 17/17/5 23/20/8 19/27/12
f 26/23/10 30/35/15 29/36/16 28/37/17 27/38/18 25/24/11
f 22/22/9 21/39/14 30/35/15 26/23/10
f 20/40/13 19/41/12 28/37/17 29/36/16
f 23/42/8 24/21/7 25/24/11 27/38/18
f 21/39/14 20/40/13 29/36/16 30/35/15
f 19/41/12 23/42/8 27/38/18 28/37/17
f 36/43/19 31/44/19 37/45/19 42/46/19
f 38/47/1 41/48/2 47/49/2 44/50/1
f 35/51/19 33/52/19 39/53/19 41/54/19
f 31/44/19 32/55/19 38/56/19 37/45/19
f 34/57/19 36/43/19 42/46/19 40/58/19
f 32/55/19 35/51/19 41/54/19 38/56/19
f 33/52/19 34/57/19 40/58/19 39/53/19
f 46/59/20 48/60/20 54/61/20 52/62/20
f 39/63/3 40/64/4 46/65/4 45/66/3
f 42/67/5 37/68/6 43/69/6 48/70/5
f 41/48/2 39/71/3 45/72/3 47/49/2
f 37/73/6 38/47/1 44/50/1 43/74/6
f 40/64/4 42/67/5 48/70/5 46/65/4
f 44/75/20 47/76/20 53/77/20 50/78/20
f 45/79/20 46/59/20 52/62/20 51/80/20
f 48/60/20 43/81/20 49/82/20 54/61/20
f 47/76/20 45/79/20 51/80/20 53/77/20
f 43/81/20 44/75/20 50/78/20 49/82/20
