# Blender v2.79 (sub 0) OBJ File: 'pipes.blend'
# www.blender.org
o Cylinder.008
v 0.950000 0.500000 -0.125000
v 0.050000 0.500000 -0.125000
v 0.050000 0.391747 -0.062500
v 0.950000 0.391747 -0.062500
v 0.050000 0.391747 0.062500
v 0.950000 0.391747 0.062500
v 0.050000 0.500000 0.125000
v 0.950000 0.500000 0.125000
v 0.050000 0.608253 0.062500
v 0.950000 0.608253 0.062500
v 0.050000 0.608253 -0.062500
v 0.950000 0.608253 -0.062500
vt 0.887711 0.166156
vt 0.887711 0.329544
vt 0.061934 0.329544
vt 0.061934 0.166156
vt 0.887711 0.002768
vt 0.061934 0.002768
vt 0.062401 0.167170
vt 0.062401 0.003782
vt 0.888177 0.003782
vt 0.888177 0.167170
vt 0.062401 0.330558
vt 0.888177 0.330558
vt 0.062401 0.493946
vt 0.888177 0.493946
vt 0.887711 0.492932
vt 0.061934 0.492932
vn -0.0000 0.8660 -0.5000
vn -0.0000 0.0000 -1.0000
vn 0.0000 0.8660 0.5000
vn 0.0000 -0.0000 1.0000
vn 0.0000 -0.8660 0.5000
vn -0.0000 -0.8660 -0.5000
s 1
f 12/1/1 1/2/2 2/3/2 11/4/1
f 10/5/3 12/1/1 11/4/1 9/6/3
f 8/7/4 10/8/3 9/9/3 7/10/4
f 6/11/5 8/7/4 7/10/4 5/12/5
f 4/13/6 6/11/5 5/12/5 3/14/6
f 1/2/2 4/15/6 3/16/6 2/3/2
