ply
format ascii 1.0
comment Created by Blender 2.79 (sub 0) - www.blender.org, source file: 'rail_cart.blend'
element vertex 119
property float x
property float y
property float z
property float nx
property float ny
property float nz
property float s
property float t
property uchar red
property uchar green
property uchar blue
element face 66
property list uchar uint vertex_indices
end_header
-0.000000 0.853583 0.000000 0.000000 1.000000 0.000000 0.756448 0.498399 255 255 255
-0.000000 0.853583 0.362740 0.000000 0.783593 0.621235 0.999133 0.498399 255 255 255
0.223283 0.746056 0.362740 0.612629 0.488571 0.621235 0.999133 0.332951 255 255 255
0.223283 0.746056 0.000000 0.781823 0.623463 0.000000 0.756448 0.332951 255 255 255
0.278430 0.504443 0.362740 0.763939 -0.174352 0.621235 0.999133 0.166727 255 255 255
0.278430 0.504443 -0.000000 0.974914 -0.222510 0.000000 0.756448 0.166727 255 255 255
0.123913 0.310685 0.362740 0.448347 -0.357524 0.819208 0.999133 0.000891 0 0 0
0.123913 0.310685 -0.000000 0.781823 -0.623463 0.000000 0.756448 0.000891 0 0 0
-0.123913 0.310685 -0.000000 -0.781823 -0.623463 0.000000 0.756448 0.498399 0 0 0
-0.123913 0.310685 0.362740 -0.448347 -0.357524 0.819208 0.999133 0.498399 0 0 0
-0.278430 0.504443 0.362740 -0.763939 -0.174352 0.621235 0.999133 0.332951 255 255 255
-0.278430 0.504443 -0.000000 -0.974914 -0.222510 0.000000 0.756448 0.332951 255 255 255
0.278430 0.504443 0.362740 0.763939 -0.174352 0.621235 0.307906 0.167316 255 255 255
0.223283 0.746056 0.362740 0.612629 0.488571 0.621235 0.250745 0.286012 255 255 255
-0.000000 0.853583 0.362740 0.000000 0.783593 0.621235 0.122304 0.315328 255 255 255
-0.223283 0.746056 0.362740 -0.612629 0.488571 0.621235 0.019303 0.233187 255 255 255
-0.278430 0.504443 0.362740 -0.763939 -0.174352 0.621235 0.019303 0.101444 255 255 255
-0.123913 0.310685 0.362740 -0.448347 -0.357524 0.819208 0.122304 0.019303 2 2 2
0.123913 0.310685 0.362740 0.448347 -0.357524 0.819208 0.250745 0.048619 0 0 0
-0.223283 0.746056 0.362740 -0.612629 0.488571 0.621235 0.999133 0.166727 255 255 255
-0.223283 0.746056 0.000000 -0.781823 0.623463 0.000000 0.756448 0.166727 255 255 255
-0.000000 0.853583 0.362740 0.000000 0.783593 0.621235 0.999133 0.000891 255 255 255
-0.000000 0.853583 0.000000 0.000000 1.000000 0.000000 0.756448 0.000891 255 255 255
-0.223283 0.746056 -0.362740 -0.612629 0.488571 -0.621235 0.033117 0.079354 255 255 255
-0.000000 0.853583 -0.362740 0.000000 0.783593 -0.621235 0.151814 0.022192 255 255 255
0.223283 0.746056 -0.362740 0.612629 0.488571 -0.621235 0.270511 0.079354 255 255 255
0.278430 0.504443 -0.362740 0.763939 -0.174352 -0.621235 0.299826 0.207794 255 255 255
0.123913 0.310685 -0.362740 0.448347 -0.357524 -0.819208 0.217685 0.310795 0 0 0
-0.123913 0.310685 -0.362740 -0.448347 -0.357524 -0.819208 0.085942 0.310795 0 0 0
-0.278430 0.504443 -0.362740 -0.763939 -0.174352 -0.621235 0.003801 0.207794 255 255 255
0.000000 0.794164 -0.266906 0.000000 0.000000 -0.999969 0.528809 0.256950 0 0 0
0.000000 0.987948 -0.266906 0.000000 0.609973 -0.792383 0.719452 0.256950 255 255 255
0.069282 0.987948 -0.226906 0.686239 0.609973 -0.396191 0.719452 0.335654 255 255 255
0.069282 0.794164 -0.226906 0.866024 0.000000 -0.499985 0.528809 0.335654 0 0 0
0.069282 0.987948 -0.146906 0.686239 0.609973 0.396191 0.719452 0.414358 255 255 255
0.069282 0.794164 -0.146906 0.866024 0.000000 0.499985 0.528809 0.414358 0 0 0
0.069282 0.794164 -0.146906 0.866024 0.000000 0.499985 0.528809 0.414358 1 1 1
-0.000000 0.987948 -0.106906 0.000000 0.609973 0.792383 0.719452 0.493061 255 255 255
-0.000000 0.794164 -0.106906 0.000000 0.000000 1.000000 0.528809 0.493061 0 0 0
-0.000000 0.794164 -0.106906 0.000000 0.000000 1.000000 0.528809 0.020839 0 0 0
-0.000000 0.987948 -0.106906 0.000000 0.609973 0.792383 0.719452 0.020839 255 255 255
-0.069282 0.987948 -0.146906 -0.686239 0.609973 0.396191 0.719452 0.099543 255 255 255
-0.069282 0.794164 -0.146906 -0.866024 0.000000 0.499985 0.528809 0.099543 0 0 0
0.044724 0.987948 -0.161085 0.000000 1.000000 0.000000 0.151487 0.990248 255 255 255
0.044724 0.987948 -0.212727 0.000000 1.000000 0.000000 0.150210 0.988036 255 255 255
0.000000 0.987948 -0.238549 0.000000 1.000000 0.000000 0.151487 0.985823 255 255 255
-0.044724 0.987948 -0.212727 0.000000 1.000000 0.000000 0.154042 0.985823 255 255 255
-0.044724 0.987948 -0.161085 0.000000 1.000000 0.000000 0.155320 0.988036 255 255 255
-0.000000 0.987948 -0.135263 0.000000 1.000000 0.000000 0.154042 0.990248 255 255 255
-0.069282 0.987948 -0.226906 -0.686239 0.609973 -0.396191 0.719452 0.178247 255 255 255
-0.069282 0.794164 -0.226906 -0.866024 0.000000 -0.499985 0.528809 0.178247 0 0 0
0.000000 0.794164 -0.266906 0.000000 0.000000 -0.999969 0.528809 0.256950 11 11 11
-0.000000 0.853583 -0.362740 0.000000 0.783593 -0.621235 0.999133 0.000891 255 255 255
-0.223283 0.746056 -0.362740 -0.612629 0.488571 -0.621235 0.999133 0.166727 255 255 255
-0.278430 0.504443 -0.362740 -0.763939 -0.174352 -0.621235 0.999133 0.332951 255 255 255
-0.123913 0.310685 -0.362740 -0.448347 -0.357524 -0.819208 0.999133 0.498399 0 0 0
0.278430 0.504443 -0.362740 0.763939 -0.174352 -0.621235 0.999133 0.166727 255 255 255
0.123913 0.310685 -0.362740 0.448347 -0.357524 -0.819208 0.999133 0.000891 0 0 0
0.223283 0.746056 -0.362740 0.612629 0.488571 -0.621235 0.999133 0.332951 255 255 255
-0.000000 0.853583 -0.362740 0.000000 0.783593 -0.621235 0.999133 0.498399 255 255 255
0.000000 0.987948 -0.238549 0.000000 1.000000 0.000000 0.181933 0.356534 255 255 255
0.044724 0.987948 -0.212727 0.000000 1.000000 0.000000 0.159417 0.395533 255 255 255
0.069282 0.987948 -0.226906 0.686239 0.609973 -0.396191 0.134690 0.395533 255 255 255
0.000000 0.987948 -0.266906 0.000000 0.609973 -0.792383 0.169570 0.335120 255 255 255
0.044724 0.987948 -0.161085 0.000000 1.000000 0.000000 0.181933 0.434531 255 255 255
0.069282 0.987948 -0.146906 0.686239 0.609973 0.396191 0.169569 0.455946 255 255 255
-0.000000 0.987948 -0.135263 0.000000 1.000000 0.000000 0.226965 0.434531 255 255 255
-0.000000 0.987948 -0.106906 0.000000 0.609973 0.792383 0.239328 0.455946 255 255 255
-0.044724 0.987948 -0.161085 0.000000 1.000000 0.000000 0.249480 0.395533 255 255 255
-0.069282 0.987948 -0.146906 -0.686239 0.609973 0.396191 0.274208 0.395533 255 255 255
-0.044724 0.987948 -0.212727 0.000000 1.000000 0.000000 0.226965 0.356534 255 255 255
-0.069282 0.987948 -0.226906 -0.686239 0.609973 -0.396191 0.239328 0.335120 255 255 255
0.000000 0.638101 0.394636 0.000000 0.501114 0.865352 0.507436 0.539553 255 255 255
-0.069208 0.615329 0.387645 -0.323191 0.323191 0.889401 0.506584 0.540614 255 255 255
-0.063463 0.609583 0.419306 -0.586688 0.586688 0.558153 0.506343 0.540111 255 255 255
0.000000 0.623846 0.433569 0.000000 0.724754 0.688986 0.506745 0.539310 255 255 255
0.000000 0.454140 0.394636 0.000000 -0.501114 0.865352 0.504162 0.538402 255 255 255
0.069208 0.476913 0.387645 0.323191 -0.323191 0.889401 0.505013 0.537340 255 255 255
0.063463 0.482658 0.419306 0.586688 -0.586688 0.558153 0.505254 0.537843 255 255 255
0.000000 0.468395 0.433569 0.000000 -0.724754 0.688986 0.504852 0.538645 255 255 255
-0.000000 0.546121 0.465764 0.000000 0.000000 1.000000 0.505799 0.538977 255 255 255
-0.077725 0.546121 0.433569 -0.724754 0.000000 0.688986 0.505466 0.539924 255 255 255
0.091980 0.546121 0.394636 0.501114 0.000000 0.865352 0.506374 0.537340 255 255 255
0.069208 0.615329 0.387645 0.323191 0.323191 0.889401 0.507436 0.538192 255 255 255
0.063463 0.609583 0.419306 0.586688 0.586688 0.558153 0.506933 0.538433 255 255 255
0.077725 0.546121 0.433569 0.724754 0.000000 0.688986 0.506131 0.538031 255 255 255
-0.075824 0.470296 0.387311 -0.535386 -0.535386 0.653218 1.002059 0.127410 255 255 255
-0.100774 0.546121 0.394970 -0.681814 0.000000 0.731498 1.002059 0.250786 255 255 255
-0.109920 0.546121 0.355843 -0.986358 0.000000 0.164464 0.924648 0.250786 255 255 255
-0.077725 0.468395 0.355843 -0.696982 -0.696982 0.168371 0.924648 0.127410 255 255 255
-0.075824 0.621945 0.387311 -0.535386 0.535386 0.653218 1.002059 0.374161 255 255 255
-0.077725 0.623846 0.355843 -0.696982 0.696982 0.168371 0.924648 0.374161 255 255 255
-0.063463 0.482658 0.419306 -0.586688 -0.586688 0.558153 0.504665 0.539521 255 255 255
-0.069208 0.476913 0.387645 -0.323191 -0.323191 0.889401 0.504162 0.539763 255 255 255
0.077725 0.623846 0.355843 0.696982 0.696982 0.168371 0.924648 0.129113 255 255 255
0.000000 0.656041 0.355843 0.000000 0.986358 0.164464 0.924648 0.005737 255 255 255
0.000000 0.646895 0.394970 0.000000 0.681814 0.731498 1.002059 0.005737 255 255 255
0.075824 0.621945 0.387311 0.535386 0.535386 0.653218 1.002059 0.129113 255 255 255
0.000000 0.436200 0.355843 0.000000 -0.986358 0.164434 0.924648 0.004035 255 255 255
0.000000 0.445346 0.394970 0.000000 -0.681814 0.731498 1.002059 0.004035 255 255 255
0.077725 0.468395 0.355843 0.696982 -0.696982 0.168371 0.924648 0.375864 255 255 255
0.109920 0.546121 0.355843 0.986358 0.000000 0.164464 0.924648 0.252489 255 255 255
0.100774 0.546121 0.394970 0.681814 0.000000 0.731498 1.002059 0.252489 255 255 255
0.075824 0.470296 0.387311 0.535386 -0.535386 0.653218 1.002059 0.375864 255 255 255
-0.091980 0.546121 0.394636 -0.501114 0.000000 0.865352 1.021652 0.250786 255 255 255
-0.069208 0.615329 0.387645 -0.323191 0.323191 0.889401 1.021652 0.374161 255 255 255
-0.069208 0.476913 0.387645 -0.323191 -0.323191 0.889401 1.021652 0.127410 255 255 255
0.000000 0.436200 0.355843 0.000000 -0.986358 0.164434 0.924648 0.499240 255 255 255
0.000000 0.445346 0.394970 0.000000 -0.681814 0.731498 1.002059 0.499240 255 255 255
0.000000 0.656041 0.355843 0.000000 0.986358 0.164464 0.924648 0.497537 255 255 255
0.000000 0.646895 0.394970 0.000000 0.681814 0.731498 1.002059 0.497537 255 255 255
-0.091980 0.546121 0.394636 -0.501114 0.000000 0.865352 0.505223 0.540614 255 255 255
0.000000 0.638101 0.394636 0.000000 0.501114 0.865352 1.021652 0.005737 255 255 255
0.069208 0.615329 0.387645 0.323191 0.323191 0.889401 1.021652 0.129113 255 255 255
0.000000 0.454140 0.394636 0.000000 -0.501114 0.865352 1.021652 0.004035 255 255 255
0.091980 0.546121 0.394636 0.501114 0.000000 0.865352 1.021652 0.252489 255 255 255
0.069208 0.476913 0.387645 0.323191 -0.323191 0.889401 1.021652 0.375864 255 255 255
0.000000 0.454140 0.394636 0.000000 -0.501114 0.865352 1.021652 0.499240 255 255 255
0.000000 0.638101 0.394636 0.000000 0.501114 0.865352 1.021652 0.497537 255 255 255
4 0 1 2 3
4 3 2 4 5
4 5 4 6 7
4 8 9 10 11
3 12 13 14
3 14 15 16
3 16 17 18
3 18 12 14
3 14 16 18
4 11 10 19 20
4 20 19 21 22
3 23 24 25
3 25 26 27
3 27 28 29
3 29 23 25
3 25 27 29
4 30 31 32 33
4 33 32 34 35
4 36 34 37 38
4 39 40 41 42
3 43 44 45
3 45 46 47
3 47 48 43
3 45 47 43
4 42 41 49 50
4 50 49 31 51
4 22 52 53 20
4 54 11 20 53
4 55 8 11 54
4 56 5 7 57
4 58 3 5 56
4 59 0 3 58
4 60 61 62 63
4 61 64 65 62
4 64 66 67 65
4 66 68 69 67
4 68 70 71 69
4 70 60 63 71
4 72 73 74 75
4 76 77 78 79
4 80 75 74 81
4 82 83 84 85
4 86 87 88 89
4 87 90 91 88
4 77 82 85 78
4 79 80 81 92
4 78 85 80 79
4 85 84 75 80
4 93 76 79 92
4 83 72 75 84
4 94 95 96 97
4 89 98 99 86
4 100 101 102 103
4 104 105 90 87
4 106 104 87 86
4 101 94 97 102
4 107 100 103 108
4 109 91 90 110
4 92 81 111 93
4 81 74 73 111
4 97 96 112 113
4 86 99 114 106
4 103 102 115 116
4 102 97 113 115
4 108 103 116 117
4 110 90 105 118
