ply
format ascii 1.0
comment Created by Blender 2.79 (sub 0) - www.blender.org, source file: 'rail_cart.blend'
element vertex 302
property float x
property float y
property float z
property float nx
property float ny
property float nz
property float s
property float t
property uchar red
property uchar green
property uchar blue
element face 156
property list uchar uint vertex_indices
end_header
0.166558 0.139485 0.263508 -0.630238 -0.297098 -0.717277 0.124462 0.600810 255 255 255
0.232113 0.139485 0.263508 0.630238 -0.297098 -0.717277 0.124462 0.623015 255 255 255
0.232113 0.096627 0.306365 0.630238 -0.717277 -0.297098 0.088102 0.623015 255 255 255
0.166558 0.096627 0.306365 -0.630238 -0.717277 -0.297098 0.088102 0.600810 255 255 255
0.232113 0.096627 0.366975 0.630238 -0.717277 0.297098 0.052532 0.623015 255 255 255
0.166558 0.096627 0.366975 -0.630238 -0.717277 0.297098 0.052532 0.600810 255 255 255
0.232113 0.139485 0.409832 0.630238 -0.297098 0.717277 0.018360 0.623015 255 255 255
0.166558 0.139485 0.409832 -0.630238 -0.297098 0.717277 0.018360 0.600810 255 255 255
0.166558 0.139485 0.409832 -0.630238 -0.297098 0.717277 0.303455 0.600810 255 255 255
0.232113 0.139485 0.409832 0.630238 -0.297098 0.717277 0.303455 0.623015 255 255 255
0.232113 0.200095 0.409832 0.630238 0.297098 0.717277 0.269280 0.623015 255 255 255
0.166558 0.200095 0.409832 -0.630238 0.297098 0.717277 0.269280 0.600810 255 255 255
0.232113 0.242952 0.366975 0.630238 0.717277 0.297098 0.233709 0.623015 255 255 255
0.166558 0.242952 0.366975 -0.630238 0.717277 0.297098 0.233709 0.600810 255 255 255
0.232113 0.242952 0.306365 0.630238 0.717277 -0.297098 0.197346 0.623015 255 255 255
0.166558 0.242952 0.306365 -0.630238 0.717277 -0.297098 0.197346 0.600810 255 255 255
0.232113 0.200095 0.263507 0.630238 0.297098 -0.717277 0.160904 0.623015 255 255 255
0.166558 0.200095 0.263508 -0.630238 0.297098 -0.717277 0.160904 0.600810 255 255 255
-0.166558 0.139485 0.263508 0.630238 -0.297098 -0.717277 0.124462 0.623015 255 255 255
-0.166558 0.096627 0.306365 0.630238 -0.717277 -0.297098 0.088102 0.623015 255 255 255
-0.232113 0.096627 0.306365 -0.630238 -0.717277 -0.297098 0.088102 0.600810 255 255 255
-0.232113 0.139485 0.263508 -0.630238 -0.297098 -0.717277 0.124462 0.600810 255 255 255
-0.166558 0.096627 0.366975 0.630238 -0.717277 0.297098 0.052532 0.623015 255 255 255
-0.232113 0.096627 0.366975 -0.630238 -0.717277 0.297098 0.052532 0.600810 255 255 255
-0.166558 0.139485 0.409832 0.630238 -0.297098 0.717277 0.018360 0.623015 255 255 255
-0.232113 0.139485 0.409832 -0.630238 -0.297098 0.717277 0.018360 0.600810 255 255 255
-0.166558 0.139485 0.409832 0.630238 -0.297098 0.717277 0.303455 0.623015 255 255 255
-0.166558 0.200095 0.409832 0.630238 0.297098 0.717277 0.269280 0.623015 255 255 255
-0.232113 0.200095 0.409832 -0.630238 0.297098 0.717277 0.269280 0.600810 255 255 255
-0.232113 0.139485 0.409832 -0.630238 -0.297098 0.717277 0.303455 0.600810 255 255 255
-0.166558 0.242952 0.366975 0.630238 0.717277 0.297098 0.233709 0.623015 255 255 255
-0.232113 0.242952 0.366975 -0.630238 0.717277 0.297098 0.233709 0.600810 255 255 255
-0.166558 0.242952 0.306365 0.630238 0.717277 -0.297098 0.197346 0.623015 255 255 255
-0.232113 0.242952 0.306365 -0.630238 0.717277 -0.297098 0.197346 0.600810 255 255 255
-0.166558 0.200095 0.263508 0.630238 0.297098 -0.717277 0.160904 0.623015 255 255 255
-0.232113 0.200095 0.263507 -0.630238 0.297098 -0.717277 0.160904 0.600810 255 255 255
-0.232113 0.242952 -0.306365 -0.630238 0.717277 0.297098 0.162360 0.572150 255 255 255
-0.232113 0.242952 -0.366975 -0.630238 0.717277 -0.297098 0.198847 0.572150 255 255 255
-0.232113 0.200095 -0.409832 -0.630238 0.297098 -0.717277 0.224646 0.546350 255 255 255
-0.232113 0.139485 -0.409832 -0.630238 -0.297098 -0.717277 0.224646 0.509863 255 255 255
-0.232113 0.096627 -0.366975 -0.630238 -0.717277 -0.297098 0.198847 0.484063 255 255 255
-0.232113 0.096627 -0.306365 -0.630238 -0.717277 0.297098 0.162360 0.484063 255 255 255
-0.232113 0.139485 -0.263508 -0.630238 -0.297098 0.717277 0.136560 0.509863 255 255 255
-0.232113 0.200095 -0.263508 -0.630238 0.297098 0.717277 0.136560 0.546350 255 255 255
-0.232113 0.096627 0.306365 -0.630238 -0.717277 -0.297098 0.197798 0.486016 255 255 255
-0.232113 0.096627 0.366975 -0.630238 -0.717277 0.297098 0.161311 0.486016 255 255 255
-0.232113 0.139485 0.409832 -0.630238 -0.297098 0.717277 0.135511 0.511817 255 255 255
-0.232113 0.200095 0.409832 -0.630238 0.297098 0.717277 0.135511 0.548303 255 255 255
-0.232113 0.242952 0.366975 -0.630238 0.717277 0.297098 0.161311 0.574103 255 255 255
-0.232113 0.242952 0.306365 -0.630238 0.717277 -0.297098 0.197798 0.574103 255 255 255
-0.232113 0.200095 0.263507 -0.630238 0.297098 -0.717277 0.223598 0.548303 255 255 255
-0.232113 0.139485 0.263508 -0.630238 -0.297098 -0.717277 0.223597 0.511817 255 255 255
0.232113 0.139485 0.263508 0.630238 -0.297098 -0.717277 0.223597 0.511817 255 255 255
0.232113 0.200095 0.263507 0.630238 0.297098 -0.717277 0.223598 0.548303 255 255 255
0.232113 0.242952 0.306365 0.630238 0.717277 -0.297098 0.197798 0.574103 255 255 255
0.232113 0.242952 0.366975 0.630238 0.717277 0.297098 0.161311 0.574103 255 255 255
0.232113 0.200095 0.409832 0.630238 0.297098 0.717277 0.135511 0.548303 255 255 255
0.232113 0.139485 0.409832 0.630238 -0.297098 0.717277 0.135511 0.511817 255 255 255
0.232113 0.096627 0.366975 0.630238 -0.717277 0.297098 0.161311 0.486016 255 255 255
0.232113 0.096627 0.306365 0.630238 -0.717277 -0.297098 0.197798 0.486016 255 255 255
-0.166558 0.139485 -0.263508 0.630238 -0.297098 0.717277 0.124462 0.600810 255 255 255
-0.232113 0.139485 -0.263508 -0.630238 -0.297098 0.717277 0.124462 0.623015 255 255 255
-0.232113 0.096627 -0.306365 -0.630238 -0.717277 0.297098 0.088102 0.623015 255 255 255
-0.166558 0.096627 -0.306365 0.630238 -0.717277 0.297098 0.088102 0.600810 255 255 255
-0.232113 0.096627 -0.366975 -0.630238 -0.717277 -0.297098 0.052532 0.623015 255 255 255
-0.166558 0.096627 -0.366975 0.630238 -0.717277 -0.297098 0.052532 0.600810 255 255 255
-0.232113 0.139485 -0.409832 -0.630238 -0.297098 -0.717277 0.018360 0.623015 255 255 255
-0.166558 0.139485 -0.409832 0.630238 -0.297098 -0.717277 0.018360 0.600810 255 255 255
-0.166558 0.139485 -0.409832 0.630238 -0.297098 -0.717277 0.303455 0.600810 255 255 255
-0.232113 0.139485 -0.409832 -0.630238 -0.297098 -0.717277 0.303455 0.623015 255 255 255
-0.232113 0.200095 -0.409832 -0.630238 0.297098 -0.717277 0.269280 0.623015 255 255 255
-0.166558 0.200095 -0.409832 0.630238 0.297098 -0.717277 0.269280 0.600810 255 255 255
-0.232113 0.242952 -0.366975 -0.630238 0.717277 -0.297098 0.233709 0.623015 255 255 255
-0.166558 0.242952 -0.366975 0.630238 0.717277 -0.297098 0.233709 0.600810 255 255 255
-0.232113 0.242952 -0.306365 -0.630238 0.717277 0.297098 0.197346 0.623015 255 255 255
-0.166558 0.242952 -0.306365 0.630238 0.717277 0.297098 0.197346 0.600810 255 255 255
-0.232113 0.200095 -0.263508 -0.630238 0.297098 0.717277 0.160904 0.623015 255 255 255
-0.166558 0.200095 -0.263508 0.630238 0.297098 0.717277 0.160904 0.600810 255 255 255
0.264833 0.162493 0.319053 0.630238 -0.297098 -0.717277 0.124462 0.623015 255 255 255
0.264833 0.152173 0.329373 0.630238 -0.717277 -0.297098 0.088102 0.623015 255 255 255
-0.263504 0.152173 0.329373 -0.630238 -0.717277 -0.297098 0.088102 0.600810 255 255 255
-0.263504 0.162493 0.319053 -0.630238 -0.297098 -0.717277 0.124462 0.600810 255 255 255
0.264833 0.152173 0.343967 0.630238 -0.717277 0.297098 0.052532 0.623015 255 255 255
-0.263504 0.152173 0.343967 -0.630238 -0.717277 0.297098 0.052532 0.600810 255 255 255
0.264833 0.162493 0.354286 0.630238 -0.297098 0.717277 0.018360 0.623015 255 255 255
-0.263504 0.162493 0.354286 -0.630238 -0.297098 0.717277 0.018360 0.600810 255 255 255
0.264833 0.162493 0.354286 0.630238 -0.297098 0.717277 0.303455 0.623015 255 255 255
0.264833 0.177087 0.354286 0.630238 0.297098 0.717277 0.269280 0.623015 255 255 255
-0.263504 0.177087 0.354286 -0.630238 0.297098 0.717277 0.269280 0.600810 255 255 255
-0.263504 0.162493 0.354286 -0.630238 -0.297098 0.717277 0.303455 0.600810 255 255 255
0.264833 0.187406 0.343967 0.630238 0.717277 0.297098 0.233709 0.623015 255 255 255
-0.263504 0.187406 0.343967 -0.630238 0.717277 0.297098 0.233709 0.600810 255 255 255
0.264833 0.187406 0.329373 0.630238 0.717277 -0.297098 0.197346 0.623015 255 255 255
-0.263504 0.187406 0.329373 -0.630238 0.717277 -0.297098 0.197346 0.600810 255 255 255
0.264833 0.177087 0.319053 0.630238 0.297098 -0.717277 0.160904 0.623015 255 255 255
-0.263504 0.177087 0.319053 -0.630238 0.297098 -0.717277 0.160904 0.600810 255 255 255
-0.263504 0.187406 -0.329373 -0.630238 0.717277 0.297098 0.162360 0.572150 255 255 255
-0.263504 0.187406 -0.343967 -0.630238 0.717277 -0.297098 0.198847 0.572150 255 255 255
-0.263504 0.177087 -0.354287 -0.630238 0.297098 -0.717277 0.224646 0.546350 255 255 255
-0.263504 0.162493 -0.354287 -0.630238 -0.297098 -0.717277 0.224646 0.509863 255 255 255
-0.263504 0.152173 -0.343967 -0.630238 -0.717277 -0.297098 0.198847 0.484063 255 255 255
-0.263504 0.152173 -0.329373 -0.630238 -0.717277 0.297098 0.162360 0.484063 255 255 255
-0.263504 0.162493 -0.319053 -0.630238 -0.297098 0.717277 0.136560 0.509863 255 255 255
-0.263504 0.177087 -0.319053 -0.630238 0.297098 0.717277 0.136560 0.546350 255 255 255
-0.263504 0.152173 0.329373 -0.630238 -0.717277 -0.297098 0.197798 0.486016 255 255 255
-0.263504 0.152173 0.343967 -0.630238 -0.717277 0.297098 0.161311 0.486016 255 255 255
-0.263504 0.162493 0.354286 -0.630238 -0.297098 0.717277 0.135511 0.511817 255 255 255
-0.263504 0.177087 0.354286 -0.630238 0.297098 0.717277 0.135511 0.548303 255 255 255
-0.263504 0.187406 0.343967 -0.630238 0.717277 0.297098 0.161311 0.574103 255 255 255
-0.263504 0.187406 0.329373 -0.630238 0.717277 -0.297098 0.197798 0.574103 255 255 255
-0.263504 0.177087 0.319053 -0.630238 0.297098 -0.717277 0.223598 0.548303 255 255 255
-0.263504 0.162493 0.319053 -0.630238 -0.297098 -0.717277 0.223597 0.511817 255 255 255
0.264833 0.162493 -0.319053 0.630238 -0.297098 0.717277 0.124462 0.600810 255 255 255
-0.263504 0.162493 -0.319053 -0.630238 -0.297098 0.717277 0.124462 0.623015 255 255 255
-0.263504 0.152173 -0.329373 -0.630238 -0.717277 0.297098 0.088102 0.623015 255 255 255
0.264833 0.152173 -0.329373 0.630238 -0.717277 0.297098 0.088102 0.600810 255 255 255
-0.263504 0.152173 -0.343967 -0.630238 -0.717277 -0.297098 0.052532 0.623015 255 255 255
0.264833 0.152173 -0.343967 0.630238 -0.717277 -0.297098 0.052532 0.600810 255 255 255
-0.263504 0.162493 -0.354287 -0.630238 -0.297098 -0.717277 0.018360 0.623015 255 255 255
0.264833 0.162493 -0.354287 0.630238 -0.297098 -0.717277 0.018360 0.600810 255 255 255
0.264833 0.162493 -0.354287 0.630238 -0.297098 -0.717277 0.303455 0.600810 255 255 255
-0.263504 0.162493 -0.354287 -0.630238 -0.297098 -0.717277 0.303455 0.623015 255 255 255
-0.263504 0.177087 -0.354287 -0.630238 0.297098 -0.717277 0.269280 0.623015 255 255 255
0.264833 0.177087 -0.354287 0.630238 0.297098 -0.717277 0.269280 0.600810 255 255 255
-0.263504 0.187406 -0.343967 -0.630238 0.717277 -0.297098 0.233709 0.623015 255 255 255
0.264833 0.187406 -0.343967 0.630238 0.717277 -0.297098 0.233709 0.600810 255 255 255
-0.263504 0.187406 -0.329373 -0.630238 0.717277 0.297098 0.197346 0.623015 255 255 255
0.264833 0.187406 -0.329373 0.630238 0.717277 0.297098 0.197346 0.600810 255 255 255
-0.263504 0.177087 -0.319053 -0.630238 0.297098 0.717277 0.160904 0.623015 255 255 255
0.264833 0.177087 -0.319053 0.630238 0.297098 0.717277 0.160904 0.600810 255 255 255
-0.010168 0.172455 -0.664501 -0.000000 0.000000 -1.000000 0.111460 0.649759 255 255 255
-0.010168 0.194298 -0.664501 -0.000000 0.000000 -1.000000 0.111460 0.614906 255 255 255
0.010168 0.194298 -0.664501 -0.000000 0.000000 -1.000000 0.143910 0.614906 255 255 255
0.010168 0.172455 -0.664501 -0.000000 0.000000 -1.000000 0.143910 0.649759 255 255 255
-0.010975 0.172455 -0.648366 -0.998752 0.000000 -0.049951 0.023513 0.737044 255 255 255
-0.010975 0.194298 -0.648366 -0.998752 0.000000 -0.049951 0.023513 0.752198 255 255 255
-0.010168 0.194298 -0.664501 -0.998752 0.000000 -0.049951 0.012306 0.752198 255 255 255
-0.010168 0.172455 -0.664501 -0.998752 0.000000 -0.049951 0.012306 0.737044 255 255 255
0.035037 0.172455 -0.482907 0.997745 0.000000 0.067124 0.142685 0.785896 255 255 255
0.035037 0.194298 -0.482907 0.997745 0.000000 0.067124 0.142685 0.770740 255 255 255
0.025037 0.181719 -0.334264 0.997745 0.000000 0.067124 0.888497 0.770742 255 255 255
0.025037 0.159876 -0.334264 0.997745 0.000000 0.067124 0.888497 0.785896 255 255 255
-0.035037 0.172455 -0.482907 0.000000 -0.996438 -0.084326 0.155147 0.965950 255 255 255
0.035037 0.172455 -0.482907 0.000000 -0.996438 -0.084326 0.155147 0.917329 255 255 255
0.025037 0.159876 -0.334264 0.000000 -0.996438 -0.084326 0.900921 0.917328 255 255 255
-0.025037 0.159876 -0.334264 0.000000 -0.996438 -0.084326 0.900921 0.965949 255 255 255
0.035037 0.194298 -0.482907 0.000000 0.996438 0.084326 0.138304 0.882525 255 255 255
-0.035037 0.194298 -0.482907 0.000000 0.996438 0.084326 0.138304 0.833904 255 255 255
-0.025037 0.181719 -0.334264 0.000000 0.996438 0.084326 0.884078 0.833905 255 255 255
0.025037 0.181719 -0.334264 0.000000 0.996438 0.084326 0.884078 0.882525 255 255 255
0.018248 0.194298 -0.502957 0.000000 1.000000 -0.000001 0.124393 0.870876 255 255 255
-0.018248 0.194298 -0.502957 0.000000 1.000000 -0.000001 0.124393 0.845553 255 255 255
-0.035037 0.194298 -0.482907 0.000000 1.000000 -0.000001 0.138304 0.833904 255 255 255
0.035037 0.194298 -0.482907 0.000000 1.000000 -0.000001 0.138304 0.882525 255 255 255
-0.018248 0.172455 -0.502957 0.000000 -1.000000 0.000001 0.141235 0.954301 255 255 255
0.018248 0.172455 -0.502957 0.000000 -1.000000 0.000001 0.141235 0.928979 255 255 255
0.035037 0.172455 -0.482907 0.000000 -1.000000 0.000001 0.155147 0.917329 255 255 255
-0.035037 0.172455 -0.482907 0.000000 -1.000000 0.000001 0.155147 0.965950 255 255 255
0.018248 0.172455 -0.502957 0.766683 0.000000 -0.642025 0.124539 0.785896 255 255 255
0.018248 0.194298 -0.502957 0.766683 0.000000 -0.642025 0.124539 0.770740 255 255 255
0.035037 0.194298 -0.482907 0.766683 0.000000 -0.642025 0.142685 0.770740 255 255 255
0.035037 0.172455 -0.482907 0.766683 0.000000 -0.642025 0.142685 0.785896 255 255 255
-0.025037 0.159876 -0.334264 -0.997745 0.000000 0.067124 0.888480 0.737044 255 255 255
-0.025037 0.181719 -0.334264 -0.997745 0.000000 0.067124 0.888480 0.752201 255 255 255
-0.035037 0.194298 -0.482907 -0.997745 0.000000 0.067124 0.142660 0.752199 255 255 255
-0.035037 0.172455 -0.482907 -0.997745 0.000000 0.067124 0.142660 0.737045 255 255 255
0.010975 0.172455 -0.648366 0.998752 0.000000 -0.049951 0.023515 0.785896 255 255 255
0.010975 0.194298 -0.648366 0.998752 0.000000 -0.049951 0.023515 0.770740 255 255 255
0.018248 0.194298 -0.502957 0.998752 0.000000 -0.049951 0.124539 0.770740 255 255 255
0.018248 0.172455 -0.502957 0.998752 0.000000 -0.049951 0.124539 0.785896 255 255 255
-0.010975 0.172455 -0.648366 0.000000 -1.000000 -0.000000 0.040343 0.949255 255 255 255
0.010975 0.172455 -0.648366 0.000000 -1.000000 -0.000000 0.040343 0.934025 255 255 255
0.018248 0.172455 -0.502957 0.000000 -1.000000 -0.000000 0.141235 0.928979 255 255 255
-0.018248 0.172455 -0.502957 0.000000 -1.000000 -0.000000 0.141235 0.954301 255 255 255
0.010975 0.194298 -0.648366 0.000000 1.000000 0.000000 0.023501 0.865830 255 255 255
-0.010975 0.194298 -0.648366 0.000000 1.000000 0.000000 0.023501 0.850600 255 255 255
-0.018248 0.194298 -0.502957 0.000000 1.000000 0.000000 0.124393 0.845553 255 255 255
0.018248 0.194298 -0.502957 0.000000 1.000000 0.000000 0.124393 0.870876 255 255 255
-0.035037 0.172455 -0.482907 -0.766683 -0.000000 -0.642025 0.142660 0.737045 255 255 255
-0.035037 0.194298 -0.482907 -0.766683 -0.000000 -0.642025 0.142660 0.752199 255 255 255
-0.018248 0.194298 -0.502957 -0.766683 -0.000000 -0.642025 0.124518 0.752199 255 255 255
-0.018248 0.172455 -0.502957 -0.766683 -0.000000 -0.642025 0.124518 0.737045 255 255 255
0.010168 0.194298 -0.664501 0.000000 1.000000 0.000000 0.012306 0.865270 255 255 255
-0.010168 0.194298 -0.664501 0.000000 1.000000 0.000000 0.012306 0.851159 255 255 255
0.010975 0.172455 -0.648366 0.000000 -0.103804 0.994598 0.040343 0.934025 255 255 255
-0.010975 0.172455 -0.648366 0.000000 -0.103804 0.994598 0.040343 0.949255 255 255 255
-0.006649 0.141987 -0.651546 0.000000 -0.103804 0.994598 0.019088 0.946254 255 255 255
0.006649 0.141987 -0.651546 0.000000 -0.103804 0.994598 0.019088 0.937027 255 255 255
0.010168 0.172455 -0.664501 0.998752 0.000000 -0.049951 0.012306 0.785896 255 255 255
0.010168 0.194298 -0.664501 0.998752 0.000000 -0.049951 0.012306 0.770740 255 255 255
-0.018248 0.172455 -0.502957 -0.998752 -0.000000 -0.049951 0.124518 0.737045 255 255 255
-0.018248 0.194298 -0.502957 -0.998752 -0.000000 -0.049951 0.124518 0.752199 255 255 255
-0.006160 0.141987 -0.661321 0.000000 -1.000000 -0.000000 0.012306 0.945914 255 255 255
0.006160 0.141987 -0.661321 0.000000 -1.000000 -0.000000 0.012306 0.937366 255 255 255
0.006649 0.141987 -0.651546 0.000000 -1.000000 -0.000000 0.019088 0.937027 255 255 255
-0.006649 0.141987 -0.651546 0.000000 -1.000000 -0.000000 0.019088 0.946254 255 255 255
-0.010975 0.172455 -0.648366 -0.989562 -0.135342 -0.049492 0.023513 0.737044 255 255 255
-0.010168 0.172455 -0.664501 -0.989562 -0.135342 -0.049492 0.012306 0.737044 255 255 255
-0.006160 0.141987 -0.661321 -0.989562 -0.135342 -0.049492 0.014370 0.715711 255 255 255
-0.006649 0.141987 -0.651546 -0.989562 -0.135342 -0.049492 0.021160 0.715711 255 255 255
-0.010168 0.172455 -0.664501 0.000000 -0.103804 -0.994598 0.111460 0.649759 255 255 255
0.010168 0.172455 -0.664501 0.000000 -0.103804 -0.994598 0.143910 0.649759 255 255 255
0.006160 0.141987 -0.661321 0.000000 -0.103804 -0.994598 0.137514 0.698638 255 255 255
-0.006160 0.141987 -0.661321 0.000000 -0.103804 -0.994598 0.117856 0.698638 255 255 255
0.010168 0.172455 -0.664501 0.989562 -0.135342 -0.049492 0.012306 0.785896 255 255 255
0.010975 0.172455 -0.648366 0.989562 -0.135342 -0.049492 0.023515 0.785896 255 255 255
0.006649 0.141987 -0.651546 0.989562 -0.135342 -0.049492 0.021162 0.807234 255 255 255
0.006160 0.141987 -0.661321 0.989562 -0.135342 -0.049492 0.014371 0.807234 255 255 255
0.166558 0.139485 -0.263508 -0.630238 -0.297098 0.717277 0.124462 0.623015 255 255 255
0.166558 0.096627 -0.306365 -0.630238 -0.717277 0.297098 0.088102 0.623015 255 255 255
0.232113 0.096627 -0.306365 0.630238 -0.717277 0.297098 0.088102 0.600810 255 255 255
0.232113 0.139485 -0.263508 0.630238 -0.297098 0.717277 0.124462 0.600810 255 255 255
0.166558 0.096627 -0.366975 -0.630238 -0.717277 -0.297098 0.052532 0.623015 255 255 255
0.232113 0.096627 -0.366975 0.630238 -0.717277 -0.297098 0.052532 0.600810 255 255 255
0.166558 0.139485 -0.409832 -0.630238 -0.297098 -0.717277 0.018360 0.623015 255 255 255
0.232113 0.139485 -0.409832 0.630238 -0.297098 -0.717277 0.018360 0.600810 255 255 255
0.166558 0.139485 -0.409832 -0.630238 -0.297098 -0.717277 0.303455 0.623015 255 255 255
0.166558 0.200095 -0.409832 -0.630238 0.297098 -0.717277 0.269280 0.623015 255 255 255
0.232113 0.200095 -0.409832 0.630238 0.297098 -0.717277 0.269280 0.600810 255 255 255
0.232113 0.139485 -0.409832 0.630238 -0.297098 -0.717277 0.303455 0.600810 255 255 255
0.166558 0.242952 -0.366975 -0.630238 0.717277 -0.297098 0.233709 0.623015 255 255 255
0.232113 0.242952 -0.366975 0.630238 0.717277 -0.297098 0.233709 0.600810 255 255 255
0.166558 0.242952 -0.306365 -0.630238 0.717277 0.297098 0.197346 0.623015 255 255 255
0.232113 0.242952 -0.306365 0.630238 0.717277 0.297098 0.197346 0.600810 255 255 255
0.166558 0.200095 -0.263508 -0.630238 0.297098 0.717277 0.160904 0.623015 255 255 255
0.232113 0.200095 -0.263508 0.630238 0.297098 0.717277 0.160904 0.600810 255 255 255
0.232113 0.139485 -0.409832 0.630238 -0.297098 -0.717277 0.224646 0.509863 255 255 255
0.232113 0.200095 -0.409832 0.630238 0.297098 -0.717277 0.224646 0.546350 255 255 255
0.232113 0.242952 -0.366975 0.630238 0.717277 -0.297098 0.198847 0.572150 255 255 255
0.232113 0.242952 -0.306365 0.630238 0.717277 0.297098 0.162360 0.572150 255 255 255
0.232113 0.200095 -0.263508 0.630238 0.297098 0.717277 0.136560 0.546350 255 255 255
0.232113 0.139485 -0.263508 0.630238 -0.297098 0.717277 0.136560 0.509863 255 255 255
0.232113 0.096627 -0.306365 0.630238 -0.717277 0.297098 0.162360 0.484063 255 255 255
0.232113 0.096627 -0.366975 0.630238 -0.717277 -0.297098 0.198847 0.484063 255 255 255
0.166558 0.242952 -0.366975 -0.630238 0.717277 -0.297098 0.198847 0.572150 255 255 255
0.166558 0.200095 -0.409832 -0.630238 0.297098 -0.717277 0.224646 0.546350 255 255 255
0.166558 0.139485 -0.409832 -0.630238 -0.297098 -0.717277 0.224646 0.509863 255 255 255
0.166558 0.096627 -0.366975 -0.630238 -0.717277 -0.297098 0.198847 0.484063 255 255 255
0.166558 0.096627 -0.306365 -0.630238 -0.717277 0.297098 0.162360 0.484063 255 255 255
0.166558 0.139485 -0.263508 -0.630238 -0.297098 0.717277 0.136560 0.509863 255 255 255
0.166558 0.200095 -0.263508 -0.630238 0.297098 0.717277 0.136560 0.546350 255 255 255
0.166558 0.242952 -0.306365 -0.630238 0.717277 0.297098 0.162360 0.572150 255 255 255
-0.245172 0.210230 0.450942 -1.000000 0.000000 0.000000 0.830983 0.602936 255 255 255
-0.245172 0.311485 0.450942 -1.000000 0.000000 0.000000 0.830983 0.679031 255 255 255
-0.245172 0.311485 -0.450942 -1.000000 0.000000 0.000000 0.153204 0.679031 255 255 255
-0.245172 0.210230 -0.450942 -1.000000 0.000000 0.000000 0.153204 0.602936 255 255 255
-0.245172 0.210230 -0.450942 -0.000000 0.000000 -1.000000 0.127890 0.503249 255 255 255
-0.245172 0.311485 -0.450942 -0.000000 0.000000 -1.000000 0.203985 0.503249 255 255 255
0.245172 0.311485 -0.450942 -0.000000 0.000000 -1.000000 0.203984 0.871750 255 255 255
0.245172 0.210230 -0.450942 -0.000000 0.000000 -1.000000 0.127889 0.871750 255 255 255
0.245172 0.210230 -0.450942 1.000000 0.000000 0.000000 0.112188 0.803314 255 255 255
0.245172 0.311485 -0.450942 1.000000 0.000000 0.000000 0.112188 0.727219 255 255 255
0.245172 0.311485 0.450942 1.000000 0.000000 0.000000 0.789966 0.727219 255 255 255
0.245172 0.210230 0.450942 1.000000 0.000000 0.000000 0.789966 0.803314 255 255 255
0.245172 0.210230 0.450942 -0.000000 0.000000 1.000000 0.190280 0.863938 255 255 255
0.245172 0.311485 0.450942 -0.000000 0.000000 1.000000 0.114185 0.863938 255 255 255
-0.245172 0.311485 0.450942 -0.000000 0.000000 1.000000 0.114186 0.495438 255 255 255
-0.245172 0.210230 0.450942 -0.000000 0.000000 1.000000 0.190281 0.495438 255 255 255
0.245172 0.311485 -0.450942 0.000000 1.000000 0.000000 0.032704 0.905767 255 255 255
-0.245172 0.311485 -0.450942 0.000000 1.000000 0.000000 0.032705 0.582513 255 255 255
-0.245172 0.311485 0.450942 0.000000 1.000000 0.000000 0.627263 0.582514 255 255 255
0.245172 0.311485 0.450942 0.000000 1.000000 0.000000 0.627262 0.905768 255 255 255
-0.061590 0.311112 -0.361976 -1.000000 0.000000 0.000000 0.500395 0.690060 4 4 4
-0.061590 0.392960 -0.361976 -1.000000 0.000000 0.000000 0.572683 0.690060 0 0 0
-0.061590 0.392960 -0.432358 -1.000000 0.000000 0.000000 0.572683 0.752220 255 255 255
-0.061590 0.311112 -0.432358 -1.000000 0.000000 0.000000 0.500395 0.752220 255 255 255
-0.061590 0.311112 -0.432358 0.000000 0.000000 -1.000000 0.572683 0.824508 255 255 255
-0.061590 0.392960 -0.432358 0.000000 0.000000 -1.000000 0.572683 0.752220 255 255 255
0.061590 0.392960 -0.432358 0.000000 0.000000 -1.000000 0.681475 0.752221 164 164 164
0.061590 0.311112 -0.432358 0.000000 0.000000 -1.000000 0.681475 0.824508 255 255 255
0.061590 0.311112 -0.432358 1.000000 0.000000 0.000000 0.753763 0.752221 255 255 255
0.061590 0.392960 -0.432358 1.000000 0.000000 0.000000 0.681475 0.752221 255 255 255
0.061590 0.392960 -0.361976 1.000000 0.000000 0.000000 0.681475 0.690060 0 0 0
0.061590 0.311112 -0.361976 1.000000 0.000000 0.000000 0.753763 0.690060 0 0 0
0.061590 0.311112 -0.361976 0.000000 -0.000000 1.000000 0.681475 0.617772 255 255 255
0.061590 0.392960 -0.361976 0.000000 -0.000000 1.000000 0.681475 0.690060 255 255 255
-0.061590 0.392960 -0.361976 0.000000 -0.000000 1.000000 0.572683 0.690060 255 255 255
-0.061590 0.311112 -0.361976 0.000000 -0.000000 1.000000 0.572683 0.617772 255 255 255
0.061590 0.392960 -0.432358 0.000000 1.000000 0.000000 0.681475 0.752221 164 164 164
-0.061590 0.392960 -0.432358 0.000000 1.000000 0.000000 0.572683 0.752220 255 255 255
-0.061590 0.392960 -0.361976 0.000000 1.000000 0.000000 0.572683 0.690060 0 0 0
0.061590 0.392960 -0.361976 0.000000 1.000000 0.000000 0.681475 0.690060 0 0 0
-0.061590 0.311112 0.430887 -1.000000 0.000000 0.000000 0.500395 0.690934 255 255 255
-0.061590 0.392960 0.430887 -1.000000 0.000000 0.000000 0.572683 0.690934 255 255 255
-0.061590 0.392960 0.360505 -1.000000 0.000000 0.000000 0.572683 0.753094 0 0 0
-0.061590 0.311112 0.360505 -1.000000 0.000000 0.000000 0.500395 0.753094 0 0 0
-0.061590 0.311112 0.360505 0.000000 0.000000 -1.000000 0.572683 0.825382 255 255 255
-0.061590 0.392960 0.360505 0.000000 0.000000 -1.000000 0.572683 0.753094 255 255 255
0.061590 0.392960 0.360505 0.000000 0.000000 -1.000000 0.681475 0.753094 255 255 255
0.061590 0.311112 0.360505 0.000000 0.000000 -1.000000 0.681475 0.825382 255 255 255
0.061590 0.311112 0.360505 1.000000 0.000000 0.000000 0.753763 0.753094 0 0 0
0.061590 0.392960 0.360505 1.000000 0.000000 0.000000 0.681475 0.753094 0 0 0
0.061590 0.392960 0.430887 1.000000 0.000000 0.000000 0.681475 0.690934 255 255 255
0.061590 0.311112 0.430887 1.000000 0.000000 0.000000 0.753763 0.690934 255 255 255
0.061590 0.311112 0.430887 0.000000 -0.000000 1.000000 0.681475 0.618646 255 255 255
0.061590 0.392960 0.430887 0.000000 -0.000000 1.000000 0.681475 0.690934 255 255 255
-0.061590 0.392960 0.430887 0.000000 -0.000000 1.000000 0.572683 0.690934 255 255 255
-0.061590 0.311112 0.430887 0.000000 -0.000000 1.000000 0.572683 0.618646 255 255 255
0.061590 0.392960 0.360505 0.000000 1.000000 0.000000 0.681475 0.753094 0 0 0
-0.061590 0.392960 0.360505 0.000000 1.000000 0.000000 0.572683 0.753094 0 0 0
-0.061590 0.392960 0.430887 0.000000 1.000000 0.000000 0.572683 0.690934 255 255 255
0.061590 0.392960 0.430887 0.000000 1.000000 0.000000 0.681475 0.690934 255 255 255
4 0 1 2 3
4 3 2 4 5
4 5 4 6 7
4 8 9 10 11
4 11 10 12 13
4 13 12 14 15
4 15 14 16 17
4 1 0 17 16
4 18 19 20 21
4 19 22 23 20
4 22 24 25 23
4 26 27 28 29
4 27 30 31 28
4 30 32 33 31
4 32 34 35 33
4 34 18 21 35
3 36 37 38
3 38 39 40
3 40 41 42
3 42 43 36
3 36 38 40
3 40 42 36
3 44 45 46
3 46 47 48
3 48 49 50
3 50 51 44
3 44 46 48
3 48 50 44
3 52 53 54
3 54 55 56
3 56 57 58
3 58 59 52
3 52 54 56
3 56 58 52
4 60 61 62 63
4 63 62 64 65
4 65 64 66 67
4 68 69 70 71
4 71 70 72 73
4 73 72 74 75
4 75 74 76 77
4 77 76 61 60
3 19 18 34
3 34 32 30
3 30 27 26
3 26 22 19
3 19 34 30
3 30 26 19
3 73 75 77
3 77 60 63
3 63 65 68
3 68 71 73
3 73 77 63
3 63 68 73
3 13 15 17
3 17 0 3
3 3 5 8
3 8 11 13
3 13 17 3
3 3 8 13
4 78 79 80 81
4 79 82 83 80
4 82 84 85 83
4 86 87 88 89
4 87 90 91 88
4 90 92 93 91
4 92 94 95 93
4 94 78 81 95
3 96 97 98
3 98 99 100
3 100 101 102
3 102 103 96
3 96 98 100
3 100 102 96
3 104 105 106
3 106 107 108
3 108 109 110
3 110 111 104
3 104 106 108
3 108 110 104
4 112 113 114 115
4 115 114 116 117
4 117 116 118 119
4 120 121 122 123
4 123 122 124 125
4 125 124 126 127
4 127 126 128 129
4 129 128 113 112
3 79 78 94
3 94 92 90
3 90 87 86
3 86 82 79
3 79 94 90
3 90 86 79
3 125 127 129
3 129 112 115
3 115 117 120
3 120 123 125
3 125 129 115
3 115 120 125
4 130 131 132 133
4 134 135 136 137
4 138 139 140 141
4 142 143 144 145
4 146 147 148 149
4 150 151 152 153
4 154 155 156 157
4 158 159 160 161
4 162 163 164 165
4 166 167 168 169
4 170 171 172 173
4 174 175 176 177
4 178 179 180 181
4 182 183 175 174
4 184 185 186 187
4 188 189 167 166
4 190 191 135 134
4 192 193 194 195
4 196 197 198 199
4 200 201 202 203
4 204 205 206 207
4 208 209 210 211
4 209 212 213 210
4 212 214 215 213
4 216 217 218 219
4 217 220 221 218
4 220 222 223 221
4 222 224 225 223
4 224 208 211 225
3 226 227 228
3 228 229 230
3 230 231 232
3 232 233 226
3 226 228 230
3 230 232 226
3 234 235 236
3 236 237 238
3 238 239 240
3 240 241 234
3 234 236 238
3 238 240 234
4 242 243 244 245
4 246 247 248 249
4 250 251 252 253
4 254 255 256 257
4 258 259 260 261
4 262 263 264 265
4 266 267 268 269
4 270 271 272 273
4 274 275 276 277
4 278 279 280 281
4 282 283 284 285
4 286 287 288 289
4 290 291 292 293
4 294 295 296 297
4 298 299 300 301
