ply
format ascii 1.0
comment Created by Blender 2.79 (sub 0) - www.blender.org, source file: 'rail_cart.blend'
element vertex 458
property float x
property float y
property float z
property float nx
property float ny
property float nz
property float s
property float t
property uchar red
property uchar green
property uchar blue
element face 217
property list uchar uint vertex_indices
end_header
0.166558 0.139485 0.263508 -0.630238 -0.297098 -0.717277 0.124462 0.600810 255 255 255
0.232113 0.139485 0.263508 0.630238 -0.297098 -0.717277 0.124462 0.623015 255 255 255
0.232113 0.096627 0.306365 0.630238 -0.717277 -0.297098 0.088102 0.623015 255 255 255
0.166558 0.096627 0.306365 -0.630238 -0.717277 -0.297098 0.088102 0.600810 255 255 255
0.232113 0.096627 0.366975 0.630238 -0.717277 0.297098 0.052532 0.623015 255 255 255
0.166558 0.096627 0.366975 -0.630238 -0.717277 0.297098 0.052532 0.600810 255 255 255
0.232113 0.139485 0.409832 0.630238 -0.297098 0.717277 0.018360 0.623015 255 255 255
0.166558 0.139485 0.409832 -0.630238 -0.297098 0.717277 0.018360 0.600810 255 255 255
0.166558 0.139485 0.409832 -0.630238 -0.297098 0.717277 0.303455 0.600810 255 255 255
0.232113 0.139485 0.409832 0.630238 -0.297098 0.717277 0.303455 0.623015 255 255 255
0.232113 0.200095 0.409832 0.630238 0.297098 0.717277 0.269280 0.623015 255 255 255
0.166558 0.200095 0.409832 -0.630238 0.297098 0.717277 0.269280 0.600810 255 255 255
0.232113 0.242952 0.366975 0.630238 0.717277 0.297098 0.233709 0.623015 255 255 255
0.166558 0.242952 0.366975 -0.630238 0.717277 0.297098 0.233709 0.600810 255 255 255
0.232113 0.242952 0.306365 0.630238 0.717277 -0.297098 0.197346 0.623015 255 255 255
0.166558 0.242952 0.306365 -0.630238 0.717277 -0.297098 0.197346 0.600810 255 255 255
0.232113 0.200095 0.263507 0.630238 0.297098 -0.717277 0.160904 0.623015 255 255 255
0.166558 0.200095 0.263508 -0.630238 0.297098 -0.717277 0.160904 0.600810 255 255 255
-0.166558 0.139485 0.263508 0.630238 -0.297098 -0.717277 0.124462 0.623015 255 255 255
-0.166558 0.096627 0.306365 0.630238 -0.717277 -0.297098 0.088102 0.623015 255 255 255
-0.232113 0.096627 0.306365 -0.630238 -0.717277 -0.297098 0.088102 0.600810 255 255 255
-0.232113 0.139485 0.263508 -0.630238 -0.297098 -0.717277 0.124462 0.600810 255 255 255
-0.166558 0.096627 0.366975 0.630238 -0.717277 0.297098 0.052532 0.623015 255 255 255
-0.232113 0.096627 0.366975 -0.630238 -0.717277 0.297098 0.052532 0.600810 255 255 255
-0.166558 0.139485 0.409832 0.630238 -0.297098 0.717277 0.018360 0.623015 255 255 255
-0.232113 0.139485 0.409832 -0.630238 -0.297098 0.717277 0.018360 0.600810 255 255 255
-0.166558 0.139485 0.409832 0.630238 -0.297098 0.717277 0.303455 0.623015 255 255 255
-0.166558 0.200095 0.409832 0.630238 0.297098 0.717277 0.269280 0.623015 255 255 255
-0.232113 0.200095 0.409832 -0.630238 0.297098 0.717277 0.269280 0.600810 255 255 255
-0.232113 0.139485 0.409832 -0.630238 -0.297098 0.717277 0.303455 0.600810 255 255 255
-0.166558 0.242952 0.366975 0.630238 0.717277 0.297098 0.233709 0.623015 255 255 255
-0.232113 0.242952 0.366975 -0.630238 0.717277 0.297098 0.233709 0.600810 255 255 255
-0.166558 0.242952 0.306365 0.630238 0.717277 -0.297098 0.197346 0.623015 255 255 255
-0.232113 0.242952 0.306365 -0.630238 0.717277 -0.297098 0.197346 0.600810 255 255 255
-0.166558 0.200095 0.263508 0.630238 0.297098 -0.717277 0.160904 0.623015 255 255 255
-0.232113 0.200095 0.263507 -0.630238 0.297098 -0.717277 0.160904 0.600810 255 255 255
-0.232113 0.242952 -0.306365 -0.630238 0.717277 0.297098 0.162360 0.572150 255 255 255
-0.232113 0.242952 -0.366975 -0.630238 0.717277 -0.297098 0.198847 0.572150 255 255 255
-0.232113 0.200095 -0.409832 -0.630238 0.297098 -0.717277 0.224646 0.546350 255 255 255
-0.232113 0.139485 -0.409832 -0.630238 -0.297098 -0.717277 0.224646 0.509863 255 255 255
-0.232113 0.096627 -0.366975 -0.630238 -0.717277 -0.297098 0.198847 0.484063 255 255 255
-0.232113 0.096627 -0.306365 -0.630238 -0.717277 0.297098 0.162360 0.484063 255 255 255
-0.232113 0.139485 -0.263508 -0.630238 -0.297098 0.717277 0.136560 0.509863 255 255 255
-0.232113 0.200095 -0.263508 -0.630238 0.297098 0.717277 0.136560 0.546350 255 255 255
-0.232113 0.096627 0.306365 -0.630238 -0.717277 -0.297098 0.197798 0.486016 255 255 255
-0.232113 0.096627 0.366975 -0.630238 -0.717277 0.297098 0.161311 0.486016 255 255 255
-0.232113 0.139485 0.409832 -0.630238 -0.297098 0.717277 0.135511 0.511817 255 255 255
-0.232113 0.200095 0.409832 -0.630238 0.297098 0.717277 0.135511 0.548303 255 255 255
-0.232113 0.242952 0.366975 -0.630238 0.717277 0.297098 0.161311 0.574103 255 255 255
-0.232113 0.242952 0.306365 -0.630238 0.717277 -0.297098 0.197798 0.574103 255 255 255
-0.232113 0.200095 0.263507 -0.630238 0.297098 -0.717277 0.223598 0.548303 255 255 255
-0.232113 0.139485 0.263508 -0.630238 -0.297098 -0.717277 0.223597 0.511817 255 255 255
0.232113 0.139485 0.263508 0.630238 -0.297098 -0.717277 0.223597 0.511817 255 255 255
0.232113 0.200095 0.263507 0.630238 0.297098 -0.717277 0.223598 0.548303 255 255 255
0.232113 0.242952 0.306365 0.630238 0.717277 -0.297098 0.197798 0.574103 255 255 255
0.232113 0.242952 0.366975 0.630238 0.717277 0.297098 0.161311 0.574103 255 255 255
0.232113 0.200095 0.409832 0.630238 0.297098 0.717277 0.135511 0.548303 255 255 255
0.232113 0.139485 0.409832 0.630238 -0.297098 0.717277 0.135511 0.511817 255 255 255
0.232113 0.096627 0.366975 0.630238 -0.717277 0.297098 0.161311 0.486016 255 255 255
0.232113 0.096627 0.306365 0.630238 -0.717277 -0.297098 0.197798 0.486016 255 255 255
-0.166558 0.139485 -0.263508 0.630238 -0.297098 0.717277 0.124462 0.600810 255 255 255
-0.232113 0.139485 -0.263508 -0.630238 -0.297098 0.717277 0.124462 0.623015 255 255 255
-0.232113 0.096627 -0.306365 -0.630238 -0.717277 0.297098 0.088102 0.623015 255 255 255
-0.166558 0.096627 -0.306365 0.630238 -0.717277 0.297098 0.088102 0.600810 255 255 255
-0.232113 0.096627 -0.366975 -0.630238 -0.717277 -0.297098 0.052532 0.623015 255 255 255
-0.166558 0.096627 -0.366975 0.630238 -0.717277 -0.297098 0.052532 0.600810 255 255 255
-0.232113 0.139485 -0.409832 -0.630238 -0.297098 -0.717277 0.018360 0.623015 255 255 255
-0.166558 0.139485 -0.409832 0.630238 -0.297098 -0.717277 0.018360 0.600810 255 255 255
-0.166558 0.139485 -0.409832 0.630238 -0.297098 -0.717277 0.303455 0.600810 255 255 255
-0.232113 0.139485 -0.409832 -0.630238 -0.297098 -0.717277 0.303455 0.623015 255 255 255
-0.232113 0.200095 -0.409832 -0.630238 0.297098 -0.717277 0.269280 0.623015 255 255 255
-0.166558 0.200095 -0.409832 0.630238 0.297098 -0.717277 0.269280 0.600810 255 255 255
-0.232113 0.242952 -0.366975 -0.630238 0.717277 -0.297098 0.233709 0.623015 255 255 255
-0.166558 0.242952 -0.366975 0.630238 0.717277 -0.297098 0.233709 0.600810 255 255 255
-0.232113 0.242952 -0.306365 -0.630238 0.717277 0.297098 0.197346 0.623015 255 255 255
-0.166558 0.242952 -0.306365 0.630238 0.717277 0.297098 0.197346 0.600810 255 255 255
-0.232113 0.200095 -0.263508 -0.630238 0.297098 0.717277 0.160904 0.623015 255 255 255
-0.166558 0.200095 -0.263508 0.630238 0.297098 0.717277 0.160904 0.600810 255 255 255
0.264833 0.162493 0.319053 0.630238 -0.297098 -0.717277 0.124462 0.623015 255 255 255
0.264833 0.152173 0.329373 0.630238 -0.717277 -0.297098 0.088102 0.623015 255 255 255
-0.263504 0.152173 0.329373 -0.630238 -0.717277 -0.297098 0.088102 0.600810 255 255 255
-0.263504 0.162493 0.319053 -0.630238 -0.297098 -0.717277 0.124462 0.600810 255 255 255
0.264833 0.152173 0.343967 0.630238 -0.717277 0.297098 0.052532 0.623015 255 255 255
-0.263504 0.152173 0.343967 -0.630238 -0.717277 0.297098 0.052532 0.600810 255 255 255
0.264833 0.162493 0.354286 0.630238 -0.297098 0.717277 0.018360 0.623015 255 255 255
-0.263504 0.162493 0.354286 -0.630238 -0.297098 0.717277 0.018360 0.600810 255 255 255
0.264833 0.162493 0.354286 0.630238 -0.297098 0.717277 0.303455 0.623015 255 255 255
0.264833 0.177087 0.354286 0.630238 0.297098 0.717277 0.269280 0.623015 255 255 255
-0.263504 0.177087 0.354286 -0.630238 0.297098 0.717277 0.269280 0.600810 255 255 255
-0.263504 0.162493 0.354286 -0.630238 -0.297098 0.717277 0.303455 0.600810 255 255 255
0.264833 0.187406 0.343967 0.630238 0.717277 0.297098 0.233709 0.623015 255 255 255
-0.263504 0.187406 0.343967 -0.630238 0.717277 0.297098 0.233709 0.600810 255 255 255
0.264833 0.187406 0.329373 0.630238 0.717277 -0.297098 0.197346 0.623015 255 255 255
-0.263504 0.187406 0.329373 -0.630238 0.717277 -0.297098 0.197346 0.600810 255 255 255
0.264833 0.177087 0.319053 0.630238 0.297098 -0.717277 0.160904 0.623015 255 255 255
-0.263504 0.177087 0.319053 -0.630238 0.297098 -0.717277 0.160904 0.600810 255 255 255
-0.263504 0.187406 -0.329373 -0.630238 0.717277 0.297098 0.162360 0.572150 255 255 255
-0.263504 0.187406 -0.343967 -0.630238 0.717277 -0.297098 0.198847 0.572150 255 255 255
-0.263504 0.177087 -0.354287 -0.630238 0.297098 -0.717277 0.224646 0.546350 255 255 255
-0.263504 0.162493 -0.354287 -0.630238 -0.297098 -0.717277 0.224646 0.509863 255 255 255
-0.263504 0.152173 -0.343967 -0.630238 -0.717277 -0.297098 0.198847 0.484063 255 255 255
-0.263504 0.152173 -0.329373 -0.630238 -0.717277 0.297098 0.162360 0.484063 255 255 255
-0.263504 0.162493 -0.319053 -0.630238 -0.297098 0.717277 0.136560 0.509863 255 255 255
-0.263504 0.177087 -0.319053 -0.630238 0.297098 0.717277 0.136560 0.546350 255 255 255
-0.263504 0.152173 0.329373 -0.630238 -0.717277 -0.297098 0.197798 0.486016 255 255 255
-0.263504 0.152173 0.343967 -0.630238 -0.717277 0.297098 0.161311 0.486016 255 255 255
-0.263504 0.162493 0.354286 -0.630238 -0.297098 0.717277 0.135511 0.511817 255 255 255
-0.263504 0.177087 0.354286 -0.630238 0.297098 0.717277 0.135511 0.548303 255 255 255
-0.263504 0.187406 0.343967 -0.630238 0.717277 0.297098 0.161311 0.574103 255 255 255
-0.263504 0.187406 0.329373 -0.630238 0.717277 -0.297098 0.197798 0.574103 255 255 255
-0.263504 0.177087 0.319053 -0.630238 0.297098 -0.717277 0.223598 0.548303 255 255 255
-0.263504 0.162493 0.319053 -0.630238 -0.297098 -0.717277 0.223597 0.511817 255 255 255
0.264833 0.162493 -0.319053 0.630238 -0.297098 0.717277 0.124462 0.600810 255 255 255
-0.263504 0.162493 -0.319053 -0.630238 -0.297098 0.717277 0.124462 0.623015 255 255 255
-0.263504 0.152173 -0.329373 -0.630238 -0.717277 0.297098 0.088102 0.623015 255 255 255
0.264833 0.152173 -0.329373 0.630238 -0.717277 0.297098 0.088102 0.600810 255 255 255
-0.263504 0.152173 -0.343967 -0.630238 -0.717277 -0.297098 0.052532 0.623015 255 255 255
0.264833 0.152173 -0.343967 0.630238 -0.717277 -0.297098 0.052532 0.600810 255 255 255
-0.263504 0.162493 -0.354287 -0.630238 -0.297098 -0.717277 0.018360 0.623015 255 255 255
0.264833 0.162493 -0.354287 0.630238 -0.297098 -0.717277 0.018360 0.600810 255 255 255
0.264833 0.162493 -0.354287 0.630238 -0.297098 -0.717277 0.303455 0.600810 255 255 255
-0.263504 0.162493 -0.354287 -0.630238 -0.297098 -0.717277 0.303455 0.623015 255 255 255
-0.263504 0.177087 -0.354287 -0.630238 0.297098 -0.717277 0.269280 0.623015 255 255 255
0.264833 0.177087 -0.354287 0.630238 0.297098 -0.717277 0.269280 0.600810 255 255 255
-0.263504 0.187406 -0.343967 -0.630238 0.717277 -0.297098 0.233709 0.623015 255 255 255
0.264833 0.187406 -0.343967 0.630238 0.717277 -0.297098 0.233709 0.600810 255 255 255
-0.263504 0.187406 -0.329373 -0.630238 0.717277 0.297098 0.197346 0.623015 255 255 255
0.264833 0.187406 -0.329373 0.630238 0.717277 0.297098 0.197346 0.600810 255 255 255
-0.263504 0.177087 -0.319053 -0.630238 0.297098 0.717277 0.160904 0.623015 255 255 255
0.264833 0.177087 -0.319053 0.630238 0.297098 0.717277 0.160904 0.600810 255 255 255
0.012539 0.160234 0.512021 -0.922564 0.000000 -0.385843 0.033975 0.562400 255 255 255
0.012539 0.138391 0.512021 -0.922564 0.000000 -0.385843 0.068828 0.562400 255 255 255
0.007770 0.138391 0.523424 -0.922564 0.000000 -0.385843 0.068828 0.588910 255 255 255
0.007770 0.160234 0.523424 -0.922564 0.000000 -0.385843 0.033975 0.588910 255 255 255
0.012539 0.138391 0.512021 -0.917883 0.000000 0.396852 0.068828 0.562400 255 255 255
0.012539 0.160234 0.512021 -0.917883 0.000000 0.396852 0.033975 0.562400 255 255 255
0.007770 0.160234 0.500991 -0.917883 0.000000 0.396852 0.033975 0.535890 255 255 255
0.007770 0.138391 0.500991 -0.917883 0.000000 0.396852 0.068828 0.535890 255 255 255
0.025037 0.138391 0.546624 -0.000000 0.000000 1.000000 0.945153 0.785896 255 255 255
0.025037 0.160234 0.546624 -0.000000 0.000000 1.000000 0.945153 0.770743 255 255 255
-0.025037 0.160234 0.546624 -0.000000 0.000000 1.000000 0.993767 0.770743 255 255 255
-0.025037 0.138391 0.546624 -0.000000 0.000000 1.000000 0.993767 0.785896 255 255 255
0.036758 0.138391 0.512021 0.947140 0.000000 0.320820 0.916825 0.785896 255 255 255
0.036758 0.160234 0.512021 0.947140 0.000000 0.320820 0.916825 0.770742 255 255 255
0.025037 0.160234 0.546624 0.947140 0.000000 0.320820 0.945153 0.770743 255 255 255
0.025037 0.138391 0.546624 0.947140 0.000000 0.320820 0.945153 0.785896 255 255 255
-0.010168 0.172455 -0.664501 -0.000000 0.000000 -1.000000 0.111460 0.649759 255 255 255
-0.010168 0.194298 -0.664501 -0.000000 0.000000 -1.000000 0.111460 0.614906 255 255 255
0.010168 0.194298 -0.664501 -0.000000 0.000000 -1.000000 0.143910 0.614906 255 255 255
0.010168 0.172455 -0.664501 -0.000000 0.000000 -1.000000 0.143910 0.649759 255 255 255
-0.010975 0.172455 -0.648366 -0.998752 0.000000 -0.049951 0.023513 0.737044 255 255 255
-0.010975 0.194298 -0.648366 -0.998752 0.000000 -0.049951 0.023513 0.752198 255 255 255
-0.010168 0.194298 -0.664501 -0.998752 0.000000 -0.049951 0.012306 0.752198 255 255 255
-0.010168 0.172455 -0.664501 -0.998752 0.000000 -0.049951 0.012306 0.737044 255 255 255
-0.036758 0.138391 0.512021 -0.946075 0.000000 -0.323947 0.916814 0.737044 255 255 255
-0.036758 0.160234 0.512021 -0.946075 0.000000 -0.323947 0.916814 0.752201 255 255 255
-0.025037 0.160234 0.477791 -0.946075 0.000000 -0.323947 0.888480 0.752201 255 255 255
-0.025037 0.138391 0.477791 -0.946075 0.000000 -0.323947 0.888480 0.737044 255 255 255
0.035037 0.172455 -0.482907 0.999946 0.000000 0.010409 0.142685 0.785896 255 255 255
0.035037 0.194298 -0.482907 0.999946 0.000000 0.010409 0.142685 0.770740 255 255 255
0.025037 0.160234 0.477791 0.999946 0.000000 0.010409 0.888497 0.770742 255 255 255
0.025037 0.138391 0.477791 0.999946 0.000000 0.010409 0.888497 0.785896 255 255 255
-0.035037 0.172455 -0.482907 0.000000 -0.999372 -0.035435 0.155147 0.965950 255 255 255
0.035037 0.172455 -0.482907 0.000000 -0.999372 -0.035435 0.155147 0.917329 255 255 255
0.025037 0.138391 0.477791 0.000000 -0.999372 -0.035435 0.900921 0.917328 255 255 255
-0.025037 0.138391 0.477791 0.000000 -0.999372 -0.035435 0.900921 0.965949 255 255 255
0.035037 0.194298 -0.482907 0.000000 0.999372 0.035435 0.138304 0.882525 255 255 255
-0.035037 0.194298 -0.482907 0.000000 0.999372 0.035435 0.138304 0.833904 255 255 255
-0.025037 0.160234 0.477791 0.000000 0.999372 0.035435 0.884078 0.833905 255 255 255
0.025037 0.160234 0.477791 0.000000 0.999372 0.035435 0.884078 0.882525 255 255 255
-0.025037 0.138391 0.546624 -0.947140 0.000000 0.320820 0.945149 0.737044 255 255 255
-0.025037 0.160234 0.546624 -0.947140 0.000000 0.320820 0.945149 0.752201 255 255 255
-0.036758 0.160234 0.512021 -0.947140 0.000000 0.320820 0.916814 0.752201 255 255 255
-0.036758 0.138391 0.512021 -0.947140 0.000000 0.320820 0.916814 0.737044 255 255 255
0.025037 0.138391 0.477791 0.946075 0.000000 -0.323947 0.888497 0.785896 255 255 255
0.025037 0.160234 0.477791 0.946075 0.000000 -0.323947 0.888497 0.770742 255 255 255
0.036758 0.160234 0.512021 0.946075 0.000000 -0.323947 0.916825 0.770742 255 255 255
0.036758 0.138391 0.512021 0.946075 0.000000 -0.323947 0.916825 0.785896 255 255 255
-0.007770 0.160234 0.500991 0.000000 0.000000 1.000000 0.033975 0.479182 255 255 255
-0.007770 0.138391 0.500991 0.000000 0.000000 1.000000 0.068828 0.479182 255 255 255
0.007770 0.138391 0.500991 0.000000 0.000000 1.000000 0.068828 0.535890 255 255 255
0.007770 0.160234 0.500991 0.000000 0.000000 1.000000 0.033975 0.535890 255 255 255
-0.007770 0.138391 0.500991 0.917883 0.000000 0.396852 0.068828 0.698638 255 255 255
-0.007770 0.160234 0.500991 0.917883 0.000000 0.396852 0.033975 0.698638 255 255 255
-0.012539 0.160234 0.512021 0.917883 0.000000 0.396852 0.033975 0.672128 255 255 255
-0.012539 0.138391 0.512021 0.917883 0.000000 0.396852 0.068828 0.672128 255 255 255
0.007770 0.160234 0.523424 0.000000 1.000000 0.000000 0.922261 0.870545 255 255 255
-0.007770 0.160234 0.523424 0.000000 1.000000 0.000000 0.922261 0.845886 255 255 255
-0.025037 0.160234 0.546624 0.000000 1.000000 0.000000 0.938358 0.833905 255 255 255
0.025037 0.160234 0.546624 0.000000 1.000000 0.000000 0.938357 0.882525 255 255 255
-0.007770 0.138391 0.523424 0.000000 -1.000000 -0.000000 0.939103 0.953968 255 255 255
0.007770 0.138391 0.523424 0.000000 -1.000000 -0.000000 0.939103 0.929309 255 255 255
0.025037 0.138391 0.546624 0.000000 -1.000000 -0.000000 0.955200 0.917328 255 255 255
-0.025037 0.138391 0.546624 0.000000 -1.000000 -0.000000 0.955200 0.965949 255 255 255
0.012539 0.160234 0.512021 0.000000 1.000000 0.000000 0.911218 0.873853 255 255 255
0.036758 0.160234 0.512021 0.000000 1.000000 0.000000 0.911218 0.890658 255 255 255
-0.012539 0.138391 0.512021 0.000000 -1.000000 0.000000 0.928060 0.957277 255 255 255
-0.036758 0.138391 0.512021 0.000000 -1.000000 0.000000 0.928060 0.974081 255 255 255
0.012539 0.138391 0.512021 -0.000000 -1.000000 -0.000001 0.928060 0.926000 255 255 255
0.007770 0.138391 0.500991 -0.000000 -1.000000 -0.000001 0.917018 0.929309 255 255 255
0.025037 0.138391 0.477791 -0.000000 -1.000000 -0.000001 0.900921 0.917328 255 255 255
0.036758 0.138391 0.512021 -0.000000 -1.000000 -0.000001 0.928060 0.909196 255 255 255
-0.012539 0.160234 0.512021 -0.000000 1.000000 0.000001 0.911218 0.842577 255 255 255
-0.007770 0.160234 0.500991 -0.000000 1.000000 0.000001 0.900175 0.845886 255 255 255
-0.025037 0.160234 0.477791 -0.000000 1.000000 0.000001 0.884078 0.833905 255 255 255
-0.036758 0.160234 0.512021 -0.000000 1.000000 0.000001 0.911218 0.825773 255 255 255
0.007770 0.138391 0.500991 0.000000 -1.000000 0.000000 0.917018 0.929309 255 255 255
-0.007770 0.138391 0.500991 0.000000 -1.000000 0.000000 0.917018 0.953968 255 255 255
-0.025037 0.138391 0.477791 0.000000 -1.000000 0.000000 0.900921 0.965949 255 255 255
0.025037 0.138391 0.477791 0.000000 -1.000000 0.000000 0.900921 0.917328 255 255 255
-0.007770 0.160234 0.500991 0.000000 1.000000 -0.000000 0.900175 0.845886 255 255 255
0.007770 0.160234 0.500991 0.000000 1.000000 -0.000000 0.900175 0.870545 255 255 255
0.025037 0.160234 0.477791 0.000000 1.000000 -0.000000 0.884078 0.882525 255 255 255
-0.025037 0.160234 0.477791 0.000000 1.000000 -0.000000 0.884078 0.833905 255 255 255
0.007770 0.160234 0.500991 0.000000 1.000000 0.000001 0.900175 0.870545 255 255 255
0.012539 0.160234 0.512021 0.000000 1.000000 0.000001 0.911218 0.873853 255 255 255
0.036758 0.160234 0.512021 0.000000 1.000000 0.000001 0.911218 0.890658 255 255 255
0.025037 0.160234 0.477791 0.000000 1.000000 0.000001 0.884078 0.882525 255 255 255
-0.007770 0.138391 0.500991 0.000000 -1.000000 -0.000001 0.917018 0.953968 255 255 255
-0.012539 0.138391 0.512021 0.000000 -1.000000 -0.000001 0.928060 0.957277 255 255 255
-0.036758 0.138391 0.512021 0.000000 -1.000000 -0.000001 0.928060 0.974081 255 255 255
-0.025037 0.138391 0.477791 0.000000 -1.000000 -0.000001 0.900921 0.965949 255 255 255
0.012539 0.138391 0.512021 -0.000000 -1.000000 0.000000 0.928060 0.926000 255 255 255
0.036758 0.138391 0.512021 -0.000000 -1.000000 0.000000 0.928060 0.909196 255 255 255
-0.012539 0.160234 0.512021 -0.000000 1.000000 0.000000 0.911218 0.842577 255 255 255
-0.036758 0.160234 0.512021 -0.000000 1.000000 0.000000 0.911218 0.825773 255 255 255
0.007770 0.160234 0.523424 0.000000 0.000000 -1.000000 0.033975 0.588910 255 255 255
0.007770 0.138391 0.523424 0.000000 0.000000 -1.000000 0.068828 0.588910 255 255 255
-0.007770 0.138391 0.523424 0.000000 0.000000 -1.000000 0.068828 0.645618 255 255 255
-0.007770 0.160234 0.523424 0.000000 0.000000 -1.000000 0.033975 0.645618 255 255 255
-0.012539 0.138391 0.512021 0.922564 0.000000 -0.385843 0.068828 0.672128 255 255 255
-0.012539 0.160234 0.512021 0.922564 0.000000 -0.385843 0.033975 0.672128 255 255 255
-0.007770 0.160234 0.523424 0.922564 0.000000 -0.385843 0.033975 0.645618 255 255 255
-0.007770 0.138391 0.523424 0.922564 0.000000 -0.385843 0.068828 0.645618 255 255 255
0.018248 0.194298 -0.502957 0.000000 1.000000 -0.000001 0.124393 0.870876 255 255 255
-0.018248 0.194298 -0.502957 0.000000 1.000000 -0.000001 0.124393 0.845553 255 255 255
-0.035037 0.194298 -0.482907 0.000000 1.000000 -0.000001 0.138304 0.833904 255 255 255
0.035037 0.194298 -0.482907 0.000000 1.000000 -0.000001 0.138304 0.882525 255 255 255
-0.018248 0.172455 -0.502957 0.000000 -1.000000 0.000001 0.141235 0.954301 255 255 255
0.018248 0.172455 -0.502957 0.000000 -1.000000 0.000001 0.141235 0.928979 255 255 255
0.035037 0.172455 -0.482907 0.000000 -1.000000 0.000001 0.155147 0.917329 255 255 255
-0.035037 0.172455 -0.482907 0.000000 -1.000000 0.000001 0.155147 0.965950 255 255 255
0.018248 0.172455 -0.502957 0.766683 0.000000 -0.642025 0.124539 0.785896 255 255 255
0.018248 0.194298 -0.502957 0.766683 0.000000 -0.642025 0.124539 0.770740 255 255 255
0.035037 0.194298 -0.482907 0.766683 0.000000 -0.642025 0.142685 0.770740 255 255 255
0.035037 0.172455 -0.482907 0.766683 0.000000 -0.642025 0.142685 0.785896 255 255 255
-0.025037 0.138391 0.477791 -0.999946 0.000000 0.010409 0.888480 0.737044 255 255 255
-0.025037 0.160234 0.477791 -0.999946 0.000000 0.010409 0.888480 0.752201 255 255 255
-0.035037 0.194298 -0.482907 -0.999946 0.000000 0.010409 0.142660 0.752199 255 255 255
-0.035037 0.172455 -0.482907 -0.999946 0.000000 0.010409 0.142660 0.737045 255 255 255
0.010975 0.172455 -0.648366 0.998752 0.000000 -0.049951 0.023515 0.785896 255 255 255
0.010975 0.194298 -0.648366 0.998752 0.000000 -0.049951 0.023515 0.770740 255 255 255
0.018248 0.194298 -0.502957 0.998752 0.000000 -0.049951 0.124539 0.770740 255 255 255
0.018248 0.172455 -0.502957 0.998752 0.000000 -0.049951 0.124539 0.785896 255 255 255
-0.010975 0.172455 -0.648366 0.000000 -1.000000 -0.000000 0.040343 0.949255 255 255 255
0.010975 0.172455 -0.648366 0.000000 -1.000000 -0.000000 0.040343 0.934025 255 255 255
0.018248 0.172455 -0.502957 0.000000 -1.000000 -0.000000 0.141235 0.928979 255 255 255
-0.018248 0.172455 -0.502957 0.000000 -1.000000 -0.000000 0.141235 0.954301 255 255 255
0.010975 0.194298 -0.648366 0.000000 1.000000 0.000000 0.023501 0.865830 255 255 255
-0.010975 0.194298 -0.648366 0.000000 1.000000 0.000000 0.023501 0.850600 255 255 255
-0.018248 0.194298 -0.502957 0.000000 1.000000 0.000000 0.124393 0.845553 255 255 255
0.018248 0.194298 -0.502957 0.000000 1.000000 0.000000 0.124393 0.870876 255 255 255
-0.035037 0.172455 -0.482907 -0.766683 -0.000000 -0.642025 0.142660 0.737045 255 255 255
-0.035037 0.194298 -0.482907 -0.766683 -0.000000 -0.642025 0.142660 0.752199 255 255 255
-0.018248 0.194298 -0.502957 -0.766683 -0.000000 -0.642025 0.124518 0.752199 255 255 255
-0.018248 0.172455 -0.502957 -0.766683 -0.000000 -0.642025 0.124518 0.737045 255 255 255
0.010168 0.194298 -0.664501 0.000000 1.000000 0.000000 0.012306 0.865270 255 255 255
-0.010168 0.194298 -0.664501 0.000000 1.000000 0.000000 0.012306 0.851159 255 255 255
0.010975 0.172455 -0.648366 0.000000 -0.103804 0.994598 0.040343 0.934025 255 255 255
-0.010975 0.172455 -0.648366 0.000000 -0.103804 0.994598 0.040343 0.949255 255 255 255
-0.006649 0.141987 -0.651546 0.000000 -0.103804 0.994598 0.019088 0.946254 255 255 255
0.006649 0.141987 -0.651546 0.000000 -0.103804 0.994598 0.019088 0.937027 255 255 255
0.010168 0.172455 -0.664501 0.998752 0.000000 -0.049951 0.012306 0.785896 255 255 255
0.010168 0.194298 -0.664501 0.998752 0.000000 -0.049951 0.012306 0.770740 255 255 255
-0.018248 0.172455 -0.502957 -0.998752 -0.000000 -0.049951 0.124518 0.737045 255 255 255
-0.018248 0.194298 -0.502957 -0.998752 -0.000000 -0.049951 0.124518 0.752199 255 255 255
-0.006160 0.141987 -0.661321 0.000000 -1.000000 -0.000000 0.012306 0.945914 255 255 255
0.006160 0.141987 -0.661321 0.000000 -1.000000 -0.000000 0.012306 0.937366 255 255 255
0.006649 0.141987 -0.651546 0.000000 -1.000000 -0.000000 0.019088 0.937027 255 255 255
-0.006649 0.141987 -0.651546 0.000000 -1.000000 -0.000000 0.019088 0.946254 255 255 255
-0.010975 0.172455 -0.648366 -0.989562 -0.135342 -0.049492 0.023513 0.737044 255 255 255
-0.010168 0.172455 -0.664501 -0.989562 -0.135342 -0.049492 0.012306 0.737044 255 255 255
-0.006160 0.141987 -0.661321 -0.989562 -0.135342 -0.049492 0.014370 0.715711 255 255 255
-0.006649 0.141987 -0.651546 -0.989562 -0.135342 -0.049492 0.021160 0.715711 255 255 255
-0.010168 0.172455 -0.664501 0.000000 -0.103804 -0.994598 0.111460 0.649759 255 255 255
0.010168 0.172455 -0.664501 0.000000 -0.103804 -0.994598 0.143910 0.649759 255 255 255
0.006160 0.141987 -0.661321 0.000000 -0.103804 -0.994598 0.137514 0.698638 255 255 255
-0.006160 0.141987 -0.661321 0.000000 -0.103804 -0.994598 0.117856 0.698638 255 255 255
0.010168 0.172455 -0.664501 0.989562 -0.135342 -0.049492 0.012306 0.785896 255 255 255
0.010975 0.172455 -0.648366 0.989562 -0.135342 -0.049492 0.023515 0.785896 255 255 255
0.006649 0.141987 -0.651546 0.989562 -0.135342 -0.049492 0.021162 0.807234 255 255 255
0.006160 0.141987 -0.661321 0.989562 -0.135342 -0.049492 0.014371 0.807234 255 255 255
0.166558 0.139485 -0.263508 -0.630238 -0.297098 0.717277 0.124462 0.623015 255 255 255
0.166558 0.096627 -0.306365 -0.630238 -0.717277 0.297098 0.088102 0.623015 255 255 255
0.232113 0.096627 -0.306365 0.630238 -0.717277 0.297098 0.088102 0.600810 255 255 255
0.232113 0.139485 -0.263508 0.630238 -0.297098 0.717277 0.124462 0.600810 255 255 255
0.166558 0.096627 -0.366975 -0.630238 -0.717277 -0.297098 0.052532 0.623015 255 255 255
0.232113 0.096627 -0.366975 0.630238 -0.717277 -0.297098 0.052532 0.600810 255 255 255
0.166558 0.139485 -0.409832 -0.630238 -0.297098 -0.717277 0.018360 0.623015 255 255 255
0.232113 0.139485 -0.409832 0.630238 -0.297098 -0.717277 0.018360 0.600810 255 255 255
0.166558 0.139485 -0.409832 -0.630238 -0.297098 -0.717277 0.303455 0.623015 255 255 255
0.166558 0.200095 -0.409832 -0.630238 0.297098 -0.717277 0.269280 0.623015 255 255 255
0.232113 0.200095 -0.409832 0.630238 0.297098 -0.717277 0.269280 0.600810 255 255 255
0.232113 0.139485 -0.409832 0.630238 -0.297098 -0.717277 0.303455 0.600810 255 255 255
0.166558 0.242952 -0.366975 -0.630238 0.717277 -0.297098 0.233709 0.623015 255 255 255
0.232113 0.242952 -0.366975 0.630238 0.717277 -0.297098 0.233709 0.600810 255 255 255
0.166558 0.242952 -0.306365 -0.630238 0.717277 0.297098 0.197346 0.623015 255 255 255
0.232113 0.242952 -0.306365 0.630238 0.717277 0.297098 0.197346 0.600810 255 255 255
0.166558 0.200095 -0.263508 -0.630238 0.297098 0.717277 0.160904 0.623015 255 255 255
0.232113 0.200095 -0.263508 0.630238 0.297098 0.717277 0.160904 0.600810 255 255 255
0.232113 0.139485 -0.409832 0.630238 -0.297098 -0.717277 0.224646 0.509863 255 255 255
0.232113 0.200095 -0.409832 0.630238 0.297098 -0.717277 0.224646 0.546350 255 255 255
0.232113 0.242952 -0.366975 0.630238 0.717277 -0.297098 0.198847 0.572150 255 255 255
0.232113 0.242952 -0.306365 0.630238 0.717277 0.297098 0.162360 0.572150 255 255 255
0.232113 0.200095 -0.263508 0.630238 0.297098 0.717277 0.136560 0.546350 255 255 255
0.232113 0.139485 -0.263508 0.630238 -0.297098 0.717277 0.136560 0.509863 255 255 255
0.232113 0.096627 -0.306365 0.630238 -0.717277 0.297098 0.162360 0.484063 255 255 255
0.232113 0.096627 -0.366975 0.630238 -0.717277 -0.297098 0.198847 0.484063 255 255 255
0.166558 0.242952 -0.366975 -0.630238 0.717277 -0.297098 0.198847 0.572150 255 255 255
0.166558 0.200095 -0.409832 -0.630238 0.297098 -0.717277 0.224646 0.546350 255 255 255
0.166558 0.139485 -0.409832 -0.630238 -0.297098 -0.717277 0.224646 0.509863 255 255 255
0.166558 0.096627 -0.366975 -0.630238 -0.717277 -0.297098 0.198847 0.484063 255 255 255
0.166558 0.096627 -0.306365 -0.630238 -0.717277 0.297098 0.162360 0.484063 255 255 255
0.166558 0.139485 -0.263508 -0.630238 -0.297098 0.717277 0.136560 0.509863 255 255 255
0.166558 0.200095 -0.263508 -0.630238 0.297098 0.717277 0.136560 0.546350 255 255 255
0.166558 0.242952 -0.306365 -0.630238 0.717277 0.297098 0.162360 0.572150 255 255 255
-0.000000 0.853583 0.000000 0.000000 1.000000 0.000000 0.756448 0.498399 255 255 255
-0.000000 0.853583 0.362740 0.000000 0.783593 0.621235 0.999133 0.498399 255 255 255
0.223283 0.746056 0.362740 0.612629 0.488571 0.621235 0.999133 0.332951 255 255 255
0.223283 0.746056 0.000000 0.781823 0.623463 0.000000 0.756448 0.332951 255 255 255
0.278430 0.504443 0.362740 0.763939 -0.174352 0.621235 0.999133 0.166727 255 255 255
0.278430 0.504443 -0.000000 0.974914 -0.222510 0.000000 0.756448 0.166727 255 255 255
0.123913 0.310685 0.362740 0.448347 -0.357524 0.819208 0.999133 0.000891 0 0 0
0.123913 0.310685 -0.000000 0.781823 -0.623463 0.000000 0.756448 0.000891 0 0 0
-0.123913 0.310685 -0.000000 -0.781823 -0.623463 0.000000 0.756448 0.498399 0 0 0
-0.123913 0.310685 0.362740 -0.448347 -0.357524 0.819208 0.999133 0.498399 0 0 0
-0.278430 0.504443 0.362740 -0.763939 -0.174352 0.621235 0.999133 0.332951 255 255 255
-0.278430 0.504443 -0.000000 -0.974914 -0.222510 0.000000 0.756448 0.332951 255 255 255
0.278430 0.504443 0.362740 0.763939 -0.174352 0.621235 0.307906 0.167316 255 255 255
0.223283 0.746056 0.362740 0.612629 0.488571 0.621235 0.250745 0.286012 255 255 255
-0.000000 0.853583 0.362740 0.000000 0.783593 0.621235 0.122304 0.315328 255 255 255
-0.223283 0.746056 0.362740 -0.612629 0.488571 0.621235 0.019303 0.233187 255 255 255
-0.278430 0.504443 0.362740 -0.763939 -0.174352 0.621235 0.019303 0.101444 255 255 255
-0.123913 0.310685 0.362740 -0.448347 -0.357524 0.819208 0.122304 0.019303 2 2 2
0.123913 0.310685 0.362740 0.448347 -0.357524 0.819208 0.250745 0.048619 0 0 0
-0.223283 0.746056 0.362740 -0.612629 0.488571 0.621235 0.999133 0.166727 255 255 255
-0.223283 0.746056 0.000000 -0.781823 0.623463 0.000000 0.756448 0.166727 255 255 255
-0.000000 0.853583 0.362740 0.000000 0.783593 0.621235 0.999133 0.000891 255 255 255
-0.000000 0.853583 0.000000 0.000000 1.000000 0.000000 0.756448 0.000891 255 255 255
-0.223283 0.746056 -0.362740 -0.612629 0.488571 -0.621235 0.033117 0.079354 255 255 255
-0.000000 0.853583 -0.362740 0.000000 0.783593 -0.621235 0.151814 0.022192 255 255 255
0.223283 0.746056 -0.362740 0.612629 0.488571 -0.621235 0.270511 0.079354 255 255 255
0.278430 0.504443 -0.362740 0.763939 -0.174352 -0.621235 0.299826 0.207794 255 255 255
0.123913 0.310685 -0.362740 0.448347 -0.357524 -0.819208 0.217685 0.310795 0 0 0
-0.123913 0.310685 -0.362740 -0.448347 -0.357524 -0.819208 0.085942 0.310795 0 0 0
-0.278430 0.504443 -0.362740 -0.763939 -0.174352 -0.621235 0.003801 0.207794 255 255 255
0.000000 0.794164 -0.266906 0.000000 0.000000 -0.999969 0.528809 0.256950 0 0 0
0.000000 0.987948 -0.266906 0.000000 0.609973 -0.792383 0.719452 0.256950 255 255 255
0.069282 0.987948 -0.226906 0.686239 0.609973 -0.396191 0.719452 0.335654 255 255 255
0.069282 0.794164 -0.226906 0.866024 0.000000 -0.499985 0.528809 0.335654 0 0 0
0.069282 0.987948 -0.146906 0.686239 0.609973 0.396191 0.719452 0.414358 255 255 255
0.069282 0.794164 -0.146906 0.866024 0.000000 0.499985 0.528809 0.414358 0 0 0
0.069282 0.794164 -0.146906 0.866024 0.000000 0.499985 0.528809 0.414358 1 1 1
-0.000000 0.987948 -0.106906 0.000000 0.609973 0.792383 0.719452 0.493061 255 255 255
-0.000000 0.794164 -0.106906 0.000000 0.000000 1.000000 0.528809 0.493061 0 0 0
-0.000000 0.794164 -0.106906 0.000000 0.000000 1.000000 0.528809 0.020839 0 0 0
-0.000000 0.987948 -0.106906 0.000000 0.609973 0.792383 0.719452 0.020839 255 255 255
-0.069282 0.987948 -0.146906 -0.686239 0.609973 0.396191 0.719452 0.099543 255 255 255
-0.069282 0.794164 -0.146906 -0.866024 0.000000 0.499985 0.528809 0.099543 0 0 0
0.044724 0.987948 -0.161085 0.000000 1.000000 0.000000 0.136053 0.769424 255 255 255
0.044724 0.987948 -0.212727 0.000000 1.000000 0.000000 0.112613 0.728825 255 255 255
0.000000 0.987948 -0.238549 0.000000 1.000000 0.000000 0.136053 0.688226 255 255 255
-0.044724 0.987948 -0.212727 0.000000 1.000000 0.000000 0.182933 0.688226 255 255 255
-0.044724 0.987948 -0.161085 0.000000 1.000000 0.000000 0.206373 0.728825 255 255 255
-0.000000 0.987948 -0.135263 0.000000 1.000000 0.000000 0.182933 0.769424 255 255 255
-0.069282 0.987948 -0.226906 -0.686239 0.609973 -0.396191 0.719452 0.178247 255 255 255
-0.069282 0.794164 -0.226906 -0.866024 0.000000 -0.499985 0.528809 0.178247 0 0 0
0.000000 0.794164 -0.266906 0.000000 0.000000 -0.999969 0.528809 0.256950 11 11 11
-0.223283 0.746056 -0.362740 -0.612629 0.488571 -0.621235 0.999133 0.166727 255 255 255
-0.000000 0.853583 -0.362740 0.000000 0.783593 -0.621235 0.999133 0.000891 255 255 255
-0.278430 0.504443 -0.362740 -0.763939 -0.174352 -0.621235 0.999133 0.332951 255 255 255
-0.123913 0.310685 -0.362740 -0.448347 -0.357524 -0.819208 0.999133 0.498399 0 0 0
0.278430 0.504443 -0.362740 0.763939 -0.174352 -0.621235 0.999133 0.166727 255 255 255
0.123913 0.310685 -0.362740 0.448347 -0.357524 -0.819208 0.999133 0.000891 0 0 0
0.223283 0.746056 -0.362740 0.612629 0.488571 -0.621235 0.999133 0.332951 255 255 255
-0.000000 0.853583 -0.362740 0.000000 0.783593 -0.621235 0.999133 0.498399 255 255 255
0.000000 0.987948 -0.238549 0.000000 1.000000 0.000000 0.181933 0.356534 255 255 255
0.044724 0.987948 -0.212727 0.000000 1.000000 0.000000 0.159417 0.395533 255 255 255
0.069282 0.987948 -0.226906 0.686239 0.609973 -0.396191 0.134690 0.395533 255 255 255
0.000000 0.987948 -0.266906 0.000000 0.609973 -0.792383 0.169570 0.335120 255 255 255
0.044724 0.987948 -0.161085 0.000000 1.000000 0.000000 0.181933 0.434531 255 255 255
0.069282 0.987948 -0.146906 0.686239 0.609973 0.396191 0.169569 0.455946 255 255 255
-0.000000 0.987948 -0.135263 0.000000 1.000000 0.000000 0.226965 0.434531 255 255 255
-0.000000 0.987948 -0.106906 0.000000 0.609973 0.792383 0.239328 0.455946 255 255 255
-0.044724 0.987948 -0.161085 0.000000 1.000000 0.000000 0.249480 0.395533 255 255 255
-0.069282 0.987948 -0.146906 -0.686239 0.609973 0.396191 0.274208 0.395533 255 255 255
-0.044724 0.987948 -0.212727 0.000000 1.000000 0.000000 0.226965 0.356534 255 255 255
-0.069282 0.987948 -0.226906 -0.686239 0.609973 -0.396191 0.239328 0.335120 255 255 255
-0.245172 0.210230 0.450942 -1.000000 0.000000 0.000000 0.830983 0.602936 255 255 255
-0.245172 0.311485 0.450942 -1.000000 0.000000 0.000000 0.830983 0.679031 255 255 255
-0.245172 0.311485 -0.450942 -1.000000 0.000000 0.000000 0.153204 0.679031 255 255 255
-0.245172 0.210230 -0.450942 -1.000000 0.000000 0.000000 0.153204 0.602936 255 255 255
-0.245172 0.210230 -0.450942 -0.000000 0.000000 -1.000000 0.127890 0.503249 255 255 255
-0.245172 0.311485 -0.450942 -0.000000 0.000000 -1.000000 0.203985 0.503249 255 255 255
0.245172 0.311485 -0.450942 -0.000000 0.000000 -1.000000 0.203984 0.871750 255 255 255
0.245172 0.210230 -0.450942 -0.000000 0.000000 -1.000000 0.127889 0.871750 255 255 255
0.245172 0.210230 -0.450942 1.000000 0.000000 0.000000 0.112188 0.803314 255 255 255
0.245172 0.311485 -0.450942 1.000000 0.000000 0.000000 0.112188 0.727219 255 255 255
0.245172 0.311485 0.450942 1.000000 0.000000 0.000000 0.789966 0.727219 255 255 255
0.245172 0.210230 0.450942 1.000000 0.000000 0.000000 0.789966 0.803314 255 255 255
0.245172 0.210230 0.450942 -0.000000 0.000000 1.000000 0.190280 0.863938 255 255 255
0.245172 0.311485 0.450942 -0.000000 0.000000 1.000000 0.114185 0.863938 255 255 255
-0.245172 0.311485 0.450942 -0.000000 0.000000 1.000000 0.114186 0.495438 255 255 255
-0.245172 0.210230 0.450942 -0.000000 0.000000 1.000000 0.190281 0.495438 255 255 255
0.245172 0.311485 -0.450942 0.000000 1.000000 0.000000 0.032704 0.905767 255 255 255
-0.245172 0.311485 -0.450942 0.000000 1.000000 0.000000 0.032705 0.582513 255 255 255
-0.245172 0.311485 0.450942 0.000000 1.000000 0.000000 0.627263 0.582514 255 255 255
0.245172 0.311485 0.450942 0.000000 1.000000 0.000000 0.627262 0.905768 255 255 255
-0.061590 0.311112 -0.361976 -1.000000 0.000000 0.000000 0.500395 0.690060 4 4 4
-0.061590 0.392960 -0.361976 -1.000000 0.000000 0.000000 0.572683 0.690060 0 0 0
-0.061590 0.392960 -0.432358 -1.000000 0.000000 0.000000 0.572683 0.752220 255 255 255
-0.061590 0.311112 -0.432358 -1.000000 0.000000 0.000000 0.500395 0.752220 255 255 255
-0.061590 0.311112 -0.432358 0.000000 0.000000 -1.000000 0.572683 0.824508 255 255 255
-0.061590 0.392960 -0.432358 0.000000 0.000000 -1.000000 0.572683 0.752220 255 255 255
0.061590 0.392960 -0.432358 0.000000 0.000000 -1.000000 0.681475 0.752221 164 164 164
0.061590 0.311112 -0.432358 0.000000 0.000000 -1.000000 0.681475 0.824508 255 255 255
0.061590 0.311112 -0.432358 1.000000 0.000000 0.000000 0.753763 0.752221 255 255 255
0.061590 0.392960 -0.432358 1.000000 0.000000 0.000000 0.681475 0.752221 255 255 255
0.061590 0.392960 -0.361976 1.000000 0.000000 0.000000 0.681475 0.690060 0 0 0
0.061590 0.311112 -0.361976 1.000000 0.000000 0.000000 0.753763 0.690060 0 0 0
0.061590 0.311112 -0.361976 0.000000 -0.000000 1.000000 0.681475 0.617772 255 255 255
0.061590 0.392960 -0.361976 0.000000 -0.000000 1.000000 0.681475 0.690060 255 255 255
-0.061590 0.392960 -0.361976 0.000000 -0.000000 1.000000 0.572683 0.690060 255 255 255
-0.061590 0.311112 -0.361976 0.000000 -0.000000 1.000000 0.572683 0.617772 255 255 255
0.061590 0.392960 -0.432358 0.000000 1.000000 0.000000 0.681475 0.752221 164 164 164
-0.061590 0.392960 -0.432358 0.000000 1.000000 0.000000 0.572683 0.752220 255 255 255
-0.061590 0.392960 -0.361976 0.000000 1.000000 0.000000 0.572683 0.690060 0 0 0
0.061590 0.392960 -0.361976 0.000000 1.000000 0.000000 0.681475 0.690060 0 0 0
-0.061590 0.311112 0.430887 -1.000000 0.000000 0.000000 0.500395 0.690934 255 255 255
-0.061590 0.392960 0.430887 -1.000000 0.000000 0.000000 0.572683 0.690934 255 255 255
-0.061590 0.392960 0.360505 -1.000000 0.000000 0.000000 0.572683 0.753094 0 0 0
-0.061590 0.311112 0.360505 -1.000000 0.000000 0.000000 0.500395 0.753094 0 0 0
-0.061590 0.311112 0.360505 0.000000 0.000000 -1.000000 0.572683 0.825382 255 255 255
-0.061590 0.392960 0.360505 0.000000 0.000000 -1.000000 0.572683 0.753094 255 255 255
0.061590 0.392960 0.360505 0.000000 0.000000 -1.000000 0.681475 0.753094 255 255 255
0.061590 0.311112 0.360505 0.000000 0.000000 -1.000000 0.681475 0.825382 255 255 255
0.061590 0.311112 0.360505 1.000000 0.000000 0.000000 0.753763 0.753094 0 0 0
0.061590 0.392960 0.360505 1.000000 0.000000 0.000000 0.681475 0.753094 0 0 0
0.061590 0.392960 0.430887 1.000000 0.000000 0.000000 0.681475 0.690934 255 255 255
0.061590 0.311112 0.430887 1.000000 0.000000 0.000000 0.753763 0.690934 255 255 255
0.061590 0.311112 0.430887 0.000000 -0.000000 1.000000 0.681475 0.618646 255 255 255
0.061590 0.392960 0.430887 0.000000 -0.000000 1.000000 0.681475 0.690934 255 255 255
-0.061590 0.392960 0.430887 0.000000 -0.000000 1.000000 0.572683 0.690934 255 255 255
-0.061590 0.311112 0.430887 0.000000 -0.000000 1.000000 0.572683 0.618646 255 255 255
0.061590 0.392960 0.360505 0.000000 1.000000 0.000000 0.681475 0.753094 0 0 0
-0.061590 0.392960 0.360505 0.000000 1.000000 0.000000 0.572683 0.753094 0 0 0
-0.061590 0.392960 0.430887 0.000000 1.000000 0.000000 0.572683 0.690934 255 255 255
0.061590 0.392960 0.430887 0.000000 1.000000 0.000000 0.681475 0.690934 255 255 255
4 0 1 2 3
4 3 2 4 5
4 5 4 6 7
4 8 9 10 11
4 11 10 12 13
4 13 12 14 15
4 15 14 16 17
4 1 0 17 16
4 18 19 20 21
4 19 22 23 20
4 22 24 25 23
4 26 27 28 29
4 27 30 31 28
4 30 32 33 31
4 32 34 35 33
4 34 18 21 35
3 36 37 38
3 38 39 40
3 40 41 42
3 42 43 36
3 36 38 40
3 40 42 36
3 44 45 46
3 46 47 48
3 48 49 50
3 50 51 44
3 44 46 48
3 48 50 44
3 52 53 54
3 54 55 56
3 56 57 58
3 58 59 52
3 52 54 56
3 56 58 52
4 60 61 62 63
4 63 62 64 65
4 65 64 66 67
4 68 69 70 71
4 71 70 72 73
4 73 72 74 75
4 75 74 76 77
4 77 76 61 60
3 19 18 34
3 34 32 30
3 30 27 26
3 26 22 19
3 19 34 30
3 30 26 19
3 73 75 77
3 77 60 63
3 63 65 68
3 68 71 73
3 73 77 63
3 63 68 73
3 13 15 17
3 17 0 3
3 3 5 8
3 8 11 13
3 13 17 3
3 3 8 13
4 78 79 80 81
4 79 82 83 80
4 82 84 85 83
4 86 87 88 89
4 87 90 91 88
4 90 92 93 91
4 92 94 95 93
4 94 78 81 95
3 96 97 98
3 98 99 100
3 100 101 102
3 102 103 96
3 96 98 100
3 100 102 96
3 104 105 106
3 106 107 108
3 108 109 110
3 110 111 104
3 104 106 108
3 108 110 104
4 112 113 114 115
4 115 114 116 117
4 117 116 118 119
4 120 121 122 123
4 123 122 124 125
4 125 124 126 127
4 127 126 128 129
4 129 128 113 112
3 79 78 94
3 94 92 90
3 90 87 86
3 86 82 79
3 79 94 90
3 90 86 79
3 125 127 129
3 129 112 115
3 115 117 120
3 120 123 125
3 125 129 115
3 115 120 125
4 130 131 132 133
4 134 135 136 137
4 138 139 140 141
4 142 143 144 145
4 146 147 148 149
4 150 151 152 153
4 154 155 156 157
4 158 159 160 161
4 162 163 164 165
4 166 167 168 169
4 170 171 172 173
4 174 175 176 177
4 178 179 180 181
4 182 183 184 185
4 186 187 188 189
4 190 191 192 193
4 194 186 189 195
4 196 190 193 197
4 198 199 200 201
4 202 203 204 205
4 206 207 208 209
4 210 211 212 213
4 214 215 216 217
4 218 219 220 221
4 191 222 223 192
4 187 224 225 188
4 226 227 228 229
4 230 231 232 233
4 234 235 236 237
4 238 239 240 241
4 242 243 244 245
4 246 247 248 249
4 250 251 252 253
4 254 255 256 257
4 258 259 260 261
4 262 263 264 265
4 266 267 259 258
4 268 269 270 271
4 272 273 251 250
4 274 275 151 150
4 276 277 278 279
4 280 281 282 283
4 284 285 286 287
4 288 289 290 291
4 292 293 294 295
4 293 296 297 294
4 296 298 299 297
4 300 301 302 303
4 301 304 305 302
4 304 306 307 305
4 306 308 309 307
4 308 292 295 309
3 310 311 312
3 312 313 314
3 314 315 316
3 316 317 310
3 310 312 314
3 314 316 310
3 318 319 320
3 320 321 322
3 322 323 324
3 324 325 318
3 318 320 322
3 322 324 318
4 326 327 328 329
4 329 328 330 331
4 331 330 332 333
4 334 335 336 337
3 338 339 340
3 340 341 342
3 342 343 344
3 344 338 340
3 340 342 344
4 337 336 345 346
4 346 345 347 348
3 349 350 351
3 351 352 353
3 353 354 355
3 355 349 351
3 351 353 355
4 356 357 358 359
4 359 358 360 361
4 362 360 363 364
4 365 366 367 368
3 369 370 371
3 371 372 373
3 373 374 369
3 371 373 369
4 368 367 375 376
4 376 375 357 377
4 378 346 348 379
4 380 337 346 378
4 381 334 337 380
4 382 331 333 383
4 384 329 331 382
4 385 326 329 384
4 386 387 388 389
4 387 390 391 388
4 390 392 393 391
4 392 394 395 393
4 394 396 397 395
4 396 386 389 397
4 398 399 400 401
4 402 403 404 405
4 406 407 408 409
4 410 411 412 413
4 414 415 416 417
4 418 419 420 421
4 422 423 424 425
4 426 427 428 429
4 430 431 432 433
4 434 435 436 437
4 438 439 440 441
4 442 443 444 445
4 446 447 448 449
4 450 451 452 453
4 454 455 456 457
