# Blender v2.79 (sub 0) OBJ File: 'rail_cart.blend'
# www.blender.org
o Cube.001
v -0.237803 0.717225 0.419034
v -0.285105 0.717225 0.461995
v 0.285105 0.717225 0.461995
v 0.237803 0.717225 0.419034
v 0.237803 0.717225 -0.419034
v 0.232454 0.244308 -0.401613
v 0.232454 0.244308 0.401613
v -0.232454 0.244308 0.401613
v -0.277974 0.198742 0.446122
v 0.277974 0.198742 0.446122
v -0.237803 0.717225 -0.419034
v -0.232454 0.244308 -0.401613
v 0.285105 0.717225 -0.461995
v -0.285105 0.717225 -0.461995
v -0.277974 0.198742 -0.446122
v 0.277974 0.198742 -0.446122
v 0.166558 0.139485 0.263508
v 0.232113 0.139485 0.263508
v 0.232113 0.096627 0.306365
v 0.166558 0.096627 0.306365
v 0.232113 0.096627 0.366975
v 0.166558 0.096627 0.366975
v 0.232113 0.139485 0.409832
v 0.166558 0.139485 0.409832
v 0.232113 0.200095 0.409832
v 0.166558 0.200095 0.409832
v 0.232113 0.242952 0.366975
v 0.166558 0.242952 0.366975
v 0.232113 0.242952 0.306365
v 0.166558 0.242952 0.306365
v 0.232113 0.200095 0.263507
v 0.166558 0.200095 0.263508
v -0.166558 0.139485 0.263508
v -0.166558 0.096627 0.306365
v -0.232113 0.096627 0.306365
v -0.232113 0.139485 0.263508
v -0.166558 0.096627 0.366975
v -0.232113 0.096627 0.366975
v -0.166558 0.139485 0.409832
v -0.232113 0.139485 0.409832
v -0.166558 0.200095 0.409832
v -0.232113 0.200095 0.409832
v -0.166558 0.242952 0.366975
v -0.232113 0.242952 0.366975
v -0.166558 0.242952 0.306365
v -0.232113 0.242952 0.306365
v -0.166558 0.200095 0.263508
v -0.232113 0.200095 0.263507
v 0.166558 0.139485 -0.263508
v 0.166558 0.096627 -0.306365
v 0.232113 0.096627 -0.306365
v 0.232113 0.139485 -0.263508
v 0.166558 0.096627 -0.366975
v 0.232113 0.096627 -0.366975
v 0.166558 0.139485 -0.409832
v 0.232113 0.139485 -0.409832
v 0.166558 0.200095 -0.409832
v 0.232113 0.200095 -0.409832
v 0.166558 0.242952 -0.366975
v 0.232113 0.242952 -0.366975
v 0.166558 0.242952 -0.306365
v 0.232113 0.242952 -0.306365
v 0.166558 0.200095 -0.263508
v 0.232113 0.200095 -0.263508
v -0.166558 0.139485 -0.263508
v -0.232113 0.139485 -0.263508
v -0.232113 0.096627 -0.306365
v -0.166558 0.096627 -0.306365
v -0.232113 0.096627 -0.366975
v -0.166558 0.096627 -0.366975
v -0.232113 0.139485 -0.409832
v -0.166558 0.139485 -0.409832
v -0.232113 0.200095 -0.409832
v -0.166558 0.200095 -0.409832
v -0.232113 0.242952 -0.366975
v -0.166558 0.242952 -0.366975
v -0.232113 0.242952 -0.306365
v -0.166558 0.242952 -0.306365
v -0.232113 0.200095 -0.263508
v -0.166558 0.200095 -0.263508
v 0.264833 0.162493 0.319053
v 0.264833 0.152173 0.329373
v -0.263504 0.152173 0.329373
v -0.263504 0.162493 0.319053
v 0.264833 0.152173 0.343967
v -0.263504 0.152173 0.343967
v 0.264833 0.162493 0.354286
v -0.263504 0.162493 0.354286
v 0.264833 0.177087 0.354286
v -0.263504 0.177087 0.354286
v 0.264833 0.187406 0.343967
v -0.263504 0.187406 0.343967
v 0.264833 0.187406 0.329373
v -0.263504 0.187406 0.329373
v 0.264833 0.177087 0.319053
v -0.263504 0.177087 0.319053
v 0.264833 0.162493 -0.319053
v -0.263504 0.162493 -0.319053
v -0.263504 0.152173 -0.329373
v 0.264833 0.152173 -0.329373
v -0.263504 0.152173 -0.343967
v 0.264833 0.152173 -0.343967
v -0.263504 0.162493 -0.354287
v 0.264833 0.162493 -0.354287
v -0.263504 0.177087 -0.354287
v 0.264833 0.177087 -0.354287
v -0.263504 0.187406 -0.343967
v 0.264833 0.187406 -0.343967
v -0.263504 0.187406 -0.329373
v 0.264833 0.187406 -0.329373
v -0.263504 0.177087 -0.319053
v 0.264833 0.177087 -0.319053
v 0.010168 0.194298 -0.664501
v 0.010168 0.172455 -0.664501
v 0.007770 0.160234 0.523424
v 0.007770 0.138391 0.523424
v -0.010168 0.194298 -0.664501
v -0.010168 0.172455 -0.664501
v -0.007770 0.160234 0.523424
v -0.007770 0.138391 0.523424
v 0.007770 0.160234 0.500991
v 0.007770 0.138391 0.500991
v -0.007770 0.160234 0.500991
v -0.007770 0.138391 0.500991
v 0.012539 0.160234 0.512021
v -0.012539 0.138391 0.512021
v 0.012539 0.138391 0.512021
v -0.012539 0.160234 0.512021
v 0.025037 0.160234 0.546624
v -0.025037 0.160234 0.546624
v -0.025037 0.138391 0.546624
v 0.025037 0.138391 0.546624
v 0.036758 0.160234 0.512021
v -0.036758 0.138391 0.512021
v 0.036758 0.138391 0.512021
v 0.025037 0.138391 0.477791
v -0.036758 0.160234 0.512021
v -0.025037 0.160234 0.477791
v -0.025037 0.138391 0.477791
v 0.025037 0.160234 0.477791
v 0.035037 0.172455 -0.482907
v -0.035037 0.194298 -0.482907
v 0.035037 0.194298 -0.482907
v -0.035037 0.172455 -0.482907
v 0.018248 0.172455 -0.502957
v -0.018248 0.194298 -0.502957
v 0.018248 0.194298 -0.502957
v -0.018248 0.172455 -0.502957
v 0.010975 0.172455 -0.648366
v -0.010975 0.194298 -0.648366
v 0.010975 0.194298 -0.648366
v -0.010975 0.172455 -0.648366
v 0.006649 0.141987 -0.651546
v 0.006160 0.141987 -0.661321
v -0.006160 0.141987 -0.661321
v -0.006649 0.141987 -0.651546
vt 0.033975 0.562400
vt 0.068828 0.562400
vt 0.068828 0.588910
vt 0.033975 0.588910
vt 0.033975 0.535890
vt 0.068828 0.535890
vt 0.945153 0.785896
vt 0.945153 0.770743
vt 0.993767 0.770743
vt 0.993767 0.785896
vt 0.916825 0.785896
vt 0.916825 0.770742
vt 0.111460 0.649759
vt 0.111460 0.614906
vt 0.143910 0.614906
vt 0.143910 0.649759
vt 0.023513 0.737044
vt 0.023513 0.752198
vt 0.012306 0.752198
vt 0.012306 0.737044
vt 0.916814 0.737044
vt 0.916814 0.752201
vt 0.888480 0.752201
vt 0.888480 0.737044
vt 0.142685 0.785896
vt 0.142685 0.770740
vt 0.888497 0.770742
vt 0.888497 0.785896
vt 0.155147 0.965950
vt 0.155147 0.917329
vt 0.900921 0.917328
vt 0.900921 0.965949
vt 0.138304 0.882525
vt 0.138304 0.833904
vt 0.884078 0.833905
vt 0.884078 0.882525
vt 0.945149 0.737044
vt 0.945149 0.752201
vt 0.033975 0.479182
vt 0.068828 0.479182
vt 0.068828 0.698638
vt 0.033975 0.698638
vt 0.033975 0.672128
vt 0.068828 0.672128
vt 0.922261 0.870545
vt 0.922261 0.845886
vt 0.938358 0.833905
vt 0.938357 0.882525
vt 0.939103 0.953968
vt 0.939103 0.929309
vt 0.955200 0.917328
vt 0.955200 0.965949
vt 0.911218 0.873853
vt 0.911218 0.890658
vt 0.928060 0.957277
vt 0.928060 0.974081
vt 0.928060 0.926000
vt 0.917018 0.929309
vt 0.928060 0.909196
vt 0.911218 0.842577
vt 0.900175 0.845886
vt 0.911218 0.825773
vt 0.917018 0.953968
vt 0.900175 0.870545
vt 0.068828 0.645618
vt 0.033975 0.645618
vt 0.124393 0.870876
vt 0.124393 0.845553
vt 0.141235 0.954301
vt 0.141235 0.928979
vt 0.124539 0.785896
vt 0.124539 0.770740
vt 0.142660 0.752199
vt 0.142660 0.737045
vt 0.023515 0.785896
vt 0.023515 0.770740
vt 0.040343 0.949255
vt 0.040343 0.934025
vt 0.023501 0.865830
vt 0.023501 0.850600
vt 0.124518 0.752199
vt 0.124518 0.737045
vt 0.012306 0.865270
vt 0.012306 0.851159
vt 0.019088 0.946254
vt 0.019088 0.937027
vt 0.012306 0.785896
vt 0.012306 0.770740
vt 0.012306 0.945914
vt 0.012306 0.937366
vt 0.014370 0.715711
vt 0.021160 0.715711
vt 0.137514 0.698638
vt 0.117856 0.698638
vt 0.021162 0.807234
vt 0.014371 0.807234
vt 0.945280 0.599715
vt 0.981365 0.635800
vt 0.542356 0.635800
vt 0.578440 0.599715
vt 0.510742 0.039228
vt 0.325309 0.214116
vt 0.203963 0.214116
vt 0.016171 0.039228
vt 0.203963 0.290565
vt 0.016171 0.457058
vt 0.016896 0.662533
vt 0.402430 0.662533
vt 0.402430 0.985568
vt 0.016896 0.985568
vt 0.510742 0.457058
vt 0.325309 0.290565
vt 0.945281 0.054745
vt 0.578440 0.054745
vt 0.542355 0.018660
vt 0.981366 0.018660
vt 0.402430 0.662533
vt 0.402430 0.985568
vt 0.016896 0.985568
vt 0.016896 0.662533
vt 0.913983 0.573229
vt 0.627070 0.573229
vt 0.627070 0.077527
vt 0.913983 0.077527
vt 0.982176 0.662533
vt 0.982176 0.985568
vt 0.982176 0.985568
vt 0.982176 0.662533
vt 0.124462 0.600810
vt 0.124462 0.623015
vt 0.088102 0.623015
vt 0.088102 0.600810
vt 0.052532 0.623015
vt 0.052532 0.600810
vt 0.018360 0.623015
vt 0.018360 0.600810
vt 0.303455 0.600810
vt 0.303455 0.623015
vt 0.269280 0.623015
vt 0.269280 0.600810
vt 0.233709 0.623015
vt 0.233709 0.600810
vt 0.197346 0.623015
vt 0.197346 0.600810
vt 0.160904 0.623015
vt 0.160904 0.600810
vt 0.124462 0.623015
vt 0.088102 0.623015
vt 0.088102 0.600810
vt 0.124462 0.600810
vt 0.052532 0.623015
vt 0.052532 0.600810
vt 0.018360 0.623015
vt 0.018360 0.600810
vt 0.303455 0.623015
vt 0.269280 0.623015
vt 0.269280 0.600810
vt 0.303455 0.600810
vt 0.233709 0.623015
vt 0.233709 0.600810
vt 0.197346 0.623015
vt 0.197346 0.600810
vt 0.160904 0.623015
vt 0.160904 0.600810
vt 0.124462 0.623015
vt 0.088102 0.623015
vt 0.088102 0.600810
vt 0.124462 0.600810
vt 0.052532 0.623015
vt 0.052532 0.600810
vt 0.018360 0.623015
vt 0.018360 0.600810
vt 0.303455 0.623015
vt 0.269280 0.623015
vt 0.269280 0.600810
vt 0.303455 0.600810
vt 0.233709 0.623015
vt 0.233709 0.600810
vt 0.197346 0.623015
vt 0.197346 0.600810
vt 0.160904 0.623015
vt 0.160904 0.600810
vt 0.198847 0.572150
vt 0.224646 0.546350
vt 0.224646 0.509863
vt 0.198847 0.484063
vt 0.162360 0.484063
vt 0.136560 0.509863
vt 0.136560 0.546350
vt 0.162360 0.572150
vt 0.161311 0.486016
vt 0.135511 0.511817
vt 0.135511 0.548303
vt 0.161311 0.574103
vt 0.197798 0.574103
vt 0.223598 0.548303
vt 0.223597 0.511817
vt 0.197798 0.486016
vt 0.224646 0.546350
vt 0.198847 0.572150
vt 0.162360 0.572150
vt 0.136560 0.546350
vt 0.136560 0.509863
vt 0.162360 0.484063
vt 0.198847 0.484063
vt 0.224646 0.509863
vt 0.223598 0.548303
vt 0.197798 0.574103
vt 0.161311 0.574103
vt 0.135511 0.548303
vt 0.135511 0.511817
vt 0.161311 0.486016
vt 0.197798 0.486016
vt 0.223597 0.511817
vt 0.124462 0.600810
vt 0.124462 0.623015
vt 0.088102 0.623015
vt 0.088102 0.600810
vt 0.052532 0.623015
vt 0.052532 0.600810
vt 0.018360 0.623015
vt 0.018360 0.600810
vt 0.303455 0.600810
vt 0.303455 0.623015
vt 0.269280 0.623015
vt 0.269280 0.600810
vt 0.233709 0.623015
vt 0.233709 0.600810
vt 0.197346 0.623015
vt 0.197346 0.600810
vt 0.160904 0.623015
vt 0.160904 0.600810
vt 0.224646 0.546350
vt 0.224646 0.509863
vt 0.198847 0.484063
vt 0.162360 0.484063
vt 0.136560 0.509863
vt 0.136560 0.546350
vt 0.162360 0.572150
vt 0.198847 0.572150
vt 0.124462 0.623015
vt 0.088102 0.623015
vt 0.088102 0.600810
vt 0.124462 0.600810
vt 0.052532 0.623015
vt 0.052532 0.600810
vt 0.018360 0.623015
vt 0.018360 0.600810
vt 0.303455 0.623015
vt 0.269280 0.623015
vt 0.269280 0.600810
vt 0.303455 0.600810
vt 0.233709 0.623015
vt 0.233709 0.600810
vt 0.197346 0.623015
vt 0.197346 0.600810
vt 0.160904 0.623015
vt 0.160904 0.600810
vt 0.198847 0.572150
vt 0.224646 0.546350
vt 0.224646 0.509863
vt 0.198847 0.484063
vt 0.162360 0.484063
vt 0.136560 0.509863
vt 0.136560 0.546350
vt 0.162360 0.572150
vt 0.161311 0.486016
vt 0.135511 0.511817
vt 0.135511 0.548303
vt 0.161311 0.574103
vt 0.197798 0.574103
vt 0.223598 0.548303
vt 0.223597 0.511817
vt 0.197798 0.486016
vt 0.124462 0.600810
vt 0.124462 0.623015
vt 0.088102 0.623015
vt 0.088102 0.600810
vt 0.052532 0.623015
vt 0.052532 0.600810
vt 0.018360 0.623015
vt 0.018360 0.600810
vt 0.303455 0.600810
vt 0.303455 0.623015
vt 0.269280 0.623015
vt 0.269280 0.600810
vt 0.233709 0.623015
vt 0.233709 0.600810
vt 0.197346 0.623015
vt 0.197346 0.600810
vt 0.160904 0.623015
vt 0.160904 0.600810
vn -0.9226 0.0000 -0.3858
vn -0.9179 0.0000 0.3969
vn 0.0000 0.0000 1.0000
vn 0.9471 0.0000 0.3208
vn 0.0000 0.0000 -1.0000
vn -0.9988 0.0000 -0.0500
vn -0.9461 0.0000 -0.3239
vn 0.9999 0.0000 0.0104
vn 0.0000 -0.9994 -0.0354
vn 0.0000 0.9994 0.0354
vn -0.9471 0.0000 0.3208
vn 0.9461 0.0000 -0.3239
vn 0.9179 0.0000 0.3969
vn 0.0000 1.0000 0.0000
vn 0.0000 -1.0000 0.0000
vn 0.9226 0.0000 -0.3858
vn 0.7667 0.0000 -0.6420
vn -0.9999 0.0000 0.0104
vn 0.9988 0.0000 -0.0500
vn -0.7667 -0.0000 -0.6420
vn 0.0000 -0.1038 0.9946
vn -0.9896 -0.1353 -0.0495
vn 0.0000 -0.1038 -0.9946
vn 0.9896 -0.1353 -0.0495
vn 0.2915 0.9096 -0.2961
vn -0.5800 0.5657 0.5862
vn 0.5800 0.5657 0.5862
vn -0.2915 0.9096 -0.2961
vn -0.2915 0.9096 0.2961
vn -0.5757 0.5899 0.5662
vn -0.5757 0.5899 -0.5662
vn 0.5757 0.5899 -0.5662
vn -0.7106 -0.0313 0.7029
vn 0.7106 -0.0313 0.7029
vn 0.2915 0.9096 0.2961
vn 0.5757 0.5899 0.5662
vn 0.5800 0.5657 -0.5862
vn -0.5800 0.5657 -0.5862
vn -0.7106 -0.0313 -0.7029
vn 0.7106 -0.0313 -0.7029
vn -0.6303 -0.2971 -0.7173
vn 0.6303 -0.2971 -0.7173
vn 0.6303 -0.7173 -0.2971
vn -0.6303 -0.7173 -0.2971
vn 0.6303 -0.7173 0.2971
vn -0.6303 -0.7173 0.2971
vn 0.6303 -0.2971 0.7173
vn -0.6303 -0.2971 0.7173
vn 0.6303 0.2971 0.7173
vn -0.6303 0.2971 0.7173
vn 0.6303 0.7173 0.2971
vn -0.6303 0.7173 0.2971
vn 0.6303 0.7173 -0.2971
vn -0.6303 0.7173 -0.2971
vn 0.6303 0.2971 -0.7173
vn -0.6303 0.2971 -0.7173
s off
f 125/1/1 127/2/1 116/3/1 115/4/1
f 127/2/2 125/1/2 121/5/2 122/6/2
f 132/7/3 129/8/3 130/9/3 131/10/3
f 135/11/4 133/12/4 129/8/4 132/7/4
f 118/13/5 117/14/5 113/15/5 114/16/5
f 152/17/6 150/18/6 117/19/6 118/20/6
f 134/21/7 137/22/7 138/23/7 139/24/7
f 141/25/8 143/26/8 140/27/8 136/28/8
f 144/29/9 141/30/9 136/31/9 139/32/9
f 143/33/10 142/34/10 138/35/10 140/36/10
f 131/37/11 130/38/11 137/22/11 134/21/11
f 136/28/12 140/27/12 133/12/12 135/11/12
f 123/39/3 124/40/3 122/6/3 121/5/3
f 124/41/13 123/42/13 128/43/13 126/44/13
f 115/45/14 119/46/14 130/47/14 129/48/14
f 120/49/15 116/50/15 132/51/15 131/52/15
f 125/53/14 115/45/14 129/48/14 133/54/14
f 126/55/15 120/49/15 131/52/15 134/56/15
f 127/57/15 122/58/15 136/31/15 135/59/15
f 128/60/14 123/61/14 138/35/14 137/62/14
f 122/58/15 124/63/15 139/32/15 136/31/15
f 123/61/14 121/64/14 140/36/14 138/35/14
f 121/64/14 125/53/14 133/54/14 140/36/14
f 124/63/15 126/55/15 134/56/15 139/32/15
f 116/50/15 127/57/15 135/59/15 132/51/15
f 119/46/14 128/60/14 137/62/14 130/47/14
f 115/4/5 116/3/5 120/65/5 119/66/5
f 126/44/16 128/43/16 119/66/16 120/65/16
f 147/67/14 146/68/14 142/34/14 143/33/14
f 148/69/15 145/70/15 141/30/15 144/29/15
f 145/71/17 147/72/17 143/26/17 141/25/17
f 139/24/18 138/23/18 142/73/18 144/74/18
f 149/75/19 151/76/19 147/72/19 145/71/19
f 152/77/15 149/78/15 145/70/15 148/69/15
f 151/79/14 150/80/14 146/68/14 147/67/14
f 144/74/20 142/73/20 146/81/20 148/82/20
f 113/83/14 117/84/14 150/80/14 151/79/14
f 149/78/21 152/77/21 156/85/21 153/86/21
f 114/87/19 113/88/19 151/76/19 149/75/19
f 148/82/6 146/81/6 150/18/6 152/17/6
f 155/89/15 154/90/15 153/86/15 156/85/15
f 152/17/22 118/20/22 155/91/22 156/92/22
f 118/13/23 114/16/23 154/93/23 155/94/23
f 114/87/24 149/75/24 153/95/24 154/96/24
s 1
f 1/97/25 2/98/26 3/99/27 4/100/28
f 5/101/29 6/102/30 7/103/31 4/104/28
f 7/103/31 8/105/32 1/106/25 4/104/28
f 9/107/33 10/108/34 3/109/27 2/110/26
f 5/101/29 11/111/35 12/112/36 6/102/30
f 11/111/35 1/106/25 8/105/32 12/112/36
f 11/113/35 5/114/29 13/115/37 14/116/38
f 3/99/27 13/115/37 5/114/29 4/100/28
f 15/117/39 14/118/38 13/119/37 16/120/40
f 1/97/25 11/113/35 14/116/38 2/98/26
f 8/121/32 7/122/31 6/123/30 12/124/36
f 10/108/34 16/125/40 13/126/37 3/109/27
f 2/127/26 14/118/38 15/117/39 9/128/33
f 17/129/41 18/130/42 19/131/43 20/132/44
f 20/132/44 19/131/43 21/133/45 22/134/46
f 22/134/46 21/133/45 23/135/47 24/136/48
f 24/137/48 23/138/47 25/139/49 26/140/50
f 26/140/50 25/139/49 27/141/51 28/142/52
f 28/142/52 27/141/51 29/143/53 30/144/54
f 30/144/54 29/143/53 31/145/55 32/146/56
f 32/146/56 31/145/55 18/130/42 17/129/41
f 33/147/42 34/148/43 35/149/44 36/150/41
f 34/148/43 37/151/45 38/152/46 35/149/44
f 37/151/45 39/153/47 40/154/48 38/152/46
f 39/155/47 41/156/49 42/157/50 40/158/48
f 41/156/49 43/159/51 44/160/52 42/157/50
f 43/159/51 45/161/53 46/162/54 44/160/52
f 45/161/53 47/163/55 48/164/56 46/162/54
f 47/163/55 33/147/42 36/150/41 48/164/56
f 49/165/48 50/166/46 51/167/45 52/168/47
f 50/166/46 53/169/44 54/170/43 51/167/45
f 53/169/44 55/171/41 56/172/42 54/170/43
f 55/173/41 57/174/56 58/175/55 56/176/42
f 57/174/56 59/177/54 60/178/53 58/175/55
f 59/177/54 61/179/52 62/180/51 60/178/53
f 61/179/52 63/181/50 64/182/49 62/180/51
f 63/181/50 49/165/48 52/168/47 64/182/49
f 75/183/54 73/184/56 71/185/41 69/186/44 67/187/46 66/188/48 79/189/50 77/190/52
f 38/191/46 40/192/48 42/193/50 44/194/52 46/195/54 48/196/56 36/197/41 35/198/44
f 58/199/55 60/200/53 62/201/51 64/202/49 52/203/47 51/204/45 54/205/43 56/206/42
f 31/207/55 29/208/53 27/209/51 25/210/49 23/211/47 21/212/45 19/213/43 18/214/42
f 65/215/47 66/216/48 67/217/46 68/218/45
f 68/218/45 67/217/46 69/219/44 70/220/43
f 70/220/43 69/219/44 71/221/41 72/222/42
f 72/223/42 71/224/41 73/225/56 74/226/55
f 74/226/55 73/225/56 75/227/54 76/228/53
f 76/228/53 75/227/54 77/229/52 78/230/51
f 78/230/51 77/229/52 79/231/50 80/232/49
f 80/232/49 79/231/50 66/216/48 65/215/47
f 33/147/42 47/163/55 45/161/53 43/159/51 41/156/49 39/155/47 37/151/45 34/148/43
f 78/230/51 80/232/49 65/215/47 68/218/45 70/220/43 72/223/42 74/226/55 76/228/53
f 30/144/54 32/146/56 17/129/41 20/132/44 22/134/46 24/137/48 26/140/50 28/142/52
f 57/233/56 55/234/41 53/235/44 50/236/46 49/237/48 63/238/50 61/239/52 59/240/54
f 81/241/42 82/242/43 83/243/44 84/244/41
f 82/242/43 85/245/45 86/246/46 83/243/44
f 85/245/45 87/247/47 88/248/48 86/246/46
f 87/249/47 89/250/49 90/251/50 88/252/48
f 89/250/49 91/253/51 92/254/52 90/251/50
f 91/253/51 93/255/53 94/256/54 92/254/52
f 93/255/53 95/257/55 96/258/56 94/256/54
f 95/257/55 81/241/42 84/244/41 96/258/56
f 107/259/54 105/260/56 103/261/41 101/262/44 99/263/46 98/264/48 111/265/50 109/266/52
f 86/267/46 88/268/48 90/269/50 92/270/52 94/271/54 96/272/56 84/273/41 83/274/44
f 97/275/47 98/276/48 99/277/46 100/278/45
f 100/278/45 99/277/46 101/279/44 102/280/43
f 102/280/43 101/279/44 103/281/41 104/282/42
f 104/283/42 103/284/41 105/285/56 106/286/55
f 106/286/55 105/285/56 107/287/54 108/288/53
f 108/288/53 107/287/54 109/289/52 110/290/51
f 110/290/51 109/289/52 111/291/50 112/292/49
f 112/292/49 111/291/50 98/276/48 97/275/47
f 81/241/42 95/257/55 93/255/53 91/253/51 89/250/49 87/249/47 85/245/45 82/242/43
f 110/290/51 112/292/49 97/275/47 100/278/45 102/280/43 104/283/42 106/286/55 108/288/53
