ply
format ascii 1.0
comment Created by Blender 2.79 (sub 0) - www.blender.org, source file: 'tank.blend'
element vertex 222
property float x
property float y
property float z
property float nx
property float ny
property float nz
property float s
property float t
property uchar red
property uchar green
property uchar blue
element face 98
property list uchar uint vertex_indices
end_header
-0.000000 0.100000 -0.500000 0.000000 0.770257 -0.637715 0.196333 0.086032 0 0 0
-0.000000 0.900000 -0.500000 0.000000 -0.770257 -0.637715 0.898099 0.086032 255 255 255
0.250000 0.900000 -0.433013 0.318857 -0.770257 -0.552263 0.898099 0.167079 255 255 255
0.250000 0.100000 -0.433013 0.318857 0.770257 -0.552263 0.196333 0.167079 0 0 0
0.433013 0.900000 -0.250000 0.552263 -0.770257 -0.318857 0.898099 0.248126 255 255 255
0.433013 0.100000 -0.250000 0.552263 0.770257 -0.318857 0.196333 0.248126 0 0 0
0.500000 0.900000 0.000000 0.637715 -0.770257 0.000000 0.898099 0.329173 255 255 255
0.500000 0.100000 0.000000 0.637715 0.770257 0.000000 0.196333 0.329173 0 0 0
0.433013 0.900000 0.250000 0.552263 -0.770257 0.318857 0.898099 0.410220 255 255 255
0.433013 0.100000 0.250000 0.552263 0.770257 0.318857 0.196333 0.410220 0 0 0
0.250000 0.900000 0.433013 0.318857 -0.770257 0.552263 0.898099 0.491267 255 255 255
0.250000 0.100000 0.433013 0.318857 0.770257 0.552263 0.196333 0.491267 1 1 1
0.250000 0.100000 0.433013 0.318857 0.770257 0.552263 0.196958 0.004961 1 1 1
0.250000 0.900000 0.433013 0.318857 -0.770257 0.552263 0.898724 0.004985 255 255 255
0.000000 0.900000 0.500000 0.000000 -0.770257 0.637715 0.898696 0.086032 255 255 255
0.000000 0.100000 0.500000 0.000000 0.770257 0.637715 0.196930 0.086008 0 0 0
-0.250000 0.900000 0.433013 -0.318857 -0.770257 0.552263 0.898668 0.167079 255 255 255
-0.250000 0.100000 0.433013 -0.318857 0.770257 0.552263 0.196902 0.167055 0 0 0
-0.433013 0.900000 0.250000 -0.552263 -0.770257 0.318857 0.898640 0.248126 255 255 255
-0.433013 0.100000 0.250000 -0.552263 0.770257 0.318857 0.196874 0.248102 0 0 0
-0.500000 0.900000 0.000000 -0.637715 -0.770257 0.000000 0.898612 0.329173 255 255 255
-0.500000 0.100000 0.000000 -0.637715 0.770257 0.000000 0.196846 0.329149 0 0 0
0.433013 0.900000 -0.250000 0.552263 -0.770257 -0.318857 0.031662 0.201461 255 255 255
0.250000 0.900000 -0.433013 0.318857 -0.770257 -0.552263 0.031662 0.201461 255 255 255
0.275000 0.900000 -0.476314 0.378552 -0.653218 -0.655721 0.044725 0.201461 255 255 255
0.476314 0.900000 -0.275000 0.655721 -0.653218 -0.378552 0.044725 0.201461 255 255 255
-0.433013 0.900000 -0.250000 -0.552263 -0.770257 -0.318857 0.898584 0.410220 255 255 255
-0.433013 0.100000 -0.250000 -0.552263 0.770257 -0.318857 0.196818 0.410196 0 0 0
-0.250000 0.900000 -0.433012 -0.318857 -0.770257 -0.552263 0.898556 0.491267 255 255 255
-0.250000 0.100000 -0.433012 -0.318857 0.770257 -0.552263 0.196790 0.491243 0 0 0
0.476314 0.900000 0.275000 0.655721 -0.653218 0.378552 0.927088 0.333279 255 255 255
0.550000 0.900000 0.000000 0.757134 -0.653218 0.000000 0.927088 0.168191 255 255 255
0.550000 1.000000 0.000000 0.757134 0.653218 0.000000 1.001018 0.168191 255 255 255
0.476314 1.000000 0.275000 0.655721 0.653218 0.378552 1.001018 0.333279 255 255 255
-0.433013 0.900000 -0.250000 -0.552263 -0.770257 -0.318857 0.031662 0.418919 255 255 255
-0.500000 0.900000 0.000000 -0.637715 -0.770257 0.000000 0.031662 0.336229 255 255 255
-0.550000 0.900000 0.000000 -0.757134 -0.653218 0.000000 0.044725 0.336229 255 255 255
-0.476314 0.900000 -0.275000 -0.655721 -0.653218 -0.378552 0.044725 0.418919 255 255 255
-0.433013 0.900000 0.250000 -0.552263 -0.770257 0.318857 0.031662 0.201461 255 255 255
-0.476314 0.900000 0.275000 -0.655721 -0.653218 0.378552 0.044725 0.201461 255 255 255
-0.250000 0.900000 0.433013 -0.318857 -0.770257 0.552263 0.031662 0.201461 255 255 255
-0.275000 0.900000 0.476314 -0.378552 -0.653218 0.655721 0.044725 0.201461 255 255 255
0.000000 0.900000 0.500000 0.000000 -0.770257 0.637715 0.031662 0.078580 255 255 255
0.000000 0.900000 0.550000 0.000000 -0.653218 0.757134 0.044725 0.078580 255 255 255
0.250000 0.900000 0.433013 0.318857 -0.770257 0.552263 0.031662 0.003871 255 255 255
0.275000 0.900000 0.476314 0.378552 -0.653218 0.655721 0.044725 0.003871 255 255 255
0.250000 0.900000 0.433013 0.318857 -0.770257 0.552263 0.031662 0.493925 255 255 255
0.433013 0.900000 0.250000 0.552263 -0.770257 0.318857 0.031662 0.418919 255 255 255
0.476314 0.900000 0.275000 0.655721 -0.653218 0.378552 0.044725 0.418919 255 255 255
0.275000 0.900000 0.476314 0.378552 -0.653218 0.655721 0.044725 0.493925 255 255 255
0.500000 0.900000 0.000000 0.637715 -0.770257 0.000000 0.031662 0.336229 255 255 255
0.550000 0.900000 0.000000 0.757134 -0.653218 0.000000 0.044725 0.336229 255 255 255
-0.000000 0.900000 -0.500000 0.000000 -0.770257 -0.637715 0.031662 0.078580 255 255 255
-0.250000 0.900000 -0.433012 -0.318857 -0.770257 -0.552263 0.031662 0.003871 255 255 255
-0.275000 0.900000 -0.476314 -0.378552 -0.653218 -0.655721 0.044725 0.003871 255 255 255
-0.000000 0.900000 -0.550000 0.000000 -0.653218 -0.757134 0.044725 0.078580 255 255 255
-0.250000 0.900000 -0.433012 -0.318857 -0.770257 -0.552263 0.031662 0.493925 255 255 255
-0.275000 0.900000 -0.476314 -0.378552 -0.653218 -0.655721 0.044725 0.493925 255 255 255
0.000000 1.000000 0.550000 0.000000 0.653218 0.757134 0.075704 0.078580 255 255 255
0.275000 1.000000 0.476314 0.378552 0.653218 0.655721 0.075704 0.003871 255 255 255
0.233220 1.000000 0.403949 0.000000 1.000000 0.000000 0.075704 0.003871 255 255 255
0.000000 1.000000 0.466440 0.000000 1.000000 0.000000 0.075704 0.078580 255 255 255
-0.275000 0.900000 -0.476314 -0.378552 -0.653218 -0.655721 0.927088 0.001498 255 255 255
-0.476314 0.900000 -0.275000 -0.655721 -0.653218 -0.378552 0.927088 0.165693 255 255 255
-0.476314 1.000000 -0.275000 -0.655721 0.653218 -0.378552 1.001018 0.165693 255 255 255
-0.275000 1.000000 -0.476314 -0.378552 0.653218 -0.655721 1.001018 0.001498 255 255 255
0.275000 0.900000 -0.476314 0.378552 -0.653218 -0.655721 0.927088 0.332374 255 255 255
-0.000000 0.900000 -0.550000 0.000000 -0.653218 -0.757134 0.927088 0.166355 255 255 255
-0.000000 1.000000 -0.550000 0.000000 0.653218 -0.757134 1.001018 0.166355 255 255 255
0.275000 1.000000 -0.476314 0.378552 0.653218 -0.655721 1.001018 0.332374 255 255 255
-0.476314 0.900000 0.275000 -0.655721 -0.653218 0.378552 0.927088 0.498410 255 255 255
-0.275000 0.900000 0.476314 -0.378552 -0.653218 0.655721 0.927088 0.333113 255 255 255
-0.275000 1.000000 0.476314 -0.378552 0.653218 0.655721 1.001018 0.333113 255 255 255
-0.476314 1.000000 0.275000 -0.655721 0.653218 0.378552 1.001018 0.498410 255 255 255
0.275000 0.900000 0.476314 0.378552 -0.653218 0.655721 0.927088 0.497136 255 255 255
0.275000 1.000000 0.476314 0.378552 0.653218 0.655721 1.001018 0.497136 255 255 255
-0.275000 0.900000 -0.476314 -0.378552 -0.653218 -0.655721 0.927088 0.000335 255 255 255
-0.275000 1.000000 -0.476314 -0.378552 0.653218 -0.655721 1.001018 0.000335 255 255 255
0.476314 0.900000 -0.275000 0.655721 -0.653218 -0.378552 0.927088 0.498394 255 255 255
0.476314 1.000000 -0.275000 0.655721 0.653218 -0.378552 1.001018 0.498394 255 255 255
-0.550000 0.900000 0.000000 -0.757134 -0.653218 0.000000 0.927088 0.331051 255 255 255
-0.476314 0.900000 0.275000 -0.655721 -0.653218 0.378552 0.927088 0.496409 255 255 255
-0.476314 1.000000 0.275000 -0.655721 0.653218 0.378552 1.001018 0.496409 255 255 255
-0.550000 1.000000 0.000000 -0.757134 0.653218 0.000000 1.001018 0.331051 255 255 255
0.000000 0.900000 0.550000 0.000000 -0.653218 0.757134 0.927088 0.166586 255 255 255
0.275000 0.900000 0.476314 0.378552 -0.653218 0.655721 0.927088 0.001220 255 255 255
0.275000 1.000000 0.476314 0.378552 0.653218 0.655721 1.001018 0.001220 255 255 255
0.000000 1.000000 0.550000 0.000000 0.653218 0.757134 1.001018 0.166586 255 255 255
0.476314 0.900000 -0.275000 0.655721 -0.653218 -0.378552 0.927088 0.003103 255 255 255
0.476314 1.000000 -0.275000 0.655721 0.653218 -0.378552 1.001018 0.003103 255 255 255
0.168158 0.500000 0.422553 1.000000 0.000000 0.000000 0.831520 0.899003 0 0 0
0.084079 0.645629 0.422553 0.499985 0.866024 0.000000 0.910071 0.899003 0 0 0
0.084079 0.645629 0.580966 0.396191 0.686239 0.609973 0.910071 0.999356 255 255 255
0.168158 0.500000 0.580966 0.792383 0.000000 0.609973 0.831520 0.999356 255 255 255
-0.168158 0.500000 0.580966 -0.792383 0.000000 0.609973 0.592803 0.688233 255 255 255
-0.084079 0.354371 0.580966 -0.396191 -0.686239 0.609973 0.676122 0.543921 255 255 255
-0.047128 0.418372 0.580966 0.000000 0.000000 1.000000 0.712739 0.607343 0 0 0
-0.094256 0.500000 0.580966 0.000000 0.000000 1.000000 0.666037 0.688233 0 0 0
-0.084079 0.645629 0.422553 -0.499985 0.866024 0.000000 0.517314 0.899003 0 0 0
-0.168158 0.500000 0.422553 -1.000000 0.000000 0.000000 0.595865 0.899003 89 89 89
-0.168158 0.500000 0.580966 -0.792383 0.000000 0.609973 0.595865 0.999356 255 255 255
-0.084079 0.645629 0.580966 -0.396191 0.686239 0.609973 0.517314 0.999356 255 255 255
-0.084079 0.354371 0.422553 -0.499985 -0.866024 0.000000 0.674417 0.899003 0 0 0
0.084079 0.354371 0.422553 0.499985 -0.866024 0.000000 0.752968 0.899003 1 1 1
0.084079 0.354371 0.580966 0.396191 -0.686239 0.609973 0.752968 0.999356 255 255 255
-0.084079 0.354371 0.580966 -0.396191 -0.686239 0.609973 0.674417 0.999356 255 255 255
-0.084079 0.645629 0.422553 -0.499985 0.866024 0.000000 0.988623 0.899003 0 0 0
-0.084079 0.645629 0.580966 -0.396191 0.686239 0.609973 0.988623 0.999356 255 255 255
0.084079 0.354371 0.422553 0.499985 -0.866024 0.000000 0.752968 0.899003 0 0 0
-0.168158 0.500000 0.422553 -1.000000 0.000000 0.000000 0.595865 0.899003 0 0 0
0.168158 0.500000 0.580966 0.792383 0.000000 0.609973 0.926078 0.688233 255 255 255
0.084079 0.645629 0.580966 0.396191 0.686239 0.609973 0.842759 0.832545 255 255 255
0.047128 0.581628 0.580966 0.000000 0.000000 1.000000 0.806142 0.769123 0 0 0
0.094256 0.500000 0.580966 0.000000 0.000000 1.000000 0.852844 0.688233 0 0 0
-0.084079 0.645629 0.580966 -0.396191 0.686239 0.609973 0.676122 0.832545 255 255 255
-0.047128 0.581628 0.580966 0.000000 0.000000 0.999969 0.712739 0.769123 0 0 0
0.084079 0.354371 0.580966 0.396191 -0.686239 0.609973 0.842759 0.543921 255 255 255
0.047128 0.418372 0.580966 0.000000 0.000000 1.000000 0.806142 0.607343 0 0 0
-0.094256 0.500000 0.580966 0.000000 0.000000 1.000000 0.177517 0.726592 255 255 255
-0.047128 0.418372 0.580966 0.000000 0.000000 1.000000 0.243612 0.612112 255 255 255
0.047128 0.418372 0.580966 0.000000 0.000000 1.000000 0.375802 0.612112 255 255 255
0.094256 0.500000 0.580966 0.000000 0.000000 1.000000 0.441898 0.726592 255 255 255
0.047128 0.581628 0.580966 0.000000 0.000000 1.000000 0.375802 0.841072 255 255 255
-0.047128 0.581628 0.580966 0.000000 0.000000 0.999969 0.243612 0.841072 255 255 255
0.403949 1.000000 -0.233220 0.000000 1.000000 0.000000 0.592979 0.421803 255 255 255
0.233220 1.000000 -0.403949 0.000000 1.000000 0.000000 0.502982 0.421803 255 255 255
-0.000000 1.000000 -0.466440 0.000000 1.000000 0.000000 0.425043 0.376805 255 255 255
-0.233220 1.000000 -0.403949 0.000000 1.000000 0.000000 0.380045 0.298865 255 255 255
-0.403949 1.000000 -0.233220 0.000000 1.000000 0.000000 0.380045 0.208869 255 255 255
-0.466440 1.000000 0.000000 0.000000 1.000000 0.000000 0.425043 0.130930 255 255 255
-0.403949 1.000000 0.233220 0.000000 1.000000 0.000000 0.502982 0.085931 255 255 255
-0.233220 1.000000 0.403949 0.000000 1.000000 0.000000 0.592979 0.085931 255 255 255
0.000000 1.000000 0.466440 0.000000 1.000000 0.000000 0.670918 0.130930 255 255 255
0.233220 1.000000 0.403949 0.000000 1.000000 0.000000 0.715916 0.208869 255 255 255
0.403949 1.000000 0.233220 0.000000 1.000000 0.000000 0.715916 0.298865 255 255 255
0.466440 1.000000 0.000000 0.000000 1.000000 0.000000 0.670918 0.376805 255 255 255
0.550000 1.000000 0.000000 0.757134 0.653218 0.000000 0.075704 0.336229 255 255 255
0.476314 1.000000 -0.275000 0.655721 0.653218 -0.378552 0.075704 0.201461 255 255 255
0.403949 1.000000 -0.233220 0.000000 1.000000 0.000000 0.075704 0.201461 255 255 255
0.466440 1.000000 0.000000 0.000000 1.000000 0.000000 0.075704 0.336229 255 255 255
-0.476314 1.000000 -0.275000 -0.655721 0.653218 -0.378552 0.075704 0.418919 255 255 255
-0.550000 1.000000 0.000000 -0.757134 0.653218 0.000000 0.075704 0.336229 255 255 255
-0.466440 1.000000 0.000000 0.000000 1.000000 0.000000 0.075704 0.336229 255 255 255
-0.403949 1.000000 -0.233220 0.000000 1.000000 0.000000 0.075704 0.418919 255 255 255
-0.275000 1.000000 0.476314 -0.378552 0.653218 0.655721 0.075704 0.201461 255 255 255
-0.233220 1.000000 0.403949 0.000000 1.000000 0.000000 0.075704 0.201461 255 255 255
0.476314 1.000000 0.275000 0.655721 0.653218 0.378552 0.075704 0.418919 255 255 255
0.403949 1.000000 0.233220 0.000000 1.000000 0.000000 0.075704 0.418919 255 255 255
-0.275000 1.000000 -0.476314 -0.378552 0.653218 -0.655721 0.075704 0.493925 255 255 255
-0.233220 1.000000 -0.403949 0.000000 1.000000 0.000000 0.075704 0.493925 255 255 255
0.275000 1.000000 -0.476314 0.378552 0.653218 -0.655721 0.075704 0.201461 255 255 255
-0.000000 1.000000 -0.550000 0.000000 0.653218 -0.757134 0.075704 0.078580 255 255 255
-0.000000 1.000000 -0.466440 0.000000 1.000000 0.000000 0.075704 0.078580 255 255 255
0.233220 1.000000 -0.403949 0.000000 1.000000 0.000000 0.075704 0.201461 255 255 255
-0.476314 1.000000 0.275000 -0.655721 0.653218 0.378552 0.075704 0.201461 255 255 255
-0.403949 1.000000 0.233220 0.000000 1.000000 0.000000 0.075704 0.201461 255 255 255
0.275000 1.000000 0.476314 0.378552 0.653218 0.655721 0.075704 0.493925 255 255 255
0.233220 1.000000 0.403949 0.000000 1.000000 0.000000 0.075704 0.493925 255 255 255
-0.275000 1.000000 -0.476314 -0.378552 0.653218 -0.655721 0.075704 0.003871 255 255 255
-0.233220 1.000000 -0.403949 0.000000 1.000000 0.000000 0.075704 0.003871 255 255 255
-0.000000 0.100000 -0.550000 0.000000 0.653218 -0.757134 1.001018 0.166355 255 255 255
-0.000000 0.000000 -0.550000 0.000000 0.000000 -0.999969 0.927088 0.166355 255 255 255
-0.275000 0.000000 -0.476314 -0.499985 0.000000 -0.866024 0.927088 0.000335 238 238 238
-0.275000 0.100000 -0.476314 -0.378552 0.653218 -0.655721 1.001018 0.000335 255 255 255
-0.476314 0.000000 -0.275000 -0.866024 0.000000 -0.499985 0.927088 0.165693 255 255 255
-0.476314 0.100000 -0.275000 -0.655721 0.653218 -0.378552 1.001018 0.165693 255 255 255
-0.275000 0.100000 -0.476314 -0.378552 0.653218 -0.655721 1.001018 0.001498 255 255 255
-0.275000 0.000000 -0.476314 -0.499985 0.000000 -0.866024 0.927088 0.001498 238 238 238
-0.550000 0.000000 0.000000 -1.000000 0.000000 0.000000 0.927088 0.331051 255 255 255
-0.550000 0.100000 0.000000 -0.757134 0.653218 0.000000 1.001018 0.331051 255 255 255
-0.476314 0.000000 0.275000 -0.866024 0.000000 0.499985 0.927088 0.496409 255 255 255
-0.476314 0.100000 0.275000 -0.655721 0.653218 0.378552 1.001018 0.496409 255 255 255
-0.275000 0.000000 0.476314 -0.499985 0.000000 0.866024 0.927087 0.333113 255 255 255
-0.275000 0.100000 0.476314 -0.378552 0.653218 0.655721 1.001018 0.333113 255 255 255
-0.476314 0.100000 0.275000 -0.655721 0.653218 0.378552 1.001018 0.498410 255 255 255
-0.476314 0.000000 0.275000 -0.866024 0.000000 0.499985 0.927088 0.498410 255 255 255
0.000000 0.000000 0.550000 0.000000 0.000000 0.999969 0.927087 0.166586 255 255 255
0.000000 0.100000 0.550000 0.000000 0.653218 0.757134 1.001017 0.166586 255 255 255
0.275000 0.000000 0.476314 0.499985 0.000000 0.866024 0.927087 0.001221 255 255 255
0.275000 0.100000 0.476314 0.378552 0.653218 0.655721 1.001017 0.001220 255 255 255
0.476314 0.000000 0.275000 0.866024 0.000000 0.499985 0.927088 0.333279 255 255 255
0.476314 0.100000 0.275000 0.655721 0.653218 0.378552 1.001018 0.333279 255 255 255
0.275000 0.100000 0.476314 0.378552 0.653218 0.655721 1.001018 0.497136 255 255 255
0.275000 0.000000 0.476314 0.499985 0.000000 0.866024 0.927088 0.497136 255 255 255
0.550000 0.000000 0.000000 1.000000 0.000000 0.000000 0.927088 0.168191 254 254 254
0.550000 0.100000 0.000000 0.757134 0.653218 0.000000 1.001018 0.168191 255 255 255
0.476314 0.000000 -0.275000 0.866024 0.000000 -0.499985 0.927088 0.003103 255 255 255
0.476314 0.100000 -0.275000 0.655721 0.653218 -0.378552 1.001018 0.003103 255 255 255
0.275000 0.000000 -0.476314 0.499985 0.000000 -0.866024 0.927088 0.332375 255 255 255
0.275000 0.100000 -0.476314 0.378552 0.653218 -0.655721 1.001018 0.332375 255 255 255
0.476314 0.100000 -0.275000 0.655721 0.653218 -0.378552 1.001018 0.498394 255 255 255
0.476314 0.000000 -0.275000 0.866024 0.000000 -0.499985 0.927088 0.498394 255 255 255
-0.275000 0.100000 -0.476314 -0.378552 0.653218 -0.655721 0.495112 0.004985 255 255 255
-0.250000 0.100000 -0.433012 -0.318857 0.770257 -0.552263 0.738439 0.004985 0 0 0
-0.000000 0.100000 -0.500000 0.000000 0.770257 -0.637715 0.738439 0.086032 0 0 0
-0.000000 0.100000 -0.550000 0.000000 0.653218 -0.757134 0.495112 0.086032 255 255 255
-0.476314 0.100000 -0.275000 -0.655721 0.653218 -0.378552 0.495597 0.410172 255 255 255
-0.433013 0.100000 -0.250000 -0.552263 0.770257 -0.318857 0.738924 0.410196 0 0 0
-0.250000 0.100000 -0.433012 -0.318857 0.770257 -0.552263 0.738896 0.491243 0 0 0
-0.275000 0.100000 -0.476314 -0.378552 0.653218 -0.655721 0.495569 0.491219 255 255 255
-0.550000 0.100000 0.000000 -0.757134 0.653218 0.000000 0.495625 0.329125 255 255 255
-0.500000 0.100000 0.000000 -0.637715 0.770257 0.000000 0.738952 0.329149 1 1 1
-0.476314 0.100000 0.275000 -0.655721 0.653218 0.378552 0.495653 0.248077 255 255 255
-0.433013 0.100000 0.250000 -0.552263 0.770257 0.318857 0.738980 0.248102 0 0 0
-0.275000 0.100000 0.476314 -0.378552 0.653218 0.655721 0.495681 0.167030 255 255 255
-0.250000 0.100000 0.433013 -0.318857 0.770257 0.552263 0.739008 0.167055 0 0 0
0.000000 0.100000 0.550000 0.000000 0.653218 0.757134 0.495709 0.085983 255 255 255
0.000000 0.100000 0.500000 0.000000 0.770257 0.637715 0.739036 0.086008 0 0 0
0.275000 0.100000 0.476314 0.378552 0.653218 0.655721 0.495737 0.004936 255 255 255
0.250000 0.100000 0.433013 0.318857 0.770257 0.552263 0.739064 0.004961 0 0 0
0.476314 0.100000 0.275000 0.655721 0.653218 0.378552 0.495112 0.410220 255 255 255
0.433013 0.100000 0.250000 0.552263 0.770257 0.318857 0.738439 0.410220 0 0 0
0.250000 0.100000 0.433013 0.318857 0.770257 0.552263 0.738439 0.491267 0 0 0
0.275000 0.100000 0.476314 0.378552 0.653218 0.655721 0.495112 0.491267 255 255 255
0.550000 0.100000 0.000000 0.757134 0.653218 0.000000 0.495112 0.329173 255 255 255
0.500000 0.100000 0.000000 0.637715 0.770257 0.000000 0.738439 0.329173 0 0 0
0.476314 0.100000 -0.275000 0.655721 0.653218 -0.378552 0.495112 0.248126 255 255 255
0.433013 0.100000 -0.250000 0.552263 0.770257 -0.318857 0.738439 0.248126 0 0 0
0.275000 0.100000 -0.476314 0.378552 0.653218 -0.655721 0.495112 0.167079 255 255 255
0.250000 0.100000 -0.433013 0.318857 0.770257 -0.552263 0.738439 0.167079 0 0 0
-0.250000 0.100000 -0.433012 -0.318857 0.770257 -0.552263 0.196333 0.004985 0 0 0
-0.250000 0.900000 -0.433012 -0.318857 -0.770257 -0.552263 0.898099 0.004985 255 255 255
4 0 1 2 3
4 3 2 4 5
4 5 4 6 7
4 7 6 8 9
4 9 8 10 11
4 12 13 14 15
4 15 14 16 17
4 17 16 18 19
4 19 18 20 21
4 22 23 24 25
4 21 20 26 27
4 27 26 28 29
4 30 31 32 33
4 34 35 36 37
4 35 38 39 36
4 38 40 41 39
4 40 42 43 41
4 42 44 45 43
4 46 47 48 49
4 47 50 51 48
4 52 53 54 55
4 23 52 55 24
4 50 22 25 51
4 56 34 37 57
4 58 59 60 61
4 62 63 64 65
4 66 67 68 69
4 70 71 72 73
4 74 30 33 75
4 67 76 77 68
4 78 66 69 79
4 80 81 82 83
4 84 85 86 87
4 31 88 89 32
4 63 80 83 64
4 71 84 87 72
4 90 91 92 93
4 94 95 96 97
4 98 99 100 101
4 102 103 104 105
4 91 106 107 92
4 108 90 93 104
4 109 102 105 100
4 110 111 112 113
4 114 94 97 115
4 95 116 117 96
4 111 114 115 112
4 116 110 113 117
3 118 119 120
3 120 121 122
3 122 123 118
3 120 122 118
3 124 125 126
3 126 127 128
3 128 129 130
3 130 131 132
3 132 133 134
3 134 135 124
3 124 126 128
3 128 130 132
3 132 134 124
3 128 132 124
4 136 137 138 139
4 140 141 142 143
4 144 58 61 145
4 146 136 139 147
4 148 140 143 149
4 150 151 152 153
4 154 144 145 155
4 156 146 147 157
4 151 158 159 152
4 137 150 153 138
4 141 154 155 142
4 160 161 162 163
4 164 165 166 167
4 168 169 165 164
4 170 171 169 168
4 172 173 174 175
4 176 177 173 172
4 178 179 177 176
4 180 181 182 183
4 184 185 181 180
4 186 187 185 184
4 188 189 190 191
4 161 160 189 188
4 192 193 194 195
4 196 197 198 199
4 200 201 197 196
4 202 203 201 200
4 204 205 203 202
4 206 207 205 204
4 208 209 207 206
4 210 211 212 213
4 214 215 211 210
4 216 217 215 214
4 218 219 217 216
4 195 194 219 218
4 220 221 1 0
